<svg width="60" height="60" viewBox="0 0 60 60" fill="none" xmlns="http://www.w3.org/2000/svg">
<path d="M43.35 13.6499C42.7567 13.6499 42.1766 13.8258 41.6833 14.1555C41.1899 14.4851 40.8054 14.9537 40.5784 15.5018C40.3513 16.05 40.2919 16.6532 40.4076 17.2351C40.5234 17.8171 40.8091 18.3516 41.2287 18.7712C41.6482 19.1908 42.1828 19.4765 42.7647 19.5922C43.3467 19.708 43.9499 19.6486 44.4981 19.4215C45.0462 19.1945 45.5148 18.8099 45.8444 18.3166C46.1741 17.8232 46.35 17.2432 46.35 16.6499C46.35 15.8542 46.0339 15.0912 45.4713 14.5286C44.9087 13.9659 44.1457 13.6499 43.35 13.6499V13.6499ZM54.85 19.6999C54.8014 17.6256 54.4129 15.5734 53.7 13.6249C53.0643 11.9577 52.075 10.4481 50.8 9.19988C49.5621 7.91844 48.0489 6.93532 46.375 6.32488C44.4316 5.59028 42.3771 5.1929 40.3 5.14988C37.65 4.99988 36.8 4.99988 30 4.99988C23.2 4.99988 22.35 4.99988 19.7 5.14988C17.6229 5.1929 15.5684 5.59028 13.625 6.32488C11.9542 6.9415 10.4423 7.92378 9.2 9.19988C7.91857 10.4378 6.93544 11.951 6.325 13.6249C5.5904 15.5682 5.19303 17.6228 5.15 19.6999C5 22.3499 5 23.1999 5 29.9999C5 36.7999 5 37.6499 5.15 40.2999C5.19303 42.377 5.5904 44.4315 6.325 46.3749C6.93544 48.0488 7.91857 49.5619 9.2 50.7999C10.4423 52.076 11.9542 53.0583 13.625 53.6749C15.5684 54.4095 17.6229 54.8069 19.7 54.8499C22.35 54.9999 23.2 54.9999 30 54.9999C36.8 54.9999 37.65 54.9999 40.3 54.8499C42.3771 54.8069 44.4316 54.4095 46.375 53.6749C48.0489 53.0644 49.5621 52.0813 50.8 50.7999C52.0806 49.5563 53.0708 48.0454 53.7 46.3749C54.4129 44.4264 54.8014 42.3741 54.85 40.2999C54.85 37.6499 55 36.7999 55 29.9999C55 23.1999 55 22.3499 54.85 19.6999V19.6999ZM50.35 39.9999C50.3318 41.5868 50.0444 43.1591 49.5 44.6499C49.1008 45.7379 48.4597 46.7209 47.625 47.5249C46.8141 48.3511 45.8331 48.991 44.75 49.3999C43.2593 49.9443 41.6869 50.2317 40.1 50.2499C37.6 50.3749 36.675 50.3999 30.1 50.3999C23.525 50.3999 22.6 50.3999 20.1 50.2499C18.4522 50.2807 16.8115 50.027 15.25 49.4999C14.2145 49.0701 13.2784 48.4318 12.5 47.6249C11.6702 46.8218 11.0371 45.8379 10.65 44.7499C10.0396 43.2378 9.70111 41.6297 9.65 39.9999C9.65 37.4999 9.5 36.5749 9.5 29.9999C9.5 23.4249 9.5 22.4999 9.65 19.9999C9.66121 18.3775 9.95738 16.7697 10.525 15.2499C10.9651 14.1947 11.6407 13.254 12.5 12.4999C13.2595 11.6403 14.1982 10.9576 15.25 10.4999C16.7739 9.94999 18.38 9.66258 20 9.64988C22.5 9.64988 23.425 9.49988 30 9.49988C36.575 9.49988 37.5 9.49988 40 9.64988C41.5869 9.66808 43.1593 9.95549 44.65 10.4999C45.7861 10.9215 46.8057 11.607 47.625 12.4999C48.4443 13.2678 49.0844 14.2067 49.5 15.2499C50.0556 16.7722 50.3432 18.3793 50.35 19.9999C50.475 22.4999 50.5 23.4249 50.5 29.9999C50.5 36.5749 50.475 37.4999 50.35 39.9999ZM30 17.1749C27.4645 17.1798 24.9874 17.9362 22.8816 19.3484C20.7759 20.7607 19.1359 22.7654 18.1691 25.1093C17.2022 27.4532 16.9518 30.031 17.4495 32.5172C17.9472 35.0034 19.1706 37.2862 20.9652 39.0773C22.7598 40.8684 25.045 42.0874 27.5322 42.5803C30.0193 43.0731 32.5967 42.8176 34.9387 41.8462C37.2807 40.8748 39.2822 39.231 40.6903 37.1225C42.0985 35.0139 42.85 32.5354 42.85 29.9999C42.8533 28.3126 42.523 26.6414 41.8781 25.0823C41.2332 23.5231 40.2864 22.1069 39.0922 20.915C37.898 19.7231 36.4799 18.7791 34.9195 18.1372C33.3591 17.4953 31.6872 17.1683 30 17.1749V17.1749ZM30 38.3249C28.3535 38.3249 26.7439 37.8366 25.3749 36.9219C24.0058 36.0071 22.9388 34.7069 22.3087 33.1857C21.6786 31.6645 21.5137 29.9906 21.835 28.3758C22.1562 26.7609 22.9491 25.2775 24.1133 24.1132C25.2776 22.9489 26.761 22.1561 28.3759 21.8348C29.9908 21.5136 31.6646 21.6785 33.1858 22.3086C34.707 22.9387 36.0072 24.0057 36.922 25.3748C37.8368 26.7438 38.325 28.3534 38.325 29.9999C38.325 31.0931 38.1097 32.1757 37.6913 33.1857C37.2729 34.1958 36.6597 35.1135 35.8867 35.8865C35.1136 36.6596 34.1959 37.2728 33.1858 37.6912C32.1758 38.1095 31.0933 38.3249 30 38.3249V38.3249Z" opacity='0.4' fill="#000"/>
</svg>
