<svg width="550" height="542" viewBox="0 0 550 542" fill="none" xmlns="http://www.w3.org/2000/svg">
<path d="M294.501 304.229L294.501 304.229L294.499 304.224C293.377 301.979 293.287 300.307 293.677 299.023C294.074 297.718 295.02 296.638 296.313 295.694C297.609 294.748 299.168 294 300.674 293.327C300.914 293.22 301.157 293.113 301.398 293.007C302.6 292.477 303.774 291.96 304.56 291.427L304.566 291.423L304.572 291.419C306.944 289.76 309.667 289.407 312.633 289.023C312.696 289.014 312.76 289.006 312.824 288.998C315.781 288.614 318.998 288.167 321.663 285.925L321.67 285.919L321.677 285.913C323.488 284.331 326.101 283.925 328.821 284.811C329.416 285.104 329.982 285.4 330.431 285.894C331.061 286.633 331.342 287.676 331.314 288.748C331.285 289.824 330.95 290.754 330.555 291.248C330.088 291.743 329.491 292.085 328.74 292.466C328.647 292.513 328.551 292.561 328.452 292.61C327.786 292.943 327.004 293.333 326.309 293.887L326.309 293.887L326.303 293.892C325.1 294.864 324.264 296.296 323.601 297.783C323.079 298.957 322.628 300.254 322.197 301.495C322.081 301.829 321.967 302.159 321.853 302.481C321.3 304.042 320.754 305.436 320.073 306.507C319.399 307.566 318.668 308.191 317.789 308.401L317.777 308.404L317.766 308.407C316.533 308.732 315.067 308.227 313.22 307.381C312.98 307.272 312.733 307.156 312.481 307.038C311.827 306.732 311.144 306.412 310.48 306.145C309.552 305.771 308.563 305.457 307.566 305.386L307.564 305.386C306.099 305.285 304.81 305.706 303.674 306.159C303.361 306.285 303.065 306.409 302.779 306.53C301.975 306.868 301.251 307.173 300.457 307.358L300.433 307.364L300.409 307.371C298.581 307.896 295.951 307.171 294.501 304.229Z" stroke="#E1AFB4" stroke-width="2" stroke-miterlimit="10"/>
<path d="M328.735 303.582L328.735 303.581L328.732 303.592C328.487 304.468 328.259 305.382 328.025 306.316C327.633 307.886 327.227 309.512 326.704 311.106C325.876 313.626 324.847 315.73 323.401 316.936C322.104 318.001 320.598 318.239 318.777 318.044C317.296 317.867 315.735 317.267 314.02 316.449C313.24 316.077 312.446 315.669 311.623 315.246C311.545 315.206 311.466 315.166 311.388 315.126C310.488 314.664 309.555 314.188 308.597 313.742C306.896 312.909 305.17 312.25 303.431 312.131C301.452 311.899 299.645 312.289 297.922 312.845C297.139 313.098 296.355 313.392 295.58 313.683C295.503 313.711 295.426 313.74 295.349 313.769C294.491 314.09 293.636 314.405 292.751 314.677L292.751 314.677L292.742 314.68C288.114 316.151 283.184 313.481 280.546 307.879C279.652 305.981 279.021 304.13 278.644 302.327C278.144 299.595 277.936 296.562 278.338 293.872C278.741 291.167 279.737 288.949 281.51 287.639C281.788 287.434 282.209 287.292 282.822 287.226C283.431 287.16 284.129 287.178 284.902 287.214C285.029 287.22 285.158 287.227 285.289 287.233C285.928 287.266 286.608 287.3 287.241 287.284C287.998 287.264 288.813 287.172 289.52 286.844L289.527 286.841L289.535 286.837C290.844 286.205 292.07 285.573 293.241 284.97C295.373 283.872 297.319 282.869 299.242 282.131L299.251 282.128L299.261 282.124C301.94 281.032 304.369 279.524 306.687 278.086C306.954 277.92 307.219 277.756 307.484 277.593C310.075 275.994 312.559 274.542 315.293 273.728C316.424 273.393 317.791 273.558 319.437 273.808C319.531 273.822 319.625 273.837 319.72 273.851C321.177 274.075 322.849 274.331 324.37 274.03C324.996 273.97 325.48 273.799 326.016 273.452L326.03 273.443L326.044 273.434C329.271 271.189 333.321 271.143 337.27 272.901L337.284 272.907L337.297 272.913C338.337 273.339 339.344 273.996 340.304 275.144L340.44 275.306L340.493 275.332C341.731 277.04 342.329 279.335 342.377 281.544C342.426 283.802 341.899 285.759 341.128 286.788L341.117 286.802L341.107 286.817C340.431 287.792 339.535 288.411 338.475 289.001C338.231 289.137 337.97 289.275 337.698 289.419C336.853 289.865 335.912 290.363 335.094 291.005C334.469 291.481 333.919 291.95 333.404 292.559C332.108 294.045 331.219 295.884 330.518 297.781C329.967 299.274 329.514 300.86 329.081 302.379C328.965 302.786 328.85 303.188 328.735 303.582Z" stroke="#E1AFB4" stroke-width="2" stroke-miterlimit="10"/>
<path d="M327.05 326.933L327.044 326.937L327.038 326.941C324.828 328.461 322.339 328.366 319.667 327.693C317.574 327.155 315.459 326.125 313.229 324.891C312.448 324.459 311.644 323.996 310.824 323.524C309.352 322.677 307.83 321.801 306.296 321.018C304.027 319.808 301.796 319.109 299.682 318.767L299.669 318.765L299.656 318.763C297.062 318.413 294.671 318.87 292.353 319.581C291.197 319.935 290.042 320.359 288.891 320.782L288.83 320.805C287.691 321.223 286.552 321.642 285.37 322.016C277.564 324.451 270.521 319.767 266.744 311.607C265.476 308.636 264.359 305.707 263.864 302.842L263.865 302.842L263.862 302.83C263.116 298.806 262.479 293.931 262.772 289.518C263.068 285.071 264.289 281.346 267 279.295C267.377 279.025 268.031 278.881 269.057 278.926C270.062 278.971 271.23 279.185 272.487 279.433C272.619 279.459 272.752 279.485 272.885 279.512C273.993 279.732 275.155 279.963 276.216 280.07C277.379 280.188 278.615 280.183 279.612 279.714L279.612 279.714L279.622 279.709C281.374 278.86 283.062 277.961 284.691 277.094C285.55 276.637 286.392 276.189 287.218 275.762C289.637 274.51 291.975 273.404 294.407 272.634C298.642 271.319 302.095 268.431 305.346 265.651C305.459 265.555 305.571 265.458 305.684 265.362C308.87 262.636 311.882 260.059 315.433 258.728L315.439 258.726C315.997 258.514 316.73 258.503 317.671 258.696C318.606 258.889 319.64 259.26 320.751 259.699C321.074 259.826 321.405 259.961 321.741 260.097C322.53 260.416 323.344 260.746 324.121 261.019C325.23 261.41 326.381 261.729 327.464 261.766C328.213 261.803 329.032 261.716 329.787 261.277L329.819 261.257L329.85 261.236C334.593 257.974 340.41 258.293 345.795 260.841C347.367 261.613 348.872 262.614 350.326 264.464L350.765 265.021L350.772 265.019C352.471 267.562 353.334 270.887 353.467 274.066C353.608 277.444 352.917 280.429 351.773 282.019L351.765 282.029L351.758 282.04C350.706 283.585 349.347 284.519 347.799 285.403C347.488 285.581 347.164 285.759 346.832 285.941C345.556 286.641 344.163 287.407 342.921 288.474L342.912 288.482L342.903 288.49C342.198 289.127 341.389 289.944 340.732 290.862C337.729 294.993 336.36 300.689 335.168 305.651C335.038 306.195 334.909 306.731 334.78 307.254L334.779 307.262C334.512 308.386 334.262 309.595 334.002 310.852C333.503 313.267 332.968 315.856 332.208 318.349C331.053 322.136 329.475 325.317 327.05 326.933Z" stroke="#E1AFB4" stroke-width="2" stroke-miterlimit="10"/>
<path d="M340.913 311.122L340.913 311.122C341.17 310.026 341.422 308.881 341.68 307.708C342.236 305.186 342.818 302.538 343.545 299.981C344.612 296.223 346.023 292.528 348.214 289.459C349.016 288.24 350.01 287.231 350.927 286.3L350.958 286.269L350.976 286.25L350.995 286.233C352.607 284.76 354.445 283.751 356.153 282.814C356.556 282.593 356.952 282.376 357.335 282.158C359.387 280.991 361.227 279.736 362.631 277.576L362.636 277.568C364.097 275.366 364.917 271.344 364.696 266.844C364.478 262.375 363.242 257.649 360.822 254.089L360.8 254.056C360.772 254.028 360.733 253.986 360.694 253.94C360.656 253.893 360.605 253.826 360.557 253.739C358.738 251.204 356.623 249.815 354.606 248.826C347.649 245.414 340.215 244.786 334.059 249.02C333.546 249.402 332.958 249.527 332.453 249.565C331.96 249.602 331.44 249.563 331.01 249.53L330.975 249.528L330.928 249.524L330.883 249.517C329.552 249.291 328.12 248.68 326.721 247.977C325.823 247.526 324.882 247.007 323.959 246.498C323.449 246.217 322.946 245.94 322.458 245.678C321.048 244.922 319.73 244.278 318.549 243.912C317.356 243.543 316.46 243.509 315.804 243.774C311.517 245.58 307.959 249.137 304.215 252.881C303.946 253.15 303.676 253.42 303.405 253.69C299.434 257.647 295.189 261.674 289.759 263.198C286.342 264.182 283.176 265.694 279.94 267.415C278.897 267.969 277.84 268.549 276.764 269.139C274.533 270.364 272.221 271.632 269.785 272.809L269.779 272.812L269.779 272.812C268.527 273.406 266.911 273.329 265.354 273.077C263.926 272.846 262.346 272.428 260.819 272.024C260.639 271.976 260.46 271.929 260.282 271.882C258.557 271.428 256.928 271.021 255.528 270.876C254.089 270.727 253.149 270.886 252.61 271.288L252.609 271.29C248.91 274.044 247.475 279.309 247.297 285.49C247.121 291.614 248.188 298.312 249.156 303.55L340.913 311.122ZM340.913 311.122C340.571 312.576 340.252 314.17 339.917 315.842C339.286 318.99 338.6 322.415 337.606 325.709C336.086 330.746 333.953 335.044 330.575 337.122C327.605 338.92 323.991 338.499 320.496 337.339C317.809 336.43 315.154 334.972 312.42 333.349C311.767 332.962 311.109 332.564 310.446 332.163C308.362 330.905 306.224 329.613 304.048 328.509C301.145 326.893 298.454 325.962 295.786 325.545L295.783 325.545C290.391 324.718 285.485 326.556 280.31 328.494C279.531 328.786 278.747 329.079 277.954 329.367L277.952 329.367C272.572 331.327 267.614 330.493 263.372 327.865C259.1 325.219 255.529 320.731 253.081 315.381L253.081 315.381M340.913 311.122L253.081 315.381M253.081 315.381L253.076 315.371M253.081 315.381L253.076 315.371M253.076 315.371C251.256 311.506 249.89 307.504 249.156 303.551L253.076 315.371Z" stroke="#E1AFB4" stroke-width="2" stroke-miterlimit="10"/>
<path d="M334.163 347.167L334.166 347.166C338.518 344.684 341.199 339.241 343.057 332.912C344.284 328.732 345.104 324.366 345.844 320.424C346.224 318.4 346.583 316.487 346.966 314.769M334.163 347.167L347.943 314.982M334.163 347.167C330.232 349.43 325.6 348.626 321.296 346.98C318.025 345.697 314.837 343.814 311.56 341.771C310.979 341.408 310.395 341.041 309.807 340.671C307.105 338.971 304.329 337.225 301.449 335.733C297.952 333.826 294.802 332.665 291.586 332.175L291.584 332.174C284.854 331.161 278.701 333.492 271.919 336.061C271.384 336.264 270.845 336.468 270.302 336.672L270.301 336.673C263.434 339.263 257.163 338.185 251.834 334.826C246.472 331.447 242.037 325.736 239.007 319.06C236.823 314.145 235.002 309.167 234.148 304.136L234.147 304.129C232.994 297.6 231.487 289.057 231.524 281.214C231.562 273.303 233.174 266.496 237.865 263.028C238.589 262.503 239.843 262.357 241.695 262.628C243.499 262.892 245.598 263.505 247.792 264.171C247.994 264.233 248.197 264.294 248.4 264.356C250.371 264.957 252.394 265.574 254.211 265.934C256.165 266.321 258.147 266.473 259.638 265.762C262.74 264.301 265.667 262.664 268.513 261.072C269.751 260.38 270.974 259.696 272.189 259.039C276.229 256.855 280.252 254.926 284.731 253.764C291.364 252.095 296.365 246.946 301.035 241.805C301.432 241.367 301.827 240.93 302.221 240.494C306.54 235.711 310.677 231.129 315.794 228.823L315.797 228.821C316.552 228.478 317.624 228.546 319.093 229.098C320.536 229.64 322.16 230.573 323.889 231.656C324.523 232.053 325.177 232.475 325.837 232.9C326.933 233.606 328.043 234.322 329.102 234.952C330.805 235.965 332.525 236.853 334.096 237.23L334.125 237.237L334.153 237.242C335.364 237.46 336.639 237.617 337.829 236.847L337.84 236.84L337.851 236.833C345.552 231.552 354.734 232.463 363.143 236.771L363.15 236.775L363.158 236.778C365.62 237.985 368.227 239.705 370.542 242.943L334.163 347.167ZM346.966 314.769C346.966 314.767 346.967 314.766 346.967 314.765L347.943 314.982M346.966 314.769C346.966 314.769 346.966 314.77 346.966 314.77L347.943 314.982M346.966 314.769C347.231 313.546 347.492 312.274 347.759 310.972C348.424 307.734 349.127 304.308 350.023 300.978C351.282 296.3 352.947 291.698 355.504 287.871M347.943 314.982C348.213 313.737 348.476 312.451 348.745 311.141C350.339 303.378 352.112 294.739 356.345 288.413M355.504 287.871C355.501 287.876 355.498 287.881 355.495 287.886L356.345 288.413M355.504 287.871C355.508 287.867 355.511 287.862 355.514 287.857L356.345 288.413M355.504 287.871L356.345 288.413M358.88 283.802C358.879 283.804 358.877 283.806 358.875 283.807L359.576 284.521L358.885 283.797C358.884 283.799 358.882 283.801 358.88 283.802ZM370.814 243.358C370.83 243.378 370.853 243.403 370.857 243.408C370.862 243.414 370.864 243.416 370.864 243.416C370.864 243.416 370.862 243.414 370.859 243.41L370.859 243.41C370.849 243.397 370.788 243.32 370.745 243.194L370.788 243.32L370.813 243.357C370.813 243.358 370.813 243.358 370.814 243.358Z" stroke="#E1AFB4" stroke-width="2" stroke-miterlimit="10"/>
<path d="M352.947 318.556L352.946 318.561C352.543 320.491 352.163 322.645 351.759 324.93C350.911 329.733 349.959 335.119 348.478 340.249C346.29 347.827 343.051 354.402 337.674 357.367C332.958 359.908 327.337 358.821 322.084 356.618C318.231 354.959 314.52 352.678 310.743 350.236C310.04 349.782 309.333 349.321 308.624 348.858C305.544 346.849 302.398 344.797 299.133 343.002C295.128 340.749 291.407 339.405 287.783 338.804L287.783 338.804L287.772 338.802C279.459 337.514 271.955 340.404 263.377 343.707C263.212 343.771 263.046 343.835 262.881 343.898L262.88 343.899C254.524 347.122 246.969 345.789 240.585 341.704C234.164 337.595 228.901 330.677 225.309 322.729C222.665 316.837 220.492 310.833 219.402 304.734L219.401 304.728C219.365 304.537 219.33 304.345 219.294 304.151C217.877 296.512 216.013 286.464 215.923 277.172C215.831 267.575 217.639 259.198 223.317 254.952C224.234 254.302 225.809 254.176 228.069 254.569C230.276 254.953 232.844 255.772 235.507 256.652C235.733 256.726 235.96 256.801 236.188 256.877C238.602 257.676 241.068 258.492 243.272 258.981C245.627 259.503 247.968 259.724 249.693 258.898L249.697 258.896C253.257 257.171 256.617 255.255 259.886 253.391C261.53 252.454 263.151 251.529 264.763 250.649C269.619 247.996 274.487 245.684 279.981 244.363L279.987 244.361C287.705 242.453 293.425 236.209 298.785 229.901C299.273 229.326 299.759 228.751 300.243 228.177C305.163 222.347 309.917 216.712 315.891 213.834L315.898 213.831C316.768 213.403 318.027 213.506 319.764 214.235C321.466 214.948 323.39 216.162 325.426 217.566C326.263 218.143 327.132 218.763 328.006 219.386C329.203 220.239 330.409 221.099 331.551 221.863C333.536 223.192 335.513 224.366 337.289 224.933C338.883 225.503 340.361 225.565 341.657 224.774L341.68 224.76L341.702 224.745C350.827 218.474 361.902 219.737 371.728 224.833C374.706 226.385 377.819 228.451 380.636 232.42C380.641 232.428 380.645 232.436 380.65 232.444C380.677 232.494 380.705 232.537 380.728 232.571C380.768 232.63 380.812 232.687 380.837 232.721L380.842 232.726C380.848 232.735 380.853 232.742 380.858 232.748L380.868 232.778L380.944 232.889C384.651 238.358 386.559 245.52 386.955 252.226C387.353 258.967 386.213 265.027 384.058 268.349C381.87 271.724 379.016 273.612 375.935 275.354C375.456 275.625 374.969 275.893 374.478 276.164C371.846 277.614 369.076 279.139 366.706 281.51C365.215 282.946 363.933 284.567 362.817 286.25L362.815 286.252C359.765 290.886 357.849 296.438 356.421 302.065C355.495 305.718 354.76 309.469 354.06 313.039C353.687 314.944 353.324 316.797 352.947 318.556Z" stroke="#E1AFB4" stroke-width="2" stroke-miterlimit="10"/>
<path d="M394.94 263.873L394.944 263.866C397.471 259.975 398.767 252.884 398.284 245.013C397.803 237.178 395.573 228.792 391.286 222.376L391.213 222.268L391.185 222.185C391.181 222.179 391.175 222.172 391.168 222.163L391.16 222.152C391.111 222.087 391.013 221.96 390.929 221.779C387.618 217.109 384.015 214.707 380.537 212.817C369.147 206.862 356.449 205.279 345.9 212.536C344.448 213.568 342.57 213.261 340.923 212.649C338.903 211.911 336.635 210.461 334.339 208.818C333.014 207.869 331.623 206.813 330.24 205.764C329.239 205.004 328.243 204.248 327.279 203.538C324.933 201.81 322.71 200.302 320.749 199.388C318.745 198.455 317.294 198.274 316.308 198.739C312.591 200.589 309.275 203.457 306.108 206.839C303.568 209.551 301.161 212.55 298.728 215.582C298.118 216.342 297.507 217.104 296.892 217.864C290.818 225.363 284.322 232.72 275.423 234.769L275.42 234.77C268.913 236.25 263.182 238.983 257.505 242.106C255.701 243.098 253.894 244.135 252.068 245.183C248.184 247.412 244.214 249.692 240.004 251.694C239.003 252.174 237.83 252.322 236.602 252.282C235.367 252.243 234.009 252.011 232.595 251.67C230.046 251.057 227.191 250.058 224.379 249.076C224.08 248.971 223.78 248.866 223.482 248.762C220.35 247.671 217.32 246.652 214.72 246.169C212.056 245.674 210.176 245.812 209.084 246.635L209.078 246.64L209.078 246.64C205.744 249.114 203.568 252.832 202.253 257.391C200.937 261.954 200.503 267.298 200.615 272.925C200.823 283.431 202.925 294.728 204.543 303.428C204.659 304.051 204.772 304.662 204.883 305.257L394.94 263.873ZM394.94 263.873C392.434 267.796 389.12 269.999 385.538 272.039C384.986 272.354 384.426 272.665 383.86 272.979C380.792 274.683 377.572 276.471 374.801 279.249C373.121 280.878 371.574 282.846 370.304 284.841C366.829 290.251 364.618 296.691 362.98 303.231C361.816 307.874 360.93 312.623 360.091 317.113C359.751 318.936 359.418 320.715 359.079 322.428C358.639 324.591 358.222 327.017 357.778 329.603C356.814 335.214 355.722 341.575 353.99 347.616C351.455 356.455 347.657 364.162 341.29 367.533M394.94 263.873L341.29 367.533M341.29 367.533C335.608 370.535 328.931 368.947 322.855 366.249M341.29 367.533L322.855 366.249M322.855 366.249C318.452 364.275 314.247 361.565 309.987 358.685C309.262 358.196 308.536 357.701 307.807 357.204C304.27 354.795 300.67 352.343 296.923 350.229C292.414 347.632 288.118 346.103 283.963 345.43C274.383 343.858 265.73 347.235 255.615 351.198C245.751 354.999 236.898 353.384 229.452 348.556C221.969 343.704 215.88 335.581 211.728 326.366C208.772 319.563 206.208 312.421 204.883 305.257L322.855 366.249Z" stroke="#E1AFB4" stroke-width="2" stroke-miterlimit="10"/>
<path d="M344.755 377.623L344.745 377.629C338.318 381.011 330.508 379.067 323.629 375.882C318.649 373.532 313.916 370.398 309.118 367.113C308.539 366.717 307.959 366.318 307.378 365.918C303.161 363.019 298.868 360.068 294.356 357.562C289.252 354.676 284.503 352.92 279.809 352.174C269.128 350.344 259.451 354.07 247.977 358.498L247.969 358.501C236.634 362.993 226.465 361.133 217.929 355.571C209.354 349.983 202.4 340.631 197.687 330.147L197.686 330.143C194.12 322.293 191.208 314.134 189.76 305.876L189.76 305.873C189.542 304.655 189.31 303.383 189.069 302.063C187.308 292.404 185.088 280.235 184.777 268.845C184.6 262.376 185.041 256.217 186.507 250.953C187.971 245.692 190.437 241.388 194.269 238.524L194.272 238.521C194.87 238.07 195.703 237.801 196.81 237.735C197.918 237.668 199.233 237.809 200.722 238.113C203.706 238.724 207.199 239.954 210.801 241.258C211.087 241.362 211.373 241.466 211.66 241.57C214.953 242.765 218.299 243.979 221.274 244.727C222.895 245.135 224.445 245.414 225.847 245.472C227.242 245.529 228.563 245.37 229.678 244.834C234.536 242.521 239.091 239.876 243.545 237.29C245.617 236.088 247.666 234.898 249.714 233.76C256.205 230.153 262.773 227.01 270.296 225.37L270.301 225.369C280.352 223.12 287.592 214.669 294.37 205.997C295.071 205.1 295.767 204.201 296.462 203.303C299.162 199.814 301.837 196.358 304.667 193.232C308.218 189.309 311.953 185.977 316.168 183.832C317.314 183.26 318.976 183.491 321.247 184.611C323.468 185.708 325.983 187.512 328.634 189.572C329.698 190.4 330.793 191.276 331.893 192.155C333.484 193.428 335.086 194.709 336.619 195.863C339.212 197.813 341.771 199.528 344.057 200.403C345.977 201.238 347.921 201.46 349.567 200.394L349.578 200.387L349.589 200.38C361.683 192.083 376.169 194.063 388.976 200.808C392.935 202.935 397.203 205.765 400.874 211.126L400.929 211.206L400.998 211.274C401.003 211.28 401.016 211.292 401.09 211.406L401.099 211.422C401.152 211.504 401.244 211.645 401.374 211.79C406.265 219.122 408.831 228.687 409.408 237.617C409.989 246.612 408.539 254.735 405.639 259.195L405.635 259.201L405.631 259.208C402.769 263.756 398.968 266.284 394.882 268.607C394.253 268.964 393.614 269.318 392.97 269.675C389.472 271.614 385.82 273.638 382.697 276.81C380.771 278.766 379.033 280.922 377.603 283.24C373.701 289.43 371.233 296.78 369.404 304.238C368.147 309.36 367.179 314.592 366.261 319.553C365.845 321.802 365.44 323.996 365.022 326.098C364.507 328.651 364.026 331.53 363.513 334.601C362.455 340.94 361.26 348.098 359.343 354.897C356.496 364.999 352.168 373.827 344.755 377.623Z" stroke="#E1AFB4" stroke-width="2" stroke-miterlimit="10"/>
<path d="M324.357 385.398L324.364 385.401C332.064 389.177 340.874 391.423 348.327 387.678C356.718 383.418 361.605 373.451 364.797 362.093C366.989 354.293 368.332 346.052 369.51 338.824C370.045 335.54 370.546 332.466 371.077 329.736C371.533 327.361 371.975 324.877 372.429 322.328C373.415 316.786 374.456 310.931 375.822 305.186C377.82 296.782 380.536 288.489 384.87 281.516L384.875 281.507C386.544 278.885 388.311 276.458 390.447 274.289C393.957 270.691 398.073 268.405 402.037 266.205C402.719 265.826 403.396 265.45 404.064 265.071C408.658 262.463 412.959 259.636 416.214 254.572C419.42 249.497 421.031 240.362 420.389 230.265C419.752 220.232 416.901 209.464 411.413 201.131C411.284 200.987 411.193 200.847 411.141 200.765L411.131 200.75C411.057 200.636 411.045 200.623 411.039 200.618L410.97 200.55L410.916 200.471C406.746 194.392 401.981 191.223 397.52 188.756C383.273 181.119 367.047 178.849 353.41 188.172C351.624 189.46 349.402 188.953 347.345 188.133L347.334 188.129C344.8 187.086 341.943 185.087 339.034 182.812C337.336 181.485 335.566 180.018 333.805 178.56C332.558 177.527 331.317 176.498 330.109 175.526C327.15 173.143 324.341 171.051 321.873 169.776C319.343 168.468 317.503 168.191 316.258 168.846L316.257 168.847C311.579 171.305 307.446 175.118 303.523 179.595C300.448 183.103 297.541 186.972 294.61 190.872C293.796 191.955 292.98 193.04 292.159 194.121C284.675 203.966 276.682 213.483 265.516 215.853L265.514 215.853C256.971 217.653 249.527 221.191 242.211 225.254C239.827 226.578 237.446 227.965 235.042 229.364C230.114 232.234 225.093 235.158 219.764 237.707C218.537 238.297 217.072 238.467 215.513 238.391C213.946 238.315 212.208 237.986 210.384 237.51C207.023 236.634 203.235 235.22 199.499 233.825C199.187 233.709 198.876 233.593 198.565 233.477C194.496 231.961 190.534 230.523 187.147 229.791C185.457 229.425 183.956 229.247 182.688 229.308C181.419 229.368 180.453 229.665 179.755 230.182C175.42 233.408 172.652 238.286 171.029 244.248C169.405 250.213 168.948 257.197 169.188 264.523C169.604 277.225 172.106 290.777 174.098 301.573C174.406 303.24 174.702 304.842 174.976 306.365L324.357 385.398ZM324.357 385.398C318.822 382.73 313.58 379.229 308.288 375.559C307.545 375.044 306.8 374.525 306.054 374.005C301.506 370.837 296.887 367.618 292.039 364.831C286.387 361.484 281.064 359.544 275.956 358.688L275.952 358.687C264.1 356.754 253.261 360.748 240.559 365.723L240.556 365.724C227.71 370.796 216.241 368.654 206.643 362.348C197.004 356.015 189.225 345.456 183.951 333.704L183.949 333.699M324.357 385.398L183.949 333.699M240.924 366.654C214.576 377.057 193.687 357.843 183.039 334.114L240.924 366.654ZM240.924 366.654C253.663 361.665 264.25 357.791 275.791 359.674L240.924 366.654ZM183.949 333.699C179.922 324.869 176.66 315.687 174.976 306.365L183.949 333.699Z" stroke="#E1AFB4" stroke-width="2" stroke-miterlimit="10"/>
<path d="M325.128 395.03L325.126 395.029C319.015 391.986 313.247 388.06 307.456 384.005C306.819 383.559 306.181 383.111 305.543 382.662C300.4 379.049 295.209 375.402 289.778 372.315C283.527 368.676 277.748 366.509 272.103 365.58C259.15 363.389 247.255 367.617 233.219 373.175C218.803 378.847 206.015 376.457 195.348 369.427C184.637 362.368 176.034 350.605 170.18 337.528C165.801 327.673 162.189 317.467 160.269 307.083C159.922 305.158 159.542 303.117 159.143 300.98C156.937 289.148 154.188 274.401 153.654 260.547C153.339 252.375 153.799 244.575 155.571 237.914C157.343 231.257 160.406 225.806 165.247 222.219L165.252 222.215C166.046 221.619 167.141 221.286 168.565 221.221C169.988 221.157 171.67 221.364 173.559 221.783C177.342 222.62 181.766 224.255 186.302 225.977C186.662 226.113 187.023 226.251 187.384 226.388C191.537 227.967 195.737 229.564 199.461 230.562C201.488 231.105 203.414 231.482 205.145 231.576C206.869 231.67 208.478 231.489 209.817 230.844C215.794 227.984 221.387 224.699 226.875 221.477C229.516 219.926 232.133 218.389 234.756 216.921C242.872 212.379 251.154 208.428 260.773 206.45L260.776 206.449C273.088 203.88 281.823 193.275 290.012 182.257C290.915 181.041 291.813 179.819 292.708 178.6C295.909 174.242 299.088 169.914 302.456 165.99C306.76 160.974 311.311 156.696 316.486 153.942C317.881 153.208 319.93 153.553 322.718 155.047C325.441 156.507 328.538 158.883 331.796 161.584C333.146 162.702 334.533 163.885 335.924 165.072C337.844 166.709 339.773 168.355 341.625 169.849C344.829 172.434 347.966 174.707 350.742 175.921C353.069 176.963 355.485 177.359 357.368 176.05C372.323 165.766 390.296 168.321 406.111 176.822C411.018 179.507 416.323 183.126 420.997 189.928L421.051 190.007L421.108 190.064C421.11 190.067 421.114 190.073 421.12 190.081C421.141 190.113 421.164 190.152 421.206 190.223C421.241 190.284 421.295 190.377 421.355 190.468C421.4 190.535 421.458 190.616 421.531 190.7C427.633 199.9 430.825 211.852 431.557 222.996C432.292 234.204 430.527 244.372 426.947 250.016C423.337 255.708 418.546 258.86 413.447 261.752C412.7 262.175 411.944 262.594 411.184 263.016C406.793 265.45 402.249 267.969 398.389 271.956L398.38 271.964L398.372 271.973C396.116 274.42 394.049 277.064 392.214 280.019L392.211 280.023C387.449 287.776 384.475 296.981 382.285 306.305C380.823 312.534 379.698 318.878 378.631 324.896C378.105 327.867 377.592 330.759 377.06 333.519L377.06 333.52C376.484 336.519 375.942 339.911 375.362 343.54C374.084 351.543 372.621 360.703 370.199 369.371C366.675 381.984 361.228 393.087 351.784 397.773L351.779 397.776C343.578 401.902 333.633 399.294 325.128 395.03Z" stroke="#E1AFB4" stroke-width="2" stroke-miterlimit="10"/>
<path d="M325.892 404.659L325.899 404.662C335.229 409.519 346.17 412.426 355.396 407.941C365.835 402.849 371.831 390.582 375.706 376.675C378.34 367.22 379.943 357.234 381.343 348.504C382.001 344.406 382.614 340.584 383.269 337.225C383.829 334.244 384.367 331.118 384.921 327.904C386.067 321.258 387.277 314.235 388.876 307.333C391.252 297.074 394.513 286.946 399.783 278.448C401.759 275.2 403.981 272.237 406.606 269.648C410.827 265.264 415.803 262.491 420.63 259.802C421.452 259.343 422.27 258.888 423.079 258.427C428.679 255.237 433.961 251.758 437.946 245.494C441.899 239.28 443.819 228.079 442.999 215.742C442.182 203.453 438.659 190.26 431.961 180.11C431.821 179.921 431.724 179.755 431.651 179.63L431.646 179.621C431.569 179.489 431.519 179.405 431.446 179.309L431.432 179.29L431.418 179.27C426.245 171.749 420.443 167.794 415.084 164.887C397.854 155.596 378.094 152.641 361.593 163.963L361.582 163.97L361.571 163.978C359.46 165.344 356.902 164.869 354.281 163.681C354.281 163.681 354.28 163.681 354.28 163.681L354.693 162.77C350.149 160.728 344.477 155.786 338.774 150.817C330.005 143.178 321.164 135.475 316.245 138.155L325.892 404.659ZM325.892 404.659C319.208 401.241 312.943 396.884 306.641 392.4C306.103 392.017 305.564 391.633 305.025 391.249C299.271 387.147 293.452 383 287.292 379.5M325.892 404.659L287.292 379.5M287.292 379.5C287.293 379.5 287.293 379.5 287.293 379.5L286.795 380.367L287.289 379.498C287.29 379.499 287.291 379.499 287.292 379.5Z" stroke="#E1AFB4" stroke-width="2" stroke-miterlimit="10"/>
<path d="M326.66 414.29L326.657 414.288C319.399 410.495 312.608 405.715 305.792 400.79C305.095 400.287 304.397 399.781 303.699 399.275C297.587 394.848 291.415 390.378 284.892 386.539L284.887 386.536C277.531 382.261 270.725 379.683 264.129 378.572C248.746 375.944 234.924 380.83 218.201 387.434L218.198 387.435C200.799 394.379 185.393 391.461 172.572 382.951C159.707 374.412 149.415 360.215 142.441 344.605L142.44 344.603C137.177 332.901 132.866 320.653 130.549 307.995C130.095 305.488 129.589 302.808 129.058 299.991C126.402 285.925 123.101 268.439 122.373 251.977C121.936 242.103 122.429 232.66 124.517 224.593C126.605 216.53 130.265 209.913 136.11 205.572C137.108 204.842 138.471 204.454 140.215 204.4C141.959 204.345 144.009 204.627 146.299 205.162C150.885 206.233 156.242 208.275 161.712 210.413C162.151 210.585 162.591 210.757 163.031 210.93C168.039 212.891 173.088 214.868 177.557 216.121C179.991 216.803 182.294 217.282 184.355 217.421C186.409 217.56 188.304 217.368 189.869 216.631L189.876 216.628C196.977 213.22 203.624 209.289 210.16 205.424C213.374 203.524 216.561 201.639 219.763 199.841C229.519 194.358 239.517 189.6 251.176 187.302L251.177 187.301C265.742 184.412 275.971 171.661 285.571 158.296C286.671 156.763 287.764 155.222 288.855 153.684C292.562 148.454 296.25 143.252 300.162 138.527C305.219 132.419 310.585 127.192 316.72 123.828C318.404 122.913 320.876 123.392 324.198 125.272C327.444 127.109 331.143 130.079 335.023 133.439C336.648 134.846 338.315 136.331 339.987 137.82C342.257 139.842 344.534 141.871 346.724 143.72C350.535 146.939 354.243 149.76 357.502 151.286C360.31 152.661 363.164 153.2 365.371 151.645C383.416 139.293 404.918 142.537 423.589 152.721C429.426 155.955 435.699 160.228 441.353 168.402C441.53 168.834 441.806 169.196 441.995 169.443L442.005 169.457C449.334 180.531 453.179 194.942 454.08 208.358C454.985 221.823 452.911 234.06 448.639 240.826L448.638 240.827C444.298 247.718 438.554 251.512 432.465 254.98C431.573 255.488 430.67 255.991 429.762 256.496C424.521 259.413 419.119 262.42 414.507 267.203C411.619 270.137 409.25 273.403 407.094 276.828L407.09 276.834L407.086 276.841C401.407 286.175 397.898 297.243 395.334 308.437C393.644 315.819 392.353 323.318 391.129 330.43C390.5 334.082 389.889 337.632 389.25 341.012C388.578 344.551 387.943 348.569 387.263 352.879C385.744 362.494 383.996 373.564 381.085 384.023C376.864 399.189 370.308 412.597 358.888 418.152L358.887 418.153C348.915 423.017 336.802 419.638 326.66 414.29Z" stroke="#E1AFB4" stroke-width="2" stroke-miterlimit="10"/>
<path d="M327.421 423.917L327.42 423.916C319.588 419.748 312.28 414.572 304.938 409.271C304.379 408.868 303.821 408.464 303.262 408.06C296.486 403.161 289.645 398.215 282.366 393.987L282.362 393.984C274.395 389.41 267.177 386.727 260.023 385.431L260.017 385.43C243.532 382.542 228.651 387.663 210.597 394.849L210.592 394.851C191.721 402.486 175.027 399.314 161.144 390.06C147.217 380.776 136.09 365.343 128.556 348.466L128.554 348.463C122.787 335.659 118.017 322.433 115.578 308.684L115.578 308.684C115.04 305.653 114.428 302.386 113.783 298.937C110.967 283.904 107.505 265.419 106.687 247.977C106.184 237.261 106.684 227.005 108.922 218.235C111.158 209.469 115.109 202.263 121.454 197.53C122.533 196.727 124.015 196.306 125.908 196.25C127.8 196.194 130.027 196.507 132.513 197.096C137.49 198.275 143.314 200.513 149.257 202.854C149.727 203.039 150.197 203.225 150.668 203.41C156.12 205.562 161.612 207.729 166.469 209.104C169.111 209.852 171.605 210.377 173.834 210.534C176.054 210.689 178.093 210.485 179.769 209.693L179.77 209.693C187.555 205.997 194.834 201.694 202.001 197.457C205.407 195.444 208.788 193.445 212.187 191.533C222.779 185.575 233.643 180.394 246.323 177.936C254.207 176.417 260.881 172.189 266.858 166.547C272.828 160.913 278.151 153.822 283.323 146.515C284.513 144.834 285.694 143.143 286.873 141.454C290.841 135.772 294.79 130.116 298.985 124.979C304.42 118.322 310.201 112.623 316.835 108.963C317.73 108.474 318.834 108.357 320.195 108.636C321.567 108.917 323.14 109.59 324.887 110.601C328.383 112.624 332.374 115.879 336.56 119.554C338.318 121.098 340.12 122.725 341.927 124.355C344.374 126.564 346.829 128.781 349.193 130.806C353.312 134.336 357.312 137.431 360.817 139.125L360.826 139.13L360.835 139.134C363.878 140.53 366.768 141.189 369.204 139.569L369.214 139.562C388.805 126.17 411.981 129.852 432.185 140.789C438.623 144.318 445.432 149.04 451.547 157.822C451.724 158.254 452 158.615 452.189 158.862L452.198 158.874C460.123 170.949 464.281 186.554 465.257 201.068C466.236 215.631 464.001 228.876 459.37 236.272C454.712 243.714 448.479 247.833 441.875 251.604C440.915 252.152 439.945 252.694 438.97 253.238C433.277 256.417 427.42 259.687 422.446 264.872L422.438 264.881C419.415 268.106 416.861 271.555 414.547 275.298L414.546 275.301C408.358 285.381 404.562 297.372 401.812 309.503C399.985 317.56 398.607 325.743 397.303 333.485C396.648 337.378 396.011 341.161 395.345 344.76C394.628 348.567 393.954 352.898 393.229 357.55C391.61 367.941 389.742 379.933 386.601 391.261C382.048 407.68 374.933 422.227 362.459 428.208L362.454 428.21C351.503 433.536 338.364 429.753 327.421 423.917Z" stroke="#E1AFB4" stroke-width="2" stroke-miterlimit="10"/>
<path d="M328.187 433.547L328.183 433.545C319.776 429 311.944 423.402 304.05 417.7C303.725 417.466 303.401 417.231 303.076 416.996C295.52 411.536 287.886 406.02 279.692 401.363C271.18 396.331 263.279 393.505 255.719 392.1L255.712 392.099C238.122 388.953 222.218 394.424 202.84 402.19L202.838 402.191C182.514 410.387 164.519 406.932 149.558 396.937C134.553 386.912 122.573 370.283 114.48 352.141C108.362 338.313 103.241 324.063 100.567 309.252L100.567 309.25C99.9925 306.091 99.3429 302.69 98.6574 299.101C95.5522 282.845 91.7112 262.736 90.7718 243.77C90.1987 232.199 90.7107 221.119 93.1044 211.649C95.497 202.183 99.7489 194.401 106.601 189.305C107.782 188.435 109.398 187.988 111.452 187.939C113.504 187.889 115.916 188.241 118.603 188.891C123.983 190.192 130.275 192.638 136.687 195.191C137.182 195.388 137.678 195.586 138.174 195.784C144.068 198.135 150.002 200.501 155.244 202.005C158.09 202.821 160.771 203.395 163.164 203.57C165.548 203.743 167.73 203.527 169.516 202.682L169.517 202.681C177.891 198.698 185.698 194.056 193.388 189.483C197.045 187.309 200.675 185.15 204.327 183.085C215.705 176.653 227.41 171.058 241.167 168.421C249.621 166.803 256.774 162.259 263.18 156.182C269.577 150.111 275.276 142.464 280.811 134.573C282.117 132.712 283.412 130.838 284.706 128.967C288.918 122.876 293.111 116.813 297.561 111.298C303.372 104.097 309.553 97.9218 316.649 93.9464C317.633 93.3982 318.838 93.2677 320.312 93.5705C321.798 93.8756 323.496 94.6103 325.378 95.7122C329.144 97.9174 333.438 101.467 337.934 105.472C339.84 107.169 341.792 108.957 343.748 110.749C346.359 113.141 348.976 115.538 351.495 117.73C355.913 121.575 360.195 124.94 363.94 126.776C367.223 128.386 370.318 128.941 372.852 127.301L372.864 127.293L372.875 127.286C393.785 112.937 418.82 116.87 440.469 128.705L440.472 128.706C447.542 132.546 454.87 137.626 461.387 147.221L461.402 147.244L461.419 147.266C461.518 147.396 461.629 147.556 461.757 147.74C461.872 147.904 462.001 148.09 462.125 148.255C470.684 161.254 475.164 178.08 476.224 193.723C477.288 209.414 474.899 223.694 469.95 231.643L469.949 231.644C464.936 239.711 458.214 244.156 451.106 248.21C450.067 248.802 449.019 249.387 447.965 249.974C441.844 253.387 435.56 256.89 430.237 262.463L430.231 262.469C427.019 265.886 424.201 269.68 421.736 273.732L421.733 273.737C415.194 284.633 411.179 297.553 408.256 310.613C406.353 319.113 404.902 327.737 403.524 335.917C402.79 340.281 402.077 344.518 401.327 348.542L401.327 348.544C400.592 352.531 399.895 357.058 399.146 361.921C397.411 373.195 395.398 386.273 391.98 398.609C387.082 416.286 379.407 431.975 365.95 438.418C354.203 444.02 339.959 439.977 328.187 433.547Z" stroke="#E1AFB4" stroke-width="2" stroke-miterlimit="10"/>
<path d="M328.944 443.172L328.946 443.173C341.521 450.091 356.791 454.54 369.518 448.476L369.52 448.475C384.031 441.606 392.266 424.778 397.491 405.834C401.153 392.552 403.284 378.46 405.116 366.34C405.894 361.192 406.618 356.4 407.383 352.178L407.384 352.177C408.152 347.976 408.884 343.561 409.638 339.013C411.105 330.168 412.655 320.825 414.709 311.606C417.824 297.625 422.126 283.783 429.151 272.088C431.771 267.722 434.778 263.739 438.244 259.986L438.251 259.98C443.958 253.915 450.725 250.139 457.328 246.455C458.403 245.855 459.473 245.258 460.534 244.654C468.149 240.315 475.37 235.572 480.758 226.933L480.758 226.932C486.08 218.414 488.596 203.112 487.419 186.302C486.245 169.53 481.409 151.479 472.261 137.531L472.258 137.526C472.134 137.334 472.018 137.168 471.893 136.988C471.771 136.812 471.639 136.623 471.497 136.404C464.482 126.097 456.661 120.682 449.139 116.621L449.132 116.617C426.038 103.886 399.258 99.6623 376.802 115.045C374.164 116.877 370.725 116.128 367.333 114.465L367.324 114.46C363.335 112.455 358.764 108.819 354.039 104.665C351.347 102.297 348.552 99.7123 345.763 97.1334C343.672 95.1997 341.585 93.2693 339.547 91.4364C334.745 87.1165 330.158 83.2817 326.143 80.8901C324.136 79.6947 322.325 78.8922 320.74 78.5526C319.167 78.2155 317.883 78.346 316.839 78.9283C309.253 83.229 302.658 89.8852 296.47 97.6309C291.737 103.554 287.281 110.062 282.809 116.593C281.428 118.611 280.044 120.631 278.651 122.638C272.767 131.107 266.713 139.304 259.913 145.802C253.105 152.307 245.5 157.157 236.503 158.865L236.503 158.865C221.724 161.661 209.141 167.652 196.923 174.545C192.951 176.786 189.006 179.131 185.033 181.491C176.831 186.366 168.512 191.309 159.605 195.553L159.603 195.554C157.706 196.453 155.382 196.679 152.833 196.484C150.274 196.289 147.403 195.662 144.353 194.774C138.743 193.139 132.392 190.576 126.075 188.027C125.53 187.808 124.986 187.588 124.442 187.369C117.559 184.597 110.799 181.939 105.019 180.521C102.132 179.814 99.5381 179.428 97.3284 179.478C95.1175 179.528 93.3705 180.011 92.091 180.961L92.0907 180.961C84.7305 186.42 80.1768 194.78 77.6251 204.946C75.0725 215.116 74.5441 227.017 75.1781 239.438C76.2122 259.695 80.3238 281.159 83.6479 298.512C84.4024 302.45 85.1163 306.177 85.7444 309.63M328.944 443.172L84.7606 309.809M328.944 443.172C319.967 438.254 311.637 432.224 303.274 426.068C302.721 425.661 302.169 425.254 301.616 424.846C293.813 419.097 285.942 413.297 277.516 408.323L277.512 408.32C268.395 402.991 260.035 399.939 251.935 398.461L251.931 398.46C233.129 395.097 216.055 400.84 195.46 409.148L195.459 409.149C173.584 418.002 154.279 414.328 138.253 403.622C122.182 392.885 109.377 375.05 100.704 355.583M328.944 443.172L99.7909 355.99M85.7444 309.63C85.7444 309.63 85.7445 309.63 85.7445 309.63L84.7606 309.809M85.7444 309.63C85.7443 309.629 85.7443 309.629 85.7443 309.629L84.7606 309.809M85.7444 309.63C88.6545 325.503 94.164 340.889 100.704 355.583M84.7606 309.809C87.6898 325.787 93.2313 341.253 99.7909 355.99M100.704 355.583C100.704 355.583 100.704 355.583 100.704 355.583L99.7909 355.99M100.704 355.583L99.7909 355.99" stroke="#E1AFB4" stroke-width="2" stroke-miterlimit="10"/>
<path d="M413.405 356.072L413.404 356.076C412.604 360.512 411.845 365.547 411.028 370.96C409.077 383.892 406.8 398.979 402.875 413.195C397.3 433.383 388.506 451.352 373.013 458.685C359.492 465.023 343.232 460.278 329.706 452.8C320.154 447.506 311.3 441.053 302.413 434.533L301.728 434.031C293.087 427.69 284.397 421.314 275.066 415.997C265.457 410.333 256.64 407.055 248.005 405.505L248.002 405.505C228.14 401.999 210.01 407.975 188.087 416.865C164.7 426.298 144.095 422.34 127.007 410.89C109.872 399.408 96.2424 380.365 87.0098 359.632L87.0093 359.631C80.0069 343.956 74.1488 327.55 71.1165 310.58L71.1164 310.58C70.4074 306.627 69.5901 302.339 68.7244 297.797C65.2226 279.424 60.9282 256.891 59.8016 235.602C59.0995 222.333 59.6337 209.614 62.3341 198.74C65.0336 187.87 69.8772 178.921 77.7366 173.07L77.7399 173.068C79.1022 172.045 80.9656 171.529 83.3215 171.479C85.6761 171.429 88.4418 171.847 91.5196 172.611C97.6798 174.139 104.893 176.998 112.235 179.978C112.807 180.21 113.379 180.443 113.952 180.676C120.7 183.419 127.485 186.178 133.475 187.939C136.727 188.895 139.785 189.57 142.508 189.783C145.221 189.996 147.686 189.758 149.693 188.805L149.695 188.804C159.192 184.273 168.052 178.985 176.791 173.77C181.019 171.247 185.219 168.741 189.448 166.346C202.468 158.972 215.89 152.569 231.69 149.613C241.266 147.835 249.347 142.678 256.573 135.736C263.791 128.802 270.206 120.037 276.44 110.972C277.921 108.819 279.392 106.649 280.861 104.481C285.594 97.4969 290.313 90.5344 295.33 84.1983C301.898 75.9026 308.909 68.7723 316.995 64.175L316.996 64.1747C318.114 63.5382 319.483 63.3969 321.155 63.7595C322.838 64.1247 324.761 64.9892 326.889 66.2753C331.147 68.8485 336.012 72.9754 341.109 77.6227C343.239 79.5652 345.419 81.607 347.604 83.6538C350.601 86.461 353.607 89.2776 356.511 91.8601C361.536 96.3298 366.403 100.241 370.666 102.407C374.334 104.396 377.861 105.083 380.713 103.195L380.72 103.191L380.726 103.187C404.727 86.7675 433.18 91.429 457.803 104.911C465.827 109.313 474.147 115.068 481.662 126.098L481.677 126.12L481.693 126.141C481.894 126.405 482.14 126.783 482.416 127.21L482.418 127.213C492.143 142.106 497.301 161.378 498.56 179.277C499.821 197.216 497.152 213.551 491.456 222.64L491.454 222.644C485.71 231.911 478.027 236.97 469.923 241.586C468.779 242.238 467.623 242.882 466.463 243.528C459.449 247.439 452.261 251.446 446.164 257.904C442.455 261.749 439.297 266.043 436.533 270.706C429.059 283.126 424.499 297.88 421.197 312.795C419.056 322.465 417.432 332.269 415.893 341.565C415.062 346.582 414.255 351.452 413.405 356.072Z" stroke="#E1AFB4" stroke-width="2" stroke-miterlimit="10"/>
<path d="M72.2077 363.52L73.1203 363.111C82.9696 385.093 97.4625 405.363 115.68 417.599C133.85 429.804 155.755 434.045 180.633 423.975C180.634 423.975 180.634 423.975 180.634 423.975L181.01 424.902C214.385 411.335 238.789 404.512 272.193 424.009L72.2077 363.52ZM72.2077 363.52L73.1203 363.111C65.6564 346.457 59.4097 328.916 56.1027 310.771C55.3394 306.51 54.4541 301.872 53.5145 296.95C49.8064 277.526 45.2538 253.678 44.0316 231.125C43.266 216.998 43.8129 203.447 46.6692 191.865C49.5247 180.286 54.6672 170.754 63.034 164.539L63.0367 164.537C64.4861 163.453 66.4728 162.914 68.9824 162.874C71.4902 162.834 74.4361 163.292 77.7129 164.118C84.2707 165.77 91.955 168.836 99.7729 172.026C100.35 172.261 100.929 172.498 101.507 172.734C108.726 175.683 115.984 178.649 122.385 180.541C125.845 181.564 129.095 182.286 131.984 182.516C134.864 182.746 137.473 182.496 139.589 181.489L139.591 181.488C149.623 176.695 158.995 171.107 168.247 165.59C172.79 162.881 177.305 160.189 181.854 157.618C195.713 149.783 210.013 142.984 226.835 139.868C236.982 137.991 245.54 132.512 253.19 125.125C260.833 117.746 267.62 108.414 274.215 98.7588C275.791 96.4508 277.356 94.1255 278.919 91.8023C283.915 84.3773 288.896 76.9755 294.19 70.2415C301.134 61.4072 308.549 53.8152 317.107 48.9308L317.108 48.9302C318.554 48.1026 320.411 48.0657 322.744 48.8363C325.08 49.6076 327.754 51.1461 330.687 53.2511C336.498 57.4221 343.085 63.6398 349.73 69.9122L349.911 70.0828C356.582 76.3803 363.309 82.7173 369.233 86.8918C372.193 88.9779 375.02 90.5728 377.592 91.3371C380.175 92.1048 382.633 92.0681 384.682 90.6851L384.684 90.6834C410.157 73.3781 440.358 78.3304 466.427 92.7092L466.431 92.7114C474.906 97.3346 483.763 103.54 491.778 115.29L491.779 115.291M72.2077 363.52L491.779 115.291M491.779 115.291C502.544 131.023 508.252 151.715 509.701 171.006C511.152 190.335 508.313 208.027 502.224 217.82C496.105 227.66 487.931 233.045 479.326 237.959M491.779 115.291L479.326 237.959M479.326 237.959C478.119 238.648 476.902 239.329 475.68 240.012M479.326 237.959L475.68 240.012M475.68 240.012C468.226 244.181 460.6 248.445 454.14 255.307L475.68 240.012Z" stroke="#E1AFB4" stroke-width="2" stroke-miterlimit="10"/>
</svg>
