<svg width="22" height="21" viewBox="0 0 22 21" fill="none" xmlns="http://www.w3.org/2000/svg">
<path fill-rule="evenodd" clip-rule="evenodd" d="M20.455 3.73005C21 4.79961 21 6.19974 21 9V10.1842C21 11.8734 21 12.7179 20.798 13.4069C20.3188 15.041 19.041 16.3188 17.4069 16.798C16.7179 17 15.8734 17 14.1842 17H13.6354L13.5703 17.0001C12.5501 17.0066 11.5562 17.3251 10.7222 17.9128L10.6692 17.9506L8.05848 19.8154C7.1635 20.4546 5.98743 19.5314 6.3959 18.5103C6.68525 17.7869 6.15251 17 5.37341 17H4.77166C2.68863 17 1 15.3114 1 13.2283V9C1 6.19974 1 4.79961 1.54497 3.73005C2.02433 2.78924 2.78924 2.02433 3.73005 1.54497C4.79961 1 6.19974 1 9 1H13C15.8003 1 17.2004 1 18.27 1.54497C19.2108 2.02433 19.9757 2.78924 20.455 3.73005ZM8 9C8 9.55229 7.55228 10 7 10C6.44772 10 6 9.55229 6 9C6 8.44772 6.44772 8 7 8C7.55228 8 8 8.44772 8 9ZM12 9C12 9.55229 11.5523 10 11 10C10.4477 10 10 9.55229 10 9C10 8.44772 10.4477 8 11 8C11.5523 8 12 8.44772 12 9ZM15 10C15.5523 10 16 9.55229 16 9C16 8.44772 15.5523 8 15 8C14.4477 8 14 8.44772 14 9C14 9.55229 14.4477 10 15 10Z" fill="#CF9EAC" stroke="black"/>
</svg>
