<?xml version="1.0" encoding="UTF-8" standalone="no"?>
<svg
   xmlns:dc="http://purl.org/dc/elements/1.1/"
   xmlns:cc="http://creativecommons.org/ns#"
   xmlns:rdf="http://www.w3.org/1999/02/22-rdf-syntax-ns#"
   xmlns:svg="http://www.w3.org/2000/svg"
   xmlns="http://www.w3.org/2000/svg"
   xmlns:sodipodi="http://sodipodi.sourceforge.net/DTD/sodipodi-0.dtd"
   xmlns:inkscape="http://www.inkscape.org/namespaces/inkscape"
   version="1.1"
   id="svg2"
   xml:space="preserve"
   width="630.8667"
   height="727.17334"
   viewBox="0 0 630.8667 727.17334"
   sodipodi:docname="peopled.eps"><metadata
     id="metadata8"><rdf:RDF><cc:Work
         rdf:about=""><dc:format>image/svg+xml</dc:format><dc:type
           rdf:resource="http://purl.org/dc/dcmitype/StillImage" /></cc:Work></rdf:RDF></metadata><defs
     id="defs6" /><sodipodi:namedview
     pagecolor="#ffffff"
     bordercolor="#666666"
     borderopacity="1"
     objecttolerance="10"
     gridtolerance="10"
     guidetolerance="10"
     inkscape:pageopacity="0"
     inkscape:pageshadow="2"
     inkscape:window-width="640"
     inkscape:window-height="480"
     id="namedview4" /><g
     id="g10"
     inkscape:groupmode="layer"
     inkscape:label="ink_ext_XXXXXX"
     transform="matrix(1.3333333,0,0,-1.3333333,0,727.17333)"><g
       id="g12"
       transform="scale(0.1)"><path
         d="M 0,5453.76 H 4731.46 V 0 H 0 v 5453.76 0"
         style="fill:#e6a811;fill-opacity:1;fill-rule:evenodd;stroke:none"
         id="path14" /><path
         d="M 2467.38,4255.25 V 4119.6 c 0,-18.38 15.03,-33.42 33.42,-33.42 v 0 c 18.37,0 33.41,15.04 33.41,33.42 v 135.65 h -66.83 v 0"
         style="fill:#ffffff;fill-opacity:1;fill-rule:evenodd;stroke:none"
         id="path16" /><path
         d="m 2176.34,4255.25 v -135.66 c 0,-18.37 15.03,-33.41 33.41,-33.41 v 0 c 18.38,0 33.41,15.04 33.41,33.41 v 135.66 h -66.82 v 0"
         style="fill:#ffffff;fill-opacity:1;fill-rule:evenodd;stroke:none"
         id="path18" /><path
         d="m 2266.44,4087.3 v -600.8 h 74.13 v 498.52 c 0,8.1 6.62,14.71 14.7,14.71 v 0 c 8.09,0 14.71,-6.61 14.71,-14.71 V 3486.5 h 74.13 v 531.15 69.65 h -177.67 v 0"
         style="fill:#ffffff;fill-opacity:1;fill-rule:evenodd;stroke:none"
         id="path20" /><path
         d="m 2243.26,4590.63 c -39.83,-32.14 -65.74,-80.91 -66.88,-135.51 -0.01,-1 -0.03,-2 -0.04,-3.01 0,-0.24 0,-0.49 0,-0.74 v -196.12 h 66.82 v 161.22 c 0,6.41 5.23,11.65 11.64,11.65 v 0 c 6.4,0 11.64,-5.25 11.64,-11.65 v -259.15 -70.02 h 177.66 v 70.02 259.15 c 0,6.41 5.25,11.65 11.64,11.65 v 0 c 6.41,0 11.64,-5.25 11.64,-11.65 v -161.22 h 66.83 v 196.12 c 0,0.25 -0.01,0.51 -0.01,0.76 -0.01,1 -0.02,1.99 -0.04,2.99 -1.15,55.52 -27.94,105.06 -68.95,137.16 v 0.32 c -30.39,23.79 -68.58,38.01 -109.94,38.01 v 0 c -42.31,0 -81.3,-14.89 -112.01,-39.67 v -0.31 0"
         style="fill:#211c1d;fill-opacity:1;fill-rule:evenodd;stroke:none"
         id="path22" /><path
         d="m 2340.57,3507.89 h -74.13 v -28.88 h -51.06 c -12.7,0 -23.09,-10.39 -23.09,-23.09 v 0 c 0,-12.71 10.39,-23.1 23.09,-23.1 h 125.19 v 23.1 23.09 28.88 z m 103.53,0 h -74.12 v -75.07 h 122.27 c 12.7,0 23.09,10.39 23.09,23.1 v 0 c 0,12.7 -10.39,23.09 -23.09,23.09 h -48.15 v 28.88 0"
         style="fill:#211c1d;fill-opacity:1;fill-rule:evenodd;stroke:none"
         id="path24" /><path
         d="m 2355.27,4922.7 v 0 c 81.45,0 148.07,-66.61 148.07,-148.06 v -113.53 c 0,-19 -15.55,-34.54 -34.55,-34.54 H 2269.2 c -34.1,0 -62,27.89 -62,62 v 86.07 c 0,81.45 66.63,148.06 148.07,148.06 v 0"
         style="fill:#ffffff;fill-opacity:1;fill-rule:evenodd;stroke:none"
         id="path26" /><path
         d="m 2268.01,4766.28 h 174.52 c 42.45,0 77.18,-34.73 77.18,-77.17 v 0 c 0,-42.45 -34.73,-77.18 -77.18,-77.18 h -174.52 c -42.44,0 -77.17,34.73 -77.17,77.18 v 0 c 0,42.44 34.73,77.17 77.17,77.17 v 0"
         style="fill:#ffffff;fill-opacity:1;fill-rule:evenodd;stroke:none"
         id="path28" /><path
         d="m 2248.95,4725.96 h 212.64 V 4505.7 c 0,-19.49 -15.95,-35.43 -35.43,-35.43 h -141.78 c -19.48,0 -35.43,15.94 -35.43,35.43 v 220.26 0"
         style="fill:#ffffff;fill-opacity:1;fill-rule:evenodd;stroke:none"
         id="path30" /><path
         d="m 2285.3,4753.13 c 31.84,0 57.65,-25.81 57.65,-57.65 0,-31.84 -25.81,-57.65 -57.65,-57.65 -31.83,0 -57.64,25.81 -57.64,57.65 0,31.84 25.81,57.65 57.64,57.65 v 0"
         style="fill:#211c1d;fill-opacity:1;fill-rule:evenodd;stroke:none"
         id="path32" /><path
         d="m 2425.23,4753.13 c 31.84,0 57.65,-25.81 57.65,-57.65 0,-31.84 -25.81,-57.65 -57.65,-57.65 -31.83,0 -57.64,25.81 -57.64,57.65 0,31.84 25.81,57.65 57.64,57.65 v 0"
         style="fill:#211c1d;fill-opacity:1;fill-rule:evenodd;stroke:none"
         id="path34" /><path
         d="m 2285.3,4753.13 h 139.93 v -14.69 H 2285.3 v 14.69 0"
         style="fill:#211c1d;fill-opacity:1;fill-rule:evenodd;stroke:none"
         id="path36" /><path
         d="m 2299.69,4969.43 h 111.16 c 50.82,0 92.39,-41.58 92.39,-92.4 v -92.39 H 2207.3 v 92.39 c 0,50.82 41.57,92.4 92.39,92.4 v 0"
         style="fill:#211c1d;fill-opacity:1;fill-rule:evenodd;stroke:none"
         id="path38" /><path
         d="m 2141.3,4798.53 h 427.95 c 6.87,0 12.5,-5.63 12.5,-12.5 v -0.01 c 0,-6.88 -5.63,-12.5 -12.5,-12.5 H 2141.3 c -6.88,0 -12.51,5.62 -12.51,12.5 v 0.01 c 0,6.87 5.63,12.5 12.51,12.5 v 0"
         style="fill:#211c1d;fill-opacity:1;fill-rule:evenodd;stroke:none"
         id="path40" /><path
         d="m 2285.3,4740.64 c 24.94,0 45.16,-20.22 45.16,-45.16 0,-24.94 -20.22,-45.16 -45.16,-45.16 -24.93,0 -45.15,20.22 -45.15,45.16 0,24.94 20.22,45.16 45.15,45.16 v 0"
         style="fill:#211c1d;fill-opacity:1;fill-rule:evenodd;stroke:none"
         id="path42" /><path
         d="m 2425.23,4740.64 c 24.95,0 45.16,-20.22 45.16,-45.16 0,-24.94 -20.21,-45.16 -45.16,-45.16 -24.93,0 -45.15,20.22 -45.15,45.16 0,24.94 20.22,45.16 45.15,45.16 v 0"
         style="fill:#211c1d;fill-opacity:1;fill-rule:evenodd;stroke:none"
         id="path44" /><path
         d="m 2275.6,4570.35 c -0.23,-43.98 35.25,-79.83 79.24,-80.07 43.99,-0.23 79.84,35.26 80.06,79.24 l 0.05,9.1 -18.2,0.1 -0.05,-9.11 c -0.18,-33.93 -27.83,-61.3 -61.77,-61.12 -33.93,0.18 -61.3,27.83 -61.12,61.76 l 0.05,9.11 -18.21,0.09 -0.05,-9.1 v 0"
         style="fill:#211c1d;fill-opacity:1;fill-rule:evenodd;stroke:none"
         id="path46" /><path
         d="m 4023.96,1577.25 v 264.02 h 134.72 v -264.02 h -134.72 v 0"
         style="fill:#211c1d;fill-opacity:1;fill-rule:evenodd;stroke:none"
         id="path48" /><path
         d="m 3917.85,1839.32 c -33.89,-15.3 -74.45,-1.04 -91.13,32.54 -16.72,33.63 -3.51,74.65 29.29,92.38 1.44,-3.4 2.98,-6.78 4.65,-10.13 l 54,-108.69 c 1.02,-2.07 2.1,-4.09 3.19,-6.1 z m 272.07,290.83 c 33.94,15.43 74.62,1.17 91.32,-32.45 16.69,-33.58 3.55,-74.53 -29.11,-92.3 -0.94,2.09 -1.92,4.16 -2.94,6.23 l -54,108.69 c -1.66,3.35 -3.43,6.62 -5.27,9.83 v 0"
         style="fill:#ffffff;fill-opacity:1;fill-rule:evenodd;stroke:none"
         id="path50" /><path
         d="m 3954.53,2184.92 v 0 c 81.25,40.36 180.73,6.93 221.1,-74.31 l 54.01,-108.7 c 40.36,-81.24 6.91,-180.73 -74.33,-221.1 v 0 c -81.24,-40.36 -180.73,-6.91 -221.09,74.33 l -54.01,108.69 c -40.36,81.24 -6.92,180.73 74.32,221.09 v 0"
         style="fill:#211c1d;fill-opacity:1;fill-rule:evenodd;stroke:none"
         id="path52" /><path
         d="m 3918.91,1971.26 49.3,-99.23 c 31.05,-62.48 107.74,-88.25 170.22,-57.22 62.47,31.05 88.25,107.74 57.2,170.21 l -49.3,99.24 -227.42,-113 v 0"
         style="fill:#ffffff;fill-opacity:1;fill-rule:evenodd;stroke:none"
         id="path54" /><path
         d="m 3972.32,1977.03 34.68,17.24 c 15.44,7.66 34.36,1.31 42.03,-14.14 v 0 c 7.68,-15.44 1.32,-34.36 -14.12,-42.03 l -34.69,-17.24 c -15.44,-7.68 -34.36,-1.31 -42.03,14.13 v 0 c -7.68,15.45 -1.31,34.37 14.13,42.04 v 0"
         style="fill:#211c1d;fill-opacity:1;fill-rule:evenodd;stroke:none"
         id="path56" /><path
         d="m 4074.79,2027.95 34.69,17.23 c 15.44,7.67 34.36,1.31 42.03,-14.13 v 0 c 7.68,-15.44 1.31,-34.36 -14.13,-42.04 l -34.67,-17.23 c -15.45,-7.68 -34.37,-1.31 -42.05,14.13 v 0 c -7.67,15.45 -1.31,34.36 14.13,42.04 v 0"
         style="fill:#211c1d;fill-opacity:1;fill-rule:evenodd;stroke:none"
         id="path58" /><path
         d="m 4003.96,1884.97 c 21.68,-44.21 75.12,-62.48 119.33,-40.8 44.22,21.68 62.49,75.11 40.81,119.33 l -4.48,9.15 -18.3,-8.98 4.48,-9.15 c 16.73,-34.12 2.64,-75.32 -31.48,-92.06 -34.11,-16.72 -75.34,-2.64 -92.05,31.49 l -4.49,9.15 -18.31,-8.98 4.49,-9.15 v 0"
         style="fill:#211c1d;fill-opacity:1;fill-rule:evenodd;stroke:none"
         id="path60" /><path
         d="m 4124.36,636.59 h 56.96 V 424.082 h -56.96 v 212.508 0"
         style="fill:#ffffff;fill-opacity:1;fill-rule:evenodd;stroke:none"
         id="path62" /><path
         d="m 3971.58,636.59 h 56.96 V 424.082 h -56.96 v 212.508 0"
         style="fill:#ffffff;fill-opacity:1;fill-rule:evenodd;stroke:none"
         id="path64" /><path
         d="m 3952.68,1115.33 h 251.46 V 540.391 h -102.6 v 470.089 c 0,12.72 -10.41,23.13 -23.13,23.13 -12.72,0 -23.13,-10.41 -23.13,-23.13 V 540.391 h -102.6 v 574.939 0"
         style="fill:#ffffff;fill-opacity:1;fill-rule:evenodd;stroke:none"
         id="path66" /><path
         d="m 3828.54,1106.58 v 343.21 c 0,129.34 105.71,235.04 235.05,235.04 h 31.2 c 129.35,0 235.07,-105.72 235.07,-235.04 v -343.21 c 0,-19.54 -15.85,-35.37 -35.38,-35.37 -19.53,0 -35.38,15.83 -35.38,35.37 v 343.21 c 0,40.75 -15.08,78.2 -39.94,107.01 l -13.45,-416.17 h -253.03 l -13.45,416.18 c -24.85,-28.82 -39.94,-66.27 -39.94,-107.02 v -343.21 c 0,-19.54 -15.84,-35.37 -35.37,-35.37 -19.54,0 -35.38,15.83 -35.38,35.37 v 0"
         style="fill:#211c1d;fill-opacity:1;fill-rule:evenodd;stroke:none"
         id="path68" /><path
         d="m 4329.86,1128.76 v -22.18 c 0,-19.54 -15.85,-35.37 -35.38,-35.37 -19.53,0 -35.38,15.83 -35.38,35.37 v 22.18 h 70.76 z m -501.32,-22.18 v 22.18 h 70.75 v -22.18 c 0,-19.54 -15.84,-35.37 -35.37,-35.37 -19.54,0 -35.38,15.83 -35.38,35.37 v 0"
         style="fill:#ffffff;fill-opacity:1;fill-rule:evenodd;stroke:none"
         id="path70" /><path
         d="m 3953.21,1127.22 h 251.98 c 6.76,0 12.3,-5.54 12.3,-12.31 v 0 c 0,-6.77 -5.54,-12.31 -12.3,-12.31 h -251.98 c -6.77,0 -12.31,5.54 -12.31,12.31 v 0 c 0,6.77 5.54,12.31 12.31,12.31 v 0"
         style="fill:#ffffff;fill-opacity:1;fill-rule:evenodd;stroke:none"
         id="path72" /><path
         d="m 4028.54,476.859 h -167.5 c -29.03,0 -52.77,-23.75 -52.77,-52.769 h 220.27 v 52.769 0"
         style="fill:#211c1d;fill-opacity:1;fill-rule:evenodd;stroke:none"
         id="path74" /><path
         d="m 4124.36,476.859 h 174.11 c 29.01,0 52.75,-23.75 52.75,-52.769 h -226.86 v 52.769 0"
         style="fill:#211c1d;fill-opacity:1;fill-rule:evenodd;stroke:none"
         id="path76" /><path
         d="m 4079.2,1591.66 c 49.22,0 89.11,-39.89 89.11,-89.11 0,-49.21 -39.89,-89.1 -89.11,-89.1 -49.22,0 -89.11,39.89 -89.11,89.1 0,49.22 39.89,89.11 89.11,89.11 v 0"
         style="fill:#ffffff;fill-opacity:1;fill-rule:evenodd;stroke:none"
         id="path78" /><path
         d="m 3952.68,540.391 h 102.6 l 14.08,-36.45 H 3938.6 l 14.08,36.45 v 0"
         style="fill:#211c1d;fill-opacity:1;fill-rule:evenodd;stroke:none"
         id="path80" /><path
         d="m 4101.54,540.391 h 102.6 l 14.07,-36.45 h -130.74 l 14.07,36.45 v 0"
         style="fill:#211c1d;fill-opacity:1;fill-rule:evenodd;stroke:none"
         id="path82" /><path
         d="m 1960.01,4664.39 v -131.74 c 0,-17.64 14.44,-32.08 32.08,-32.08 v 0 c 17.64,0 32.08,14.44 32.08,32.08 v 131.74 c 0,7.77 -2.8,14.91 -7.45,20.48 h -49.26 c -4.65,-5.57 -7.45,-12.71 -7.45,-20.48 v 0"
         style="fill:#ffffff;fill-opacity:1;fill-rule:evenodd;stroke:none"
         id="path84" /><path
         d="m 1960.01,4860.27 v -131.73 c 0,-7.77 2.8,-14.93 7.45,-20.49 h 49.26 c 4.65,5.56 7.45,12.72 7.45,20.49 v 131.73 c 0,17.64 -14.44,32.07 -32.08,32.07 v 0 c -17.64,0 -32.08,-14.43 -32.08,-32.07 v 0"
         style="fill:#ffffff;fill-opacity:1;fill-rule:evenodd;stroke:none"
         id="path86" /><path
         d="m 1371.32,4578.93 v 235.06 h 652.85 v -105.94 h -510.05 c -6.37,0 -11.59,-5.22 -11.59,-11.59 v -0.01 c 0,-6.36 5.22,-11.58 11.59,-11.58 h 510.05 v -105.94 h -652.85 v 0"
         style="fill:#211c1d;fill-opacity:1;fill-rule:evenodd;stroke:none"
         id="path88" /><path
         d="m 855.484,4462.21 c 9.567,-1.4 19.305,-2.22 29.196,-2.42 1.316,-0.03 2.656,-0.05 3.98,-0.06 0.328,0 0.656,-0.01 0.985,-0.01 h 640.835 v 88.41 H 935.813 c -8.469,0 -15.399,6.93 -15.399,15.4 v 0 c 0,8.47 6.93,15.4 15.399,15.4 h 342.867 92.64 v 235.06 h -92.64 -342.867 c -8.469,0 -15.399,6.94 -15.399,15.4 v 0 c 0,8.48 6.93,15.41 15.399,15.41 h 594.667 v 88.4 H 889.645 c -0.336,0 -0.668,0 -1.008,0 -1.317,0 -2.629,-0.04 -3.949,-0.06 -9.887,-0.2 -19.633,-1.03 -29.204,-2.43 v -468.5 0"
         style="fill:#ffffff;fill-opacity:1;fill-rule:evenodd;stroke:none"
         id="path90" /><path
         d="m 778.711,4522.25 v 348.43 c 0,34.39 28.141,62.52 62.523,62.52 h 62.528 v -473.48 h -62.528 c -34.382,0 -62.523,28.14 -62.523,62.53 v 0"
         style="fill:#ffffff;fill-opacity:1;fill-rule:evenodd;stroke:none"
         id="path92" /><path
         d="m 682.344,5039.8 v 0 c -93.938,0 -170.797,-76.86 -170.797,-170.8 v -287.05 h 82.851 v 157.16 h 175.891 v -157.16 h 82.852 V 4869 c 0,93.94 -76.856,170.8 -170.797,170.8 v 0"
         style="fill:#211c1d;fill-opacity:1;fill-rule:evenodd;stroke:none"
         id="path94" /><path
         d="m 682.344,4994.18 h -0.004 c -67.363,0 -122.473,-55.11 -122.473,-122.47 v -93.91 c 0,-15.71 12.852,-28.57 28.574,-28.57 h 165.098 c 28.207,0 51.281,23.07 51.281,51.28 v 71.2 c 0,67.36 -55.109,122.47 -122.476,122.47 v 0"
         style="fill:#211c1d;fill-opacity:1;fill-rule:evenodd;stroke:none"
         id="path96" /><path
         d="M 754.52,4864.8 H 610.168 c -35.109,0 -63.828,-28.71 -63.828,-63.83 v -0.01 c 0,-35.11 28.719,-63.83 63.828,-63.83 H 754.52 c 35.109,0 63.832,28.72 63.832,63.83 v 0.01 c 0,35.12 -28.723,63.83 -63.832,63.83 v 0"
         style="fill:#ffffff;fill-opacity:1;fill-rule:evenodd;stroke:none"
         id="path98" /><path
         d="M 770.289,4831.44 H 594.398 V 4611.4 c 0,-16.12 13.192,-29.31 29.313,-29.31 h 117.266 c 16.125,0 29.312,13.19 29.312,29.31 v 220.04 0"
         style="fill:#ffffff;fill-opacity:1;fill-rule:evenodd;stroke:none"
         id="path100" /><path
         d="m 740.215,4853.92 c -26.328,0 -47.676,-21.36 -47.676,-47.69 0,-26.33 21.348,-47.68 47.676,-47.68 26.34,0 47.683,21.35 47.683,47.68 0,26.33 -21.343,47.69 -47.683,47.69 v 0"
         style="fill:#211c1d;fill-opacity:1;fill-rule:evenodd;stroke:none"
         id="path102" /><path
         d="m 624.473,4853.92 c -26.332,0 -47.68,-21.36 -47.68,-47.69 0,-26.33 21.348,-47.68 47.68,-47.68 26.332,0 47.679,21.35 47.679,47.68 0,26.33 -21.347,47.69 -47.679,47.69 v 0"
         style="fill:#211c1d;fill-opacity:1;fill-rule:evenodd;stroke:none"
         id="path104" /><path
         d="m 740.215,4841.35 c -19.391,0 -35.117,-15.72 -35.117,-35.12 0,-19.39 15.726,-35.12 35.117,-35.12 19.398,0 35.129,15.73 35.129,35.12 0,19.4 -15.731,35.12 -35.129,35.12 v 0"
         style="fill:#211c1d;fill-opacity:1;fill-rule:evenodd;stroke:none"
         id="path106" /><path
         d="m 624.473,4841.35 c -19.399,0 -35.121,-15.72 -35.121,-35.12 0,-19.39 15.722,-35.12 35.121,-35.12 19.398,0 35.121,15.73 35.121,35.12 0,19.4 -15.723,35.12 -35.121,35.12 v 0"
         style="fill:#211c1d;fill-opacity:1;fill-rule:evenodd;stroke:none"
         id="path108" /><path
         d="M 740.215,4853.92 H 624.473 v -12.57 h 115.742 v 12.57 0"
         style="fill:#211c1d;fill-opacity:1;fill-rule:evenodd;stroke:none"
         id="path110" /><path
         d="m 811.719,4623.38 c -22.879,0 -41.43,-18.54 -41.43,-41.43 0,-22.88 18.551,-41.42 41.43,-41.42 22.875,0 41.422,18.54 41.422,41.42 0,22.89 -18.547,41.43 -41.422,41.43 v 0"
         style="fill:#211c1d;fill-opacity:1;fill-rule:evenodd;stroke:none"
         id="path112" /><path
         d="m 552.973,4623.38 c -22.875,0 -41.426,-18.54 -41.426,-41.43 0,-22.88 18.551,-41.42 41.426,-41.42 22.882,0 41.425,18.54 41.425,41.42 0,22.89 -18.543,41.43 -41.425,41.43 v 0"
         style="fill:#211c1d;fill-opacity:1;fill-rule:evenodd;stroke:none"
         id="path114" /><path
         d="m 613.652,4678.2 h 137.387 v -23.47 H 613.652 v 23.47 0"
         style="fill:#211c1d;fill-opacity:1;fill-rule:evenodd;stroke:none"
         id="path116" /><path
         d="m 682.344,4990.82 11.445,-35.45 37.246,0.07 -30.176,-21.83 11.579,-35.41 -30.094,21.96 -30.086,-21.96 11.574,35.41 -30.176,21.83 37.246,-0.07 11.442,35.45 v 0"
         style="fill:#ffffff;fill-opacity:1;fill-rule:evenodd;stroke:none"
         id="path118" /><path
         d="m 4003.98,3505.52 v 255.39 c 0,71.2 17.94,138.39 49.48,197.31 h 104.6 c -41.1,-55.27 -65.48,-123.6 -65.48,-197.31 v -255.39 h -88.6 v 0"
         style="fill:#211c1d;fill-opacity:1;fill-rule:evenodd;stroke:none"
         id="path120" /><path
         d="m 3983.31,3504.56 v 256.35 c 0,71.2 -17.93,138.39 -49.46,197.31 h -104.6 c 41.08,-55.27 65.48,-123.6 65.48,-197.31 v -256.35 h 88.58 v 0"
         style="fill:#211c1d;fill-opacity:1;fill-rule:evenodd;stroke:none"
         id="path122" /><path
         d="m 4003.98,3554.49 c 77.11,0 140.19,-63.08 140.19,-140.18 v -3.79 h -73.27 v 45.74 c 0,8.65 -7.08,15.74 -15.74,15.74 v 0 c -8.67,0 -15.75,-7.09 -15.75,-15.74 v -45.74 h -35.43 v 143.97 0"
         style="fill:#ffffff;fill-opacity:1;fill-rule:evenodd;stroke:none"
         id="path124" /><path
         d="m 3983.31,3554.49 c -77.1,0 -140.18,-63.08 -140.18,-140.18 v -3.79 h 73.28 v 45.74 c 0,8.65 7.08,15.74 15.74,15.74 v 0 c 8.65,0 15.73,-7.09 15.73,-15.74 v -45.74 h 35.43 v 143.97 0"
         style="fill:#ffffff;fill-opacity:1;fill-rule:evenodd;stroke:none"
         id="path126" /><path
         d="m 3739.23,5010.2 v -481.65 c 0,-74.1 60.54,-134.63 134.64,-134.63 h 239.55 c 74.1,0 134.64,60.53 134.64,134.63 l -0.01,481.65 h -64.67 v -481.65 c 0,-38.41 -31.55,-69.96 -69.96,-69.96 h -239.55 c -38.42,0 -69.96,31.55 -69.96,69.96 v 481.65 h -64.68 v 0"
         style="fill:#ffffff;fill-opacity:1;fill-rule:evenodd;stroke:none"
         id="path128" /><path
         d="m 4115.89,4114.09 h -90.73 v -155.87 h 90.73 v 155.87 0"
         style="fill:#f46b77;fill-opacity:1;fill-rule:evenodd;stroke:none"
         id="path130" /><path
         d="m 3967.85,4114.09 h -90.72 v -155.87 h 90.72 v 155.87 0"
         style="fill:#f46b77;fill-opacity:1;fill-rule:evenodd;stroke:none"
         id="path132" /><path
         d="m 4141.26,4535.8 72.16,-577.58 h -439.54 l 70.51,577.81 41.3,-0.23 c 58.36,-55.69 156.53,-56.11 214.74,0 h 40.83 v 0"
         style="fill:#ffffff;fill-opacity:1;fill-rule:evenodd;stroke:none"
         id="path134" /><path
         d="m 4198.72,4075.88 8.93,-71.46 h -428.14 l 8.71,71.46 h 410.5 v 0"
         style="fill:#211c1d;fill-opacity:1;fill-rule:evenodd;stroke:none"
         id="path136" /><path
         d="m 4199.98,4065.81 6.43,-51.41 c -0.97,-0.1 -1.95,-0.16 -2.94,-0.16 -14.31,0 -25.91,11.6 -25.91,25.92 0,13.11 9.76,23.95 22.42,25.65 v 0 0"
         style="fill:#ffffff;fill-opacity:1;fill-rule:evenodd;stroke:none"
         id="path138" /><path
         d="m 4119.54,4066.05 c -14.31,0 -25.91,-11.6 -25.91,-25.89 0,-14.32 11.6,-25.92 25.91,-25.92 14.31,0 25.91,11.6 25.91,25.92 0,14.29 -11.6,25.89 -25.91,25.89 v 0 0"
         style="fill:#ffffff;fill-opacity:1;fill-rule:evenodd;stroke:none"
         id="path140" /><path
         d="m 4035.62,4066.05 c -14.31,0 -25.91,-11.6 -25.91,-25.89 0,-14.32 11.6,-25.92 25.91,-25.92 14.3,0 25.9,11.6 25.9,25.92 0,14.29 -11.6,25.89 -25.9,25.89 v 0 0"
         style="fill:#ffffff;fill-opacity:1;fill-rule:evenodd;stroke:none"
         id="path142" /><path
         d="m 3951.69,4066.05 c -14.31,0 -25.92,-11.6 -25.92,-25.89 0,-14.32 11.61,-25.92 25.92,-25.92 14.3,0 25.91,11.6 25.91,25.92 0,14.29 -11.61,25.89 -25.91,25.89 v 0 0"
         style="fill:#ffffff;fill-opacity:1;fill-rule:evenodd;stroke:none"
         id="path144" /><path
         d="m 3867.75,4066.05 c -14.3,0 -25.89,-11.6 -25.89,-25.89 0,-14.32 11.59,-25.92 25.89,-25.92 14.32,0 25.91,11.6 25.91,25.92 0,14.29 -11.59,25.89 -25.91,25.89 v 0 0"
         style="fill:#ffffff;fill-opacity:1;fill-rule:evenodd;stroke:none"
         id="path146" /><path
         d="m 3780.74,4014.42 6.26,51.43 c 12.81,-1.56 22.75,-12.46 22.75,-25.69 0,-14.32 -11.62,-25.92 -25.93,-25.92 -1.05,0 -2.07,0.08 -3.08,0.18 v 0 0"
         style="fill:#ffffff;fill-opacity:1;fill-rule:evenodd;stroke:none"
         id="path148" /><path
         d="m 3993.64,4911.4 c -121.28,0 -219.58,-98.31 -219.58,-219.6 0,-121.27 98.3,-219.58 219.58,-219.58 121.29,0 219.6,98.31 219.6,219.58 0,121.29 -98.31,219.6 -219.6,219.6 v 0 0"
         style="fill:#211c1d;fill-opacity:1;fill-rule:evenodd;stroke:none"
         id="path150" /><path
         d="m 3993.64,4841.37 v 0 c -61.18,0 -111.25,-50.07 -111.25,-111.24 v -76.64 c 0,-61.19 50.07,-111.24 111.25,-111.24 v 0 c 61.19,0 111.26,50.05 111.26,111.24 v 76.64 c 0,61.17 -50.06,111.24 -111.26,111.24 v 0 0"
         style="fill:#ffffff;fill-opacity:1;fill-rule:evenodd;stroke:none"
         id="path152" /><path
         d="m 3993.64,4841.37 v 0 c -49.62,0 -91.91,-32.92 -106.14,-78 h 212.29 c -14.21,45.08 -56.52,78 -106.15,78 v 0 0"
         style="fill:#211c1d;fill-opacity:1;fill-rule:evenodd;stroke:none"
         id="path154" /><path
         d="m 4077.75,4732.12 h -62.89 c -6.86,0 -12.47,-5.62 -12.47,-12.48 v 0 c 0,-6.86 5.62,-12.48 12.47,-12.48 h 62.89 c 6.87,0 12.48,5.62 12.48,12.48 v 0 c 0,6.86 -5.61,12.48 -12.48,12.48 v 0 0"
         style="fill:#211c1d;fill-opacity:1;fill-rule:evenodd;stroke:none"
         id="path156" /><path
         d="m 3972.43,4732.12 h -62.9 c -6.84,0 -12.46,-5.62 -12.46,-12.48 v 0 c 0,-6.86 5.62,-12.48 12.46,-12.48 h 62.9 c 6.88,0 12.48,5.62 12.48,12.48 v 0 c 0,6.86 -5.6,12.48 -12.47,12.48 h -0.01 v 0"
         style="fill:#211c1d;fill-opacity:1;fill-rule:evenodd;stroke:none"
         id="path158" /><path
         d="m 4136.1,4662.79 c -3.25,-9.99 2.22,-20.74 12.23,-23.98 10,-3.25 20.73,2.22 23.98,12.22 3.26,10.02 -2.22,20.74 -12.21,24 -10.01,3.23 -20.74,-2.24 -24,-12.24 v 0 0"
         style="fill:#ffffff;fill-opacity:1;fill-rule:evenodd;stroke:none"
         id="path160" /><path
         d="m 4136.1,4767.14 c -3.25,-10.01 2.22,-20.74 12.23,-24 10,-3.24 20.73,2.23 23.98,12.24 3.26,9.98 -2.22,20.73 -12.21,23.98 -10.01,3.26 -20.74,-2.21 -24,-12.22 v 0 0"
         style="fill:#ffffff;fill-opacity:1;fill-rule:evenodd;stroke:none"
         id="path162" /><path
         d="m 4074.78,4851.54 c -3.26,-10 2.22,-20.73 12.21,-23.98 10,-3.24 20.75,2.23 24,12.23 3.25,9.99 -2.23,20.74 -12.23,23.98 -9.99,3.25 -20.73,-2.22 -23.98,-12.23 v 0 0"
         style="fill:#ffffff;fill-opacity:1;fill-rule:evenodd;stroke:none"
         id="path164" /><path
         d="m 3975.54,4883.8 c -3.25,-10.01 2.22,-20.74 12.23,-24 9.99,-3.24 20.74,2.23 23.99,12.24 3.25,9.98 -2.23,20.73 -12.23,23.98 -10.01,3.26 -20.74,-2.22 -23.99,-12.22 v 0 0"
         style="fill:#ffffff;fill-opacity:1;fill-rule:evenodd;stroke:none"
         id="path166" /><path
         d="m 3876.31,4851.54 c -3.25,-10 2.22,-20.73 12.23,-23.98 10,-3.24 20.73,2.23 23.98,12.23 3.24,9.99 -2.23,20.74 -12.23,23.98 -9.99,3.25 -20.73,-2.22 -23.98,-12.23 v 0 0"
         style="fill:#ffffff;fill-opacity:1;fill-rule:evenodd;stroke:none"
         id="path168" /><path
         d="m 3814.98,4767.14 c -3.25,-10.01 2.23,-20.74 12.23,-24 10,-3.24 20.73,2.23 23.98,12.24 3.24,9.98 -2.23,20.73 -12.22,23.98 -10,3.26 -20.75,-2.21 -23.99,-12.22 v 0 0"
         style="fill:#ffffff;fill-opacity:1;fill-rule:evenodd;stroke:none"
         id="path170" /><path
         d="m 3814.98,4662.79 c -3.25,-9.99 2.23,-20.74 12.23,-23.98 10,-3.25 20.73,2.22 23.98,12.22 3.24,10.02 -2.23,20.74 -12.22,24 -10,3.23 -20.75,-2.24 -23.99,-12.24 v 0 0"
         style="fill:#ffffff;fill-opacity:1;fill-rule:evenodd;stroke:none"
         id="path172" /><path
         d="m 3911.88,4656.46 c -0.21,-45.13 36.23,-81.89 81.38,-82.1 45.15,-0.21 81.91,36.23 82.11,81.38 l 0.04,9.34 -18.68,0.08 -0.04,-9.35 c -0.16,-34.81 -28.52,-62.93 -63.34,-62.77 -34.83,0.16 -62.95,28.5 -62.79,63.35 l 0.06,9.33 -18.71,0.1 -0.03,-9.36 v 0"
         style="fill:#211c1d;fill-opacity:1;fill-rule:evenodd;stroke:none"
         id="path174" /><path
         d="m 3781.04,5052.01 h 103.17 c 22.99,0 41.81,-18.81 41.81,-41.8 v -0.01 c 0,-22.99 -18.82,-41.8 -41.81,-41.8 h -103.17 c -22.99,0 -41.81,18.81 -41.81,41.8 v 0.01 c 0,22.99 18.82,41.8 41.81,41.8 v 0"
         style="fill:#211c1d;fill-opacity:1;fill-rule:evenodd;stroke:none"
         id="path176" /><path
         d="m 4103.08,5052.01 h 103.16 c 23,0 41.81,-18.81 41.81,-41.8 v -0.01 c 0,-22.99 -18.81,-41.8 -41.81,-41.8 h -103.16 c -22.99,0 -41.81,18.81 -41.81,41.8 v 0.01 c 0,22.99 18.82,41.8 41.81,41.8 v 0"
         style="fill:#211c1d;fill-opacity:1;fill-rule:evenodd;stroke:none"
         id="path178" /><path
         d="m 3345.18,3473.92 h -98.64 c -13.2,0 -24.01,-10.81 -24.01,-24.03 v 0 c 0,-13.2 10.81,-24.01 24.01,-24.01 h 98.64 c 5.82,0 11.17,2.1 15.34,5.58 v 36.88 c -4.17,3.48 -9.52,5.58 -15.34,5.58 v 0"
         style="fill:#211c1d;fill-opacity:1;fill-rule:evenodd;stroke:none"
         id="path180" /><path
         d="m 3491.84,3473.92 h -98.64 c -5.81,0 -11.16,-2.1 -15.33,-5.58 v -36.88 c 4.17,-3.48 9.52,-5.58 15.33,-5.58 h 98.64 c 13.21,0 24.02,10.81 24.02,24.01 v 0 c 0,13.22 -10.81,24.03 -24.02,24.03 v 0"
         style="fill:#211c1d;fill-opacity:1;fill-rule:evenodd;stroke:none"
         id="path182" /><path
         d="m 3281.19,3997.67 h 176.01 v -571.79 h -79.33 v 464.87 c 0,4.77 -3.91,8.67 -8.67,8.67 h -0.01 c -4.77,0 -8.67,-3.9 -8.67,-8.67 v -464.87 h -79.33 v 571.79 0"
         style="fill:#ffffff;fill-opacity:1;fill-rule:evenodd;stroke:none"
         id="path184" /><path
         d="m 3193.81,4457.54 c -1.06,-7.16 -1.67,-14.45 -1.82,-21.86 -0.03,-0.99 -0.04,-1.99 -0.04,-2.98 0,-0.25 -0.01,-0.49 -0.01,-0.74 v -449.87 h 66.19 v 415.3 c 0,6.35 5.2,11.54 11.54,11.54 v 0 c 6.34,0 11.52,-5.19 11.52,-11.54 v -256.71 -158.59 h 176.01 v 158.59 256.71 c 0,6.35 5.18,11.54 11.52,11.54 v 0 c 6.35,0 11.53,-5.19 11.53,-11.54 v -415.3 h 66.2 v 449.87 c 0,0.25 0,0.5 -0.01,0.76 0,0.98 -0.02,1.97 -0.03,2.95 -0.16,7.41 -0.78,14.7 -1.83,21.87 h -350.77 v 0"
         style="fill:#211c1d;fill-opacity:1;fill-rule:evenodd;stroke:none"
         id="path186" /><path
         d="m 3238.76,4515.02 h 260.87 c 25.75,0 46.82,-21.07 46.82,-46.82 v -46.81 h -354.51 v 46.81 c 0,25.75 21.07,46.82 46.82,46.82 v 0"
         style="fill:#211c1d;fill-opacity:1;fill-rule:evenodd;stroke:none"
         id="path188" /><path
         d="m 3314.5,4604.87 h 109.39 v -89.85 H 3314.5 v 89.85 0"
         style="fill:#ffffff;fill-opacity:1;fill-rule:evenodd;stroke:none"
         id="path190" /><path
         d="m 3369.2,4974.19 v 0 c -89.05,0 -161.91,-72.86 -161.91,-161.91 v -91.15 h 45.99 v 92.19 c 0,63.79 52.13,115.91 115.92,115.91 63.78,0 115.91,-52.12 115.91,-115.91 v -92.19 h 45.99 v 91.15 c 0,89.05 -72.84,161.91 -161.9,161.91 v 0 0"
         style="fill:#211c1d;fill-opacity:1;fill-rule:evenodd;stroke:none"
         id="path192" /><path
         d="m 3369.2,4911.46 v 0 c 53.97,0 98.13,-44.16 98.13,-98.14 v -133.93 c 0,-53.98 -44.16,-98.14 -98.13,-98.14 v 0 c -53.99,0 -98.15,44.16 -98.15,98.14 v 133.93 c 0,53.98 44.16,98.14 98.15,98.14 v 0"
         style="fill:#211c1d;fill-opacity:1;fill-rule:evenodd;stroke:none"
         id="path194" /><path
         d="m 3227.76,4820.24 h 282.87 v -55.4 h -282.87 v 55.4 0"
         style="fill:#ffffff;fill-opacity:1;fill-rule:evenodd;stroke:none"
         id="path196" /><path
         d="m 3255.91,4805.96 h 102.13 v -26.84 h -102.13 v 26.84 0"
         style="fill:#211c1d;fill-opacity:1;fill-rule:evenodd;stroke:none"
         id="path198" /><path
         d="m 3380.36,4805.96 h 102.12 v -26.84 h -102.12 v 26.84 0"
         style="fill:#211c1d;fill-opacity:1;fill-rule:evenodd;stroke:none"
         id="path200" /><path
         d="m 3335.36,4650.71 v 0 c 0,11.41 9.35,20.74 20.75,20.74 h 26.17 c 11.4,0 20.74,-9.33 20.74,-20.74 v 0 c 0,-11.41 -9.34,-20.75 -20.74,-20.75 h -26.17 c -11.4,0 -20.75,9.34 -20.75,20.75 v 0"
         style="fill:#d3d4d3;fill-opacity:1;fill-rule:evenodd;stroke:none"
         id="path202" /><path
         d="m 2819.2,4974.19 c 101,0 183.61,-82.61 183.61,-183.59 v -195.46 h -60.95 l -39.57,25.78 -83.09,-7.29 v 360.56 0"
         style="fill:#ffffff;fill-opacity:1;fill-rule:evenodd;stroke:none"
         id="path204" /><path
         d="m 2909.49,4716.86 -140.11,-1.31 v -106.96 c 19.2,15.63 43.67,25.02 70.21,25.02 h 0.01 c 26.4,0 50.73,-9.29 69.89,-24.75 0,36 0.01,71.98 0,108 v 0 0"
         style="fill:#f35b66;fill-opacity:1;fill-rule:evenodd;stroke:none"
         id="path206" /><path
         d="m 2909.49,4637.34 v 121.71 c 22.41,22.81 36.24,54.11 36.24,88.62 0,69.87 -56.65,126.52 -126.53,126.52 -57.3,0 -105.71,-38.1 -121.28,-90.35 l -38.61,-95.98 c -3.68,-8.93 1.99,-20.3 12.28,-20.3 h 15.85 v -23.57 h 49.32 c 17.58,0 31.95,-14.37 31.95,-31.93 0,-17.58 -14.37,-31.94 -31.95,-31.94 h -55.53 v -8.54 c 0,-18.84 15.41,-34.24 34.23,-34.24 62.61,0 131.42,0 194.03,0 v 0 0"
         style="fill:#211c1d;fill-opacity:1;fill-rule:evenodd;stroke:none"
         id="path208" /><path
         d="m 2793.61,4884.93 -0.02,0.01 c -3.56,3.58 -9.38,3.58 -12.96,0 l -15.92,-15.92 -15.92,15.92 c -3.57,3.58 -9.41,3.58 -12.99,0 v 0 0 c -3.56,-3.56 -3.56,-9.41 0,-12.98 l 15.93,-15.92 -15.91,-15.91 c -3.57,-3.57 -3.58,-9.41 -0.02,-12.97 l 0.02,-0.02 c 3.56,-3.57 9.4,-3.55 12.97,0.02 l 15.91,15.91 15.93,-15.93 c 3.56,-3.57 9.41,-3.57 12.98,0 v 0 c 3.57,3.57 3.57,9.42 0,12.99 l -15.92,15.92 15.92,15.92 c 3.57,3.57 3.57,9.39 0,12.96 v 0 0"
         style="fill:#ffffff;fill-opacity:1;fill-rule:evenodd;stroke:none"
         id="path210" /><path
         d="m 2769.38,4637.34 h 140.11 v -128.11 h -140.11 v 128.11 0"
         style="fill:#211c1d;fill-opacity:1;fill-rule:evenodd;stroke:none"
         id="path212" /><path
         d="m 2727.92,3955.16 h 41.39 v 447.7 c 0,4.01 3.27,7.28 7.27,7.28 v 0 c 4,0 7.28,-3.27 7.28,-7.28 V 3391.87 h 47.89 v 660.92 c 0,4.21 3.44,7.65 7.64,7.65 v 0 c 4.21,0 7.66,-3.45 7.66,-7.65 v -660.92 h 47.89 v 1010.99 c 0,4.01 3.27,7.28 7.28,7.28 v 0 c 4,0 7.27,-3.27 7.27,-7.28 v -447.7 h 41.78 c 0,123.68 0,349.4 0,473.08 0,61.43 -50.25,111.68 -111.68,111.68 -61.43,0 -111.67,-50.25 -111.67,-111.68 0,-123.68 0,-349.4 0,-473.08 v 0"
         style="fill:#211c1d;fill-opacity:1;fill-rule:evenodd;stroke:none"
         id="path214" /><path
         d="m 2985.25,3420.68 v -6.78 c 0,-12.12 -9.91,-22.03 -22.03,-22.03 h -116.17 v 28.81 h 138.2 v 0"
         style="fill:#ffffff;fill-opacity:1;fill-rule:evenodd;stroke:none"
         id="path216" /><path
         d="m 2909.49,4620.57 h 93.32 v -153.5 c 0,-25.66 -20.99,-46.66 -46.66,-46.66 v 0 c -25.66,0 -46.66,21 -46.66,46.66 v 153.5 0"
         style="fill:#ffffff;fill-opacity:1;fill-rule:evenodd;stroke:none"
         id="path218" /><path
         d="m 2693.54,3420.68 v -6.78 c 0,-12.12 9.92,-22.03 22.04,-22.03 h 116.17 v 28.81 h -138.21 v 0"
         style="fill:#ffffff;fill-opacity:1;fill-rule:evenodd;stroke:none"
         id="path220" /><path
         d="m 2783.86,3484.01 h 47.89 v -92.14 h -47.89 v 92.14 0"
         style="fill:#ffffff;fill-opacity:1;fill-rule:evenodd;stroke:none"
         id="path222" /><path
         d="m 2847.05,3484.01 h 47.89 v -92.14 h -47.89 v 92.14 0"
         style="fill:#ffffff;fill-opacity:1;fill-rule:evenodd;stroke:none"
         id="path224" /><path
         d="m 2839.43,4509.23 h -70.05 v 64.04 l 70.05,-64.04 v 0"
         style="fill:#ffffff;fill-opacity:1;fill-rule:evenodd;stroke:none"
         id="path226" /><path
         d="m 2839.43,4509.23 h 70.06 v 64.04 l -70.06,-64.04 v 0"
         style="fill:#ffffff;fill-opacity:1;fill-rule:evenodd;stroke:none"
         id="path228" /><path
         d="m 2839.43,4501.3 26.02,-347.93 -25.95,-33.72 -26.08,33.72 26.01,347.93 v 0"
         style="fill:#ffffff;fill-opacity:1;fill-rule:evenodd;stroke:none"
         id="path230" /><path
         d="m 2809.21,4478.99 30.22,30.24 30.23,-30.24 -30.23,-30.22 -30.22,30.22 v 0"
         style="fill:#ffffff;fill-opacity:1;fill-rule:evenodd;stroke:none"
         id="path232" /><path
         d="m 1888.63,2526.72 h -861.29 v 113.42 h 861.29 v -113.42 0"
         style="fill:#ffffff;fill-opacity:1;fill-rule:evenodd;stroke:none"
         id="path234" /><path
         d="m 1786.41,2575.43 -424.48,255.54 57.65,97.68 425.33,-256.04 -58.5,-97.18 v 0"
         style="fill:#ffffff;fill-opacity:1;fill-rule:evenodd;stroke:none"
         id="path236" /><path
         d="m 1317.26,2532.11 199.5,338.05 -97.18,58.49 -200,-338.89 97.68,-57.65 v 0"
         style="fill:#ffffff;fill-opacity:1;fill-rule:evenodd;stroke:none"
         id="path238" /><path
         d="m 2132.07,3139.81 h 0.13 c 11.32,0 22.11,4.59 30.11,12.6 l 68.11,68.1 -9.71,9.71 -68.09,-68.1 c -5.48,-5.47 -12.82,-8.52 -20.55,-8.59 v -13.72 0"
         style="fill:#ffffff;fill-opacity:1;fill-rule:evenodd;stroke:none"
         id="path240" /><path
         d="m 1631.24,3296.37 h -60.13 c -67.28,0 -122.3,-55.04 -122.3,-122.32 v -75.65 h 13.87 v 75.65 c 0,59.63 48.81,108.44 108.43,108.44 h 60.13 c 121.88,0 82.27,-142.83 213.05,-142.83 h 287.78 v 13.88 h -287.78 c -121.26,0 -82.14,142.82 -213.05,142.82 v 0.01 0"
         style="fill:#ffffff;fill-opacity:1;fill-rule:evenodd;stroke:none"
         id="path242" /><path
         d="m 2202.18,3016.7 c -46.86,46.85 -108.29,71.93 -170.02,71.66 l -99.04,-0.45 h -392.06 v -75.7 h 458.92 l 9.97,-169.7 39.27,26.33 v -15.78 h 150.4 c 0,-68.05 0.13,-136.1 0.13,-204.13 0,-80.55 65.78,-146.35 146.34,-146.35 80.55,0 146.35,65.79 146.35,146.35 v 348.61 l -60.88,-60.89 v -287.72 c 0,-46.95 -38.53,-85.46 -85.47,-85.46 -46.94,0 -85.46,38.51 -85.46,85.46 0,79.53 1.13,127.62 1.93,207.6 23.76,66.03 -17.04,116.83 -60.38,160.17 v 0"
         style="fill:#211c1d;fill-opacity:1;fill-rule:evenodd;stroke:none"
         id="path244" /><path
         d="m 2213.15,3005.73 -0.31,0.32 c -60.01,59.94 -158.15,59.99 -218.21,0.04 l -157.95,-157.63 -35.13,-35.24 h -0.17 l -23.02,-22.97 c -60.11,-60 -60.21,-158.27 -0.22,-218.38 v 0 c 60,-60.11 158.28,-60.22 218.39,-0.22 l 216.26,215.84 c 60.07,59.95 60.22,158.12 0.36,218.23 v 0.01 0"
         style="fill:#211c1d;fill-opacity:1;fill-rule:evenodd;stroke:none"
         id="path246" /><path
         d="m 2232,2986.88 -36.56,36.56 c -42.23,42.22 -106.46,49.5 -157.92,19.96 -2.76,-1.91 -4.86,-4.19 -7.34,-6.67 -31.53,-31.52 -31.53,-82.64 0,-114.15 21.88,-21.9 53.22,-28.59 80.89,-20.06 -8.52,-27.67 -1.84,-59.01 20.06,-80.9 31.52,-31.53 82.45,-30.23 114.15,0 2.53,2.4 4.75,4.74 6.73,7.44 29.32,51.69 22.37,115.44 -20.01,157.82 v 0 0"
         style="fill:#ffffff;fill-opacity:1;fill-rule:evenodd;stroke:none"
         id="path248" /><path
         d="m 2125.55,2916.99 v 0 c -5.63,5.63 -14.84,5.63 -20.47,0 l -273,-273.01 c -5.64,-5.63 -5.64,-14.84 0,-20.48 v 0 c 5.63,-5.63 14.84,-5.63 20.47,0 l 273,273.01 c 5.64,5.64 5.63,14.85 0,20.48 v 0 0"
         style="fill:#ffffff;fill-opacity:1;fill-rule:evenodd;stroke:none"
         id="path250" /><path
         d="m 2101.15,2771.79 v 0 c 5.64,5.63 5.64,14.83 0,20.47 l -100.32,100.34 c -5.63,5.62 -14.85,5.62 -20.48,-0.01 v 0.01 c -5.64,-5.64 -5.64,-14.86 0,-20.49 l 100.33,-100.32 c 5.63,-5.64 14.85,-5.64 20.47,-0.01 v 0.01 0"
         style="fill:#ffffff;fill-opacity:1;fill-rule:evenodd;stroke:none"
         id="path252" /><path
         d="m 2035.55,2729.04 v 0 c 5.63,5.63 5.63,14.85 0,20.48 l -77.46,77.47 c -5.63,5.63 -14.85,5.62 -20.48,-0.01 v 0.01 c -5.63,-5.63 -5.63,-14.85 0,-20.49 l 77.46,-77.46 c 5.63,-5.62 14.85,-5.62 20.48,0 v 0 0"
         style="fill:#ffffff;fill-opacity:1;fill-rule:evenodd;stroke:none"
         id="path254" /><path
         d="m 1976.26,2679.99 v 0 c 5.63,5.64 5.63,14.84 0,20.48 l -67.23,67.23 c -5.62,5.63 -14.84,5.63 -20.47,0 v 0 c -5.63,-5.63 -5.63,-14.85 0,-20.48 l 67.24,-67.23 c 5.62,-5.62 14.83,-5.62 20.46,0 v 0 0"
         style="fill:#ffffff;fill-opacity:1;fill-rule:evenodd;stroke:none"
         id="path256" /><path
         d="m 1915.1,2632.82 v 0 c 5.62,5.64 5.62,14.85 0,20.47 l -53.24,53.23 c -5.63,5.64 -14.85,5.64 -20.48,0 v 0 c -5.62,-5.62 -5.62,-14.84 0,-20.47 l 53.24,-53.23 c 5.63,-5.63 14.85,-5.63 20.48,0 v 0 0"
         style="fill:#ffffff;fill-opacity:1;fill-rule:evenodd;stroke:none"
         id="path258" /><path
         d="m 1453.78,3167.22 h -0.01 c -39.21,0 -71.31,-32.09 -71.31,-71.32 v -91.69 c 0,-39.22 32.1,-71.31 71.31,-71.31 h 0.01 c 39.22,0 71.31,32.09 71.31,71.31 v 91.69 c 0,39.23 -32.09,71.32 -71.31,71.32 v 0 0"
         style="fill:#211c1d;fill-opacity:1;fill-rule:evenodd;stroke:none"
         id="path260" /><path
         d="m 2444.16,3038.6 -8.7,8.71 4.35,4.38 c 52.67,52.65 52.67,138.69 0,191.36 -52.67,52.67 -138.71,52.66 -191.37,0 l -4.36,-4.36 -8.71,8.72 4.35,4.36 c 57.48,57.46 151.32,57.46 208.81,0 57.47,-57.48 57.47,-151.33 0,-208.81 l -4.37,-4.36 v 0"
         style="fill:#ffffff;fill-opacity:1;fill-rule:evenodd;stroke:none"
         id="path262" /><path
         d="m 2449.92,3077.72 -5.23,5.24 -76.72,-76.72 5.23,-5.23 c 13.53,-13.54 35.66,-13.54 49.18,-0.01 l 27.54,27.54 c 13.53,13.52 13.53,35.65 0,49.18 v 0 z m -170.21,170.21 -5.23,5.22 c -13.53,13.54 -35.66,13.53 -49.18,0 l -27.54,-27.52 c -13.53,-13.53 -13.53,-35.67 0,-49.19 l 5.24,-5.23 76.71,76.72 v 0"
         style="fill:#211c1d;fill-opacity:1;fill-rule:evenodd;stroke:none"
         id="path264" /><path
         d="m 1453.77,3098.79 c 26.92,0 48.73,-21.83 48.73,-48.74 0,-26.91 -21.82,-48.72 -48.73,-48.72 -26.9,0 -48.72,21.81 -48.72,48.72 0,26.92 21.82,48.73 48.72,48.73 v 0.01 0"
         style="fill:#ffffff;fill-opacity:1;fill-rule:evenodd;stroke:none"
         id="path266" /><path
         d="m 1037.2,2526.72 v 157.69 c 0,52.14 -42.657,94.8 -94.798,94.8 0,-93.42 0,-165.34 0,-252.49 h 94.798 v 0"
         style="fill:#211c1d;fill-opacity:1;fill-rule:evenodd;stroke:none"
         id="path268" /><path
         d="m 1023.88,2526.72 v 113.42 h 55.78 v -113.42 h -55.78 v 0"
         style="fill:#211c1d;fill-opacity:1;fill-rule:evenodd;stroke:none"
         id="path270" /><path
         d="m 1019.37,2585.63 c 0,-15.01 -12.18,-27.2 -27.202,-27.2 -15.027,0 -27.207,12.19 -27.207,27.2 0,15.02 12.18,27.21 27.207,27.21 15.022,0 27.202,-12.19 27.202,-27.21 v 0"
         style="fill:#ffffff;fill-opacity:1;fill-rule:evenodd;stroke:none"
         id="path272" /><path
         d="M 1387.98,2621.51 H 1214.5 c -52.13,0 -94.79,-42.65 -94.79,-94.79 93.41,0 181.12,0 268.27,0 v 94.79 0"
         style="fill:#211c1d;fill-opacity:1;fill-rule:evenodd;stroke:none"
         id="path274" /><path
         d="m 1387.98,2614.78 -161.69,-11.84 30.17,49.32 131.52,-0.28 v -37.2 0"
         style="fill:#211c1d;fill-opacity:1;fill-rule:evenodd;stroke:none"
         id="path276" /><path
         d="m 1322.1,2603.69 c 15.02,0 27.2,-12.19 27.2,-27.21 0,-15.01 -12.18,-27.2 -27.2,-27.2 -15.02,0 -27.2,12.19 -27.2,27.2 0,15.02 12.18,27.21 27.2,27.21 v 0"
         style="fill:#ffffff;fill-opacity:1;fill-rule:evenodd;stroke:none"
         id="path278" /><path
         d="m 2423.85,3226.14 v 0 c 42.93,-42.94 42.93,-113.19 0,-156.13 l -50.5,-50.49 c -42.93,-42.94 -113.19,-42.94 -156.13,0 v 0 c -42.93,42.93 -42.93,113.2 0,156.12 l 50.49,50.5 c 42.94,42.93 113.2,42.93 156.14,0 v 0"
         style="fill:#211c1d;fill-opacity:1;fill-rule:evenodd;stroke:none"
         id="path280" /><path
         d="m 2351.04,3050.11 c -28.51,-28.51 -74.75,-28.52 -103.26,0 -28.51,28.52 -28.51,74.74 0,103.26 l 5.9,5.9 11.8,-11.8 -5.9,-5.9 c -22,-22 -22,-57.66 0,-79.67 22.01,-21.98 57.66,-21.99 79.66,0 l 5.9,5.91 11.79,-11.79 -5.89,-5.91 v 0"
         style="fill:#ffffff;fill-opacity:1;fill-rule:evenodd;stroke:none"
         id="path282" /><path
         d="m 2385.31,3140.3 c -6.61,6.63 -17.34,6.63 -23.97,0 -6.61,-6.61 -6.61,-17.34 0,-23.97 6.63,-6.61 17.36,-6.61 23.97,0 6.63,6.63 6.62,17.36 0,23.97 v 0 0"
         style="fill:#ffffff;fill-opacity:1;fill-rule:evenodd;stroke:none"
         id="path284" /><path
         d="m 2337.98,3187.66 c -6.63,6.61 -17.36,6.61 -23.98,0 -6.62,-6.63 -6.62,-17.37 0,-23.99 6.62,-6.62 17.35,-6.62 23.98,0 6.62,6.63 6.62,17.36 0,23.99 v 0 0"
         style="fill:#ffffff;fill-opacity:1;fill-rule:evenodd;stroke:none"
         id="path286" /><path
         d="m 3040.78,3030.4 v 136.86 h 173.93 V 3030.4 h -173.93 v 0"
         style="fill:#ffffff;fill-opacity:1;fill-rule:evenodd;stroke:none"
         id="path288" /><path
         d="m 3310.24,3219.67 h 706.81 v -45.12 h -683.24 c -4.32,0 -7.86,-3.53 -7.86,-7.86 0,-4.33 3.54,-7.86 7.86,-7.86 h 286.8 v -120.21 c -61.32,0.09 -225.27,0.2 -286.8,0.2 -4.32,0.01 -7.86,-3.53 -7.86,-7.85 0,-4.33 3.54,-7.85 7.86,-7.85 h 87.21 v -45.14 h -110.78 -14.64 c -56.75,0 -103.18,46.43 -103.18,103.17 v 35.35 c 0,56.74 46.43,103.17 103.18,103.17 h 14.64 v 0"
         style="fill:#ffffff;fill-opacity:1;fill-rule:evenodd;stroke:none"
         id="path290" /><path
         d="m 3237.53,3098.82 c 0,14.05 11.39,25.45 25.43,25.45 14.04,0 25.43,-11.4 25.43,-25.45 0,-14.05 -11.39,-25.44 -25.43,-25.44 -14.05,0 -25.43,11.4 -25.43,25.44 v 0 0"
         style="fill:#211c1d;fill-opacity:1;fill-rule:evenodd;stroke:none"
         id="path292" /><path
         d="m 3325.81,3098.82 c 0,14.05 11.39,25.45 25.43,25.45 14.04,0 25.44,-11.4 25.44,-25.45 0,-14.05 -11.4,-25.44 -25.44,-25.44 -14.04,0 -25.43,11.4 -25.43,25.44 v 0 0"
         style="fill:#211c1d;fill-opacity:1;fill-rule:evenodd;stroke:none"
         id="path294" /><path
         d="m 3414.08,3098.82 c 0,14.05 11.4,25.45 25.44,25.45 14.04,0 25.43,-11.4 25.43,-25.45 0,-14.05 -11.39,-25.44 -25.43,-25.44 -14.04,0 -25.44,11.4 -25.44,25.44 v 0 0"
         style="fill:#211c1d;fill-opacity:1;fill-rule:evenodd;stroke:none"
         id="path296" /><path
         d="m 2816.55,3311.41 63.67,-100.4 -118.89,-0.74 107.84,-50.05 -99.62,-64.88 117.78,16.2 -48.73,-108.44 90.33,77.31 17.64,-117.58 25.37,84.52 -15.42,15.41 111.08,111.09 16.72,-16.72 80.81,24.27 -117.57,17.64 77.3,90.32 -108.44,-48.73 16.2,117.78 -64.89,-99.61 -50.04,107.83 -0.73,-118.89 -100.41,63.67 v 0"
         style="fill:#ffffff;fill-opacity:1;fill-rule:evenodd;stroke:none"
         id="path298" /><path
         d="m 2893.04,3234.92 v 0 c -35.17,-35.16 -35.17,-92.7 0,-127.86 l 59.68,-59.7 c 35.17,-35.15 92.71,-35.15 127.89,0 h -0.01 c 35.16,35.17 35.16,92.72 0,127.88 l -59.69,59.68 c -35.17,35.17 -92.71,35.17 -127.87,0 v 0 0"
         style="fill:#211c1d;fill-opacity:1;fill-rule:evenodd;stroke:none"
         id="path300" /><path
         d="m 3088.29,3130.22 c 0.27,11.03 -1.42,22.1 -5.1,32.64 l -13.77,-13.77 18.87,-18.87 z m -12.14,-43.6 c 5.73,9.98 9.42,20.8 11.12,31.89 l -24.22,24.21 -21.5,-21.5 34.6,-34.6 z m -26.47,-29.28 c 4.07,2.93 7.96,6.21 11.62,9.87 3.66,3.67 6.95,7.57 9.86,11.64 l -35.99,35.98 -21.49,-21.49 36,-36 z m -39.66,-16.09 c 11.07,1.68 21.89,5.38 31.88,11.1 l -34.61,34.61 -21.49,-21.49 24.22,-24.22 z m -44.37,4.06 c 10.54,-3.66 21.61,-5.36 32.64,-5.09 l -18.87,18.86 -13.77,-13.77 v 0"
         style="fill:#ffffff;fill-opacity:1;fill-rule:evenodd;stroke:none"
         id="path302" /><path
         d="m 2953.42,3157.11 h 53.97 c 29.69,0 53.97,24.29 53.98,53.96 v 53.99 l -53.98,-0.01 c -29.68,0 -53.97,-24.28 -53.97,-53.97 v -53.97 0"
         style="fill:#ffffff;fill-opacity:1;fill-rule:evenodd;stroke:none"
         id="path304" /><path
         d="m 2970.86,3174.55 v 36.53 c 0,20.06 16.47,36.55 36.53,36.54 l 36.54,0.01 v -36.55 c 0,-20.05 -16.48,-36.54 -36.54,-36.54 l -36.53,0.01 v 0"
         style="fill:#211c1d;fill-opacity:1;fill-rule:evenodd;stroke:none"
         id="path306" /><path
         d="m 2970.86,3174.55 -53.98,-0.01 c -29.68,0 -53.97,-24.29 -53.98,-53.97 v -53.97 h 53.98 c 29.68,0 53.98,24.28 53.98,53.97 v 53.98 0"
         style="fill:#ffffff;fill-opacity:1;fill-rule:evenodd;stroke:none"
         id="path308" /><path
         d="m 2880.35,3084.03 -0.01,36.54 c 0.01,20.06 16.48,36.54 36.54,36.53 l 36.54,0.01 v -36.54 c 0,-20.07 -16.48,-36.54 -36.54,-36.54 h -36.53 v 0"
         style="fill:#211c1d;fill-opacity:1;fill-rule:evenodd;stroke:none"
         id="path310" /><path
         d="m 3814.45,2680.51 v 341.21 c 0,75.41 -61.71,137.11 -137.11,137.11 h -56.73 v -120.8 h 28.58 c 8.72,0 16.3,-7.58 16.3,-16.31 v -512.34 h 62.14 v 425.87 c 0,6.77 5.53,12.3 12.29,12.3 v 0 c 6.77,0 12.3,-5.53 12.3,-12.3 v -254.74 h 62.23 v 0"
         style="fill:#211c1d;fill-opacity:1;fill-rule:evenodd;stroke:none"
         id="path312" /><path
         d="m 3665.49,2884.04 v -895.96 h 62.14 v 895.96 h -62.14 v 0"
         style="fill:#211c1d;fill-opacity:1;fill-rule:evenodd;stroke:none"
         id="path314" /><path
         d="m 3597.14,2873.35 v 0 c 0,-82.36 -67.39,-149.76 -149.76,-149.76 h -449 v 45.14 h 449 c 57.45,0 104.63,47.17 104.63,104.62 0,57.46 -47.18,104.63 -104.63,104.63 h -95.08 v 45.14 h 95.08 c 82.37,0 149.76,-67.4 149.76,-149.77 v 0"
         style="fill:#ffffff;fill-opacity:1;fill-rule:evenodd;stroke:none"
         id="path316" /><path
         d="m 3752.22,2692.5 v -64.65 c 0,-51.95 42.41,-94.35 94.35,-94.35 h 396.98 v 62.22 h -396.98 c -17.6,0 -32.12,14.53 -32.12,32.13 v 64.65 h -62.23 v 0"
         style="fill:#211c1d;fill-opacity:1;fill-rule:evenodd;stroke:none"
         id="path318" /><path
         d="m 4278.59,2567.01 v 5.88 h 65.4 v -5.88 h -65.4 v 0"
         style="fill:#d3d4d3;fill-opacity:1;fill-rule:evenodd;stroke:none"
         id="path320" /><path
         d="m 4366.96,2538.3 -28.71,28.71 28.71,28.71 z"
         style="fill:#79665b;fill-opacity:1;fill-rule:evenodd;stroke:none"
         id="path322" /><path
         d="m 4170.46,2595.72 v -98.25 c 0,-54.04 44.21,-98.26 98.25,-98.26 h 38.2 v -71.26 c 0,-19.65 16.09,-35.74 35.76,-35.74 h 24.29 v 107 69.08 h -92.41 c -17.12,0 -31.13,14.01 -31.13,31.12 v 0 c 0,17.12 14.01,31.14 31.13,31.14 h 92.41 v 65.17 h -196.5 v 0"
         style="fill:#ffffff;fill-opacity:1;fill-rule:evenodd;stroke:none"
         id="path324" /><path
         d="m 4206.95,2395.78 25.29,43.77 c 1.96,3.42 6.35,4.6 9.77,2.63 v 0 c 3.4,-1.97 4.58,-6.37 2.62,-9.78 l -25.28,-43.78 c -1.97,-3.4 -6.36,-4.59 -9.78,-2.61 v 0 c -3.4,1.96 -4.58,6.35 -2.62,9.77 v 0 0"
         style="fill:#211c1d;fill-opacity:1;fill-rule:evenodd;stroke:none"
         id="path326" /><path
         d="m 4240.31,2395.78 25.29,43.77 c 1.96,3.42 6.35,4.6 9.76,2.63 v 0 c 3.41,-1.97 4.59,-6.37 2.62,-9.78 l -25.27,-43.78 c -1.97,-3.4 -6.38,-4.59 -9.78,-2.61 v 0 c -3.4,1.96 -4.59,6.35 -2.62,9.77 v 0 0"
         style="fill:#211c1d;fill-opacity:1;fill-rule:evenodd;stroke:none"
         id="path328" /><path
         d="m 4273.66,2395.78 25.29,43.77 c 1.96,3.42 6.36,4.6 9.77,2.63 v 0 c 3.41,-1.97 4.58,-6.37 2.62,-9.78 l -25.28,-43.78 c -1.97,-3.4 -6.36,-4.59 -9.77,-2.61 v 0 c -3.41,1.96 -4.59,6.35 -2.63,9.77 v 0 0"
         style="fill:#211c1d;fill-opacity:1;fill-rule:evenodd;stroke:none"
         id="path330" /><path
         d="m 4278.59,2567.01 v 5.88 h 65.4 v -5.88 h -65.4 v 0"
         style="fill:#211c1d;fill-opacity:1;fill-rule:evenodd;stroke:none"
         id="path332" /><path
         d="m 4366.96,2538.3 -28.71,28.71 28.71,28.71 z"
         style="fill:#211c1d;fill-opacity:1;fill-rule:evenodd;stroke:none"
         id="path334" /><path
         d="m 3698.92,1879.94 h 5.87 v -65.4 h -5.87 v 65.4 0"
         style="fill:#d3d4d3;fill-opacity:1;fill-rule:evenodd;stroke:none"
         id="path336" /><path
         d="m 3671.92,1793.29 27,26.99 27,-26.99 h -54 v 0"
         style="fill:#79665b;fill-opacity:1;fill-rule:evenodd;stroke:none"
         id="path338" /><path
         d="m 3727.63,1988.08 h -98.25 c -54.05,0 -98.27,-44.22 -98.27,-98.26 v -38.19 h -71.26 c -19.65,0 -35.74,-16.09 -35.74,-35.75 v -22.59 h 176.09 v 90.69 c 0,17.12 14,31.14 31.12,31.14 v 0 c 17.12,0 31.13,-14.02 31.13,-31.14 v -90.69 h 65.18 v 194.79 0"
         style="fill:#ffffff;fill-opacity:1;fill-rule:evenodd;stroke:none"
         id="path340" /><path
         d="m 3527.69,1951.58 43.77,-25.28 c 3.41,-1.96 4.58,-6.36 2.62,-9.78 v 0 c -1.97,-3.4 -6.37,-4.58 -9.77,-2.61 l -43.78,25.28 c -3.41,1.96 -4.59,6.37 -2.62,9.78 v 0 c 1.96,3.4 6.37,4.58 9.78,2.61 v 0 0"
         style="fill:#211c1d;fill-opacity:1;fill-rule:evenodd;stroke:none"
         id="path342" /><path
         d="m 3527.69,1918.22 43.77,-25.27 c 3.41,-1.97 4.58,-6.37 2.62,-9.78 v 0 c -1.97,-3.4 -6.37,-4.59 -9.77,-2.61 l -43.78,25.27 c -3.41,1.97 -4.59,6.37 -2.62,9.78 v 0 c 1.96,3.4 6.37,4.58 9.78,2.61 v 0 0"
         style="fill:#211c1d;fill-opacity:1;fill-rule:evenodd;stroke:none"
         id="path344" /><path
         d="m 3527.69,1884.87 43.77,-25.28 c 3.41,-1.97 4.58,-6.37 2.62,-9.78 v 0 c -1.97,-3.4 -6.37,-4.58 -9.77,-2.61 l -43.78,25.27 c -3.41,1.97 -4.59,6.38 -2.62,9.78 v 0 c 1.96,3.4 6.37,4.59 9.78,2.62 v 0 0"
         style="fill:#211c1d;fill-opacity:1;fill-rule:evenodd;stroke:none"
         id="path346" /><path
         d="m 3698.92,1879.94 h 5.87 v -65.4 h -5.87 v 65.4 0"
         style="fill:#211c1d;fill-opacity:1;fill-rule:evenodd;stroke:none"
         id="path348" /><path
         d="m 3671.92,1793.29 27,26.99 27,-26.99 h -54 v 0"
         style="fill:#211c1d;fill-opacity:1;fill-rule:evenodd;stroke:none"
         id="path350" /><path
         d="m 4031.32,3123.8 c -35.34,0.29 -59.83,23.7 -67.17,51.57 -14.04,47.47 11.86,97.98 59.16,114.01 38.31,12.96 80.61,-0.56 104.36,-32.82 l -6.32,-2.14 c -7.6,-2.1 -14.15,-2.12 -20.09,-0.81 -10.14,2.26 -13.68,6.47 -23.15,10.29 -11.64,4.67 -24.59,6.14 -37.49,3.7 -8.6,-1.25 -15.21,-8.66 -15.21,-17.62 0,-9.63 7.65,-17.46 17.2,-17.78 v -0.01 h 0.61 207.22 c 6.31,0 11.47,-5.17 11.47,-11.49 0,-6.31 -5.16,-11.47 -11.47,-11.47 H 4069.9 v -5.53 h 62.78 c 6.31,0 11.48,-5.16 11.48,-11.47 0,-6.31 -5.17,-11.48 -11.48,-11.48 h -62.78 v -5.53 h 58.92 c 6.31,0 11.47,-5.16 11.47,-11.47 0,-6.32 -5.16,-11.47 -11.47,-11.47 h -58.92 v -5.53 h 58.92 c 6.31,0 11.47,-5.17 11.47,-11.48 v -0.01 c 0,-6.3 -5.16,-11.46 -11.47,-11.46 -59.8,0 -37.72,-0.51 -97.5,0 v 0"
         style="fill:#211c1d;fill-opacity:1;fill-rule:evenodd;stroke:none"
         id="path352" /><path
         d="m 3665.49,2566.47 v -578.39 h 62.14 v 578.39 h -62.14 v 0"
         style="fill:#211c1d;fill-opacity:1;fill-rule:evenodd;stroke:none"
         id="path354" /><path
         d="m 2945.11,2826.91 h -59.28 c -4.93,0 -8.97,-4.04 -8.97,-8.97 0,-4.94 4.04,-8.98 8.97,-8.98 h 59.28 c 4.93,0 8.97,-4.04 8.97,-8.97 0,-4.94 -4.04,-8.97 -8.97,-8.97 h -167.03 c -4.95,0 -8.98,-4.05 -8.98,-8.99 0,-4.93 4.03,-8.96 8.98,-8.96 h 167.16 c 4.94,0 8.98,-4.05 8.98,-8.98 0,-4.93 -4.04,-8.97 -8.98,-8.97 h -167.57 c -4.94,0 -8.97,-4.04 -8.97,-8.98 0,-4.93 4.03,-8.97 8.97,-8.97 h 167.44 c 4.93,0 8.97,-4.04 8.97,-8.98 0,-4.94 -4.04,-8.97 -8.97,-8.97 h -167.03 c -4.95,0 -8.98,-4.04 -8.98,-8.98 0,-4.93 4.03,-8.97 8.98,-8.97 h 167.16 c 4.94,0 8.98,-4.03 8.98,-8.97 0,-4.94 -4.04,-8.97 -8.98,-8.97 h -167.16 c -4.95,0 -8.98,-4.04 -8.98,-8.97 0,-4.95 4.03,-8.98 8.98,-8.98 0.01,0 167.07,0 167.09,0 44.4,0.03 80.72,36.37 80.72,80.78 0,44.44 -36.36,80.75 -80.78,80.75 v 0"
         style="fill:#211c1d;fill-opacity:1;fill-rule:evenodd;stroke:none"
         id="path356" /><path
         d="m 1426.43,2159.75 v -122.06 h 156.93 c 35.99,0 65.43,29.44 65.43,65.43 v 56.63 h -222.36 v 0"
         style="fill:#ffffff;fill-opacity:1;fill-rule:evenodd;stroke:none"
         id="path358" /><path
         d="m 1721.33,2249.55 h -207.16 v 50.59 c 0,49.96 40.88,90.85 90.84,90.85 h 25.48 c 49.96,0 90.84,-40.89 90.84,-90.85 v -50.59 0"
         style="fill:#211c1d;fill-opacity:1;fill-rule:evenodd;stroke:none"
         id="path360" /><path
         d="m 1617.75,2319.61 v 0 c -49.51,0 -90.01,-40.51 -90.01,-90.02 v -66.23 c 0,-49.5 40.5,-90.01 90.01,-90.01 v 0 c 49.51,0 90.01,40.51 90.01,90.01 v 66.23 c 0,49.51 -40.5,90.02 -90.01,90.02 v 0 0"
         style="fill:#ffffff;fill-opacity:1;fill-rule:evenodd;stroke:none"
         id="path362" /><path
         d="m 1570.89,2146.8 v -70.93 c 0,-25.47 20.84,-46.31 46.31,-46.31 h 1.11 c 25.46,0 46.3,20.84 46.3,46.31 v 70.93 c -5.43,-20.72 -24.22,-36.03 -46.64,-36.13 -22.57,-0.09 -41.61,15.26 -47.08,36.13 v 0 0"
         style="fill:#211c1d;fill-opacity:1;fill-rule:evenodd;stroke:none"
         id="path364" /><path
         d="m 1664.61,2146.8 c -5.42,-20.7 -24.22,-36.03 -46.64,-36.13 -22.57,-0.09 -41.61,15.26 -47.08,36.13 h 11.58 c 5.1,-14.64 19.07,-25.12 35.45,-25.05 16.27,0.07 30.06,10.52 35.13,25.05 h 11.56 v 0"
         style="fill:#d3d4d3;fill-opacity:1;fill-rule:evenodd;stroke:none"
         id="path366" /><path
         d="m 1580.09,2259.13 h -61.03 v -37.66 c 0,-20.71 16.95,-37.66 37.66,-37.66 h 23.37 c 20.71,0 37.66,16.95 37.66,37.66 v 0 c 0,20.72 -16.95,37.66 -37.66,37.66 v 0 0"
         style="fill:#d3d4d3;fill-opacity:1;fill-rule:evenodd;stroke:none"
         id="path368" /><path
         d="m 1533.66,2244.55 h 46.43 c 12.66,0 23.07,-10.41 23.07,-23.08 0,-12.65 -10.42,-23.06 -23.07,-23.06 h -23.37 c -12.66,0 -23.06,10.41 -23.06,23.06 v 23.08 0"
         style="fill:#211c1d;fill-opacity:1;fill-rule:evenodd;stroke:none"
         id="path370" /><path
         d="m 1484.05,2259.13 h 76.89 v -14.58 h -76.89 v 14.58 0"
         style="fill:#d3d4d3;fill-opacity:1;fill-rule:evenodd;stroke:none"
         id="path372" /><path
         d="m 1481.04,2259.13 h 4.38 v -14.59 h -4.38 c -12.66,0 -23.07,-10.4 -23.07,-23.07 0,-12.65 10.41,-23.06 23.07,-23.06 h 4.38 c 4.04,0 7.3,-3.26 7.3,-7.3 0,-4.03 -3.26,-7.3 -7.3,-7.3 v 0 h -4.38 c -20.72,0 -37.66,16.95 -37.66,37.66 v 0 c 0,20.72 16.94,37.66 37.66,37.66 v 0 0"
         style="fill:#d3d4d3;fill-opacity:1;fill-rule:evenodd;stroke:none"
         id="path374" /><path
         d="m 1655.42,2259.13 h 61.03 v -37.66 c 0,-20.71 -16.95,-37.66 -37.67,-37.66 h -23.36 c -20.72,0 -37.67,16.95 -37.67,37.66 v 0 c 0,20.72 16.95,37.66 37.67,37.66 v 0 0"
         style="fill:#d3d4d3;fill-opacity:1;fill-rule:evenodd;stroke:none"
         id="path376" /><path
         d="m 1701.85,2244.55 h -46.43 c -12.67,0 -23.08,-10.41 -23.08,-23.08 0,-12.65 10.41,-23.06 23.08,-23.06 h 23.36 c 12.66,0 23.07,10.41 23.07,23.06 v 23.08 0"
         style="fill:#211c1d;fill-opacity:1;fill-rule:evenodd;stroke:none"
         id="path378" /><path
         d="m 1751.46,2259.13 h -76.89 v -14.58 h 76.89 v 14.58 0"
         style="fill:#d3d4d3;fill-opacity:1;fill-rule:evenodd;stroke:none"
         id="path380" /><path
         d="m 1754.46,2259.13 h -4.38 v -14.59 h 4.38 c 12.66,0 23.07,-10.4 23.07,-23.07 0,-12.65 -10.41,-23.06 -23.07,-23.06 h -4.38 c -4.03,0 -7.3,-3.26 -7.3,-7.3 0,-4.03 3.27,-7.3 7.3,-7.3 v 0 h 4.38 c 20.72,0 37.67,16.95 37.67,37.66 v 0 c 0,20.72 -16.95,37.66 -37.67,37.66 v 0 0"
         style="fill:#d3d4d3;fill-opacity:1;fill-rule:evenodd;stroke:none"
         id="path382" /><path
         d="m 1905.67,2408.38 v -430.01 c 0,-0.33 -0.01,-0.66 -0.02,-0.99 v 0 c -0.01,-0.33 -0.02,-0.65 -0.03,-0.97 v 0 c -0.02,-0.34 -0.04,-0.66 -0.06,-0.97 v 0 c -0.03,-0.33 -0.06,-0.65 -0.09,-0.98 v 0 c -0.04,-0.32 -0.07,-0.63 -0.11,-0.95 v 0 c -0.04,-0.32 -0.09,-0.64 -0.14,-0.96 v 0 c -0.04,-0.31 -0.1,-0.63 -0.15,-0.95 v 0 c -0.06,-0.3 -0.12,-0.61 -0.19,-0.93 v 0 c -0.06,-0.31 -0.12,-0.62 -0.19,-0.92 h -0.01 c -0.07,-0.32 -0.14,-0.62 -0.22,-0.92 v 0 c -0.08,-0.31 -0.16,-0.62 -0.25,-0.92 v 0 c -0.09,-0.3 -0.18,-0.6 -0.27,-0.9 v 0 c -0.09,-0.3 -0.19,-0.59 -0.29,-0.9 v 0 c -0.11,-0.29 -0.21,-0.58 -0.32,-0.88 v 0 c -0.1,-0.29 -0.22,-0.58 -0.33,-0.86 v 0 c -0.12,-0.3 -0.23,-0.59 -0.35,-0.87 v 0 c -0.13,-0.29 -0.25,-0.57 -0.38,-0.86 v 0 c -0.13,-0.28 -0.26,-0.56 -0.39,-0.84 v 0 c -0.14,-0.28 -0.28,-0.56 -0.42,-0.83 v 0 c -0.14,-0.28 -0.29,-0.55 -0.43,-0.82 v 0 c -0.15,-0.28 -0.3,-0.54 -0.45,-0.81 h -0.01 c -0.15,-0.27 -0.31,-0.53 -0.47,-0.79 v 0 c -0.16,-0.27 -0.32,-0.53 -0.49,-0.79 v 0 c -0.17,-0.26 -0.34,-0.51 -0.51,-0.77 v 0 c -0.17,-0.25 -0.35,-0.52 -0.53,-0.76 v 0 c -0.17,-0.25 -0.36,-0.5 -0.54,-0.74 v 0 c -0.18,-0.25 -0.37,-0.49 -0.56,-0.73 v 0 c -0.19,-0.25 -0.38,-0.48 -0.58,-0.73 v 0 c -0.2,-0.22 -0.4,-0.47 -0.59,-0.7 v 0 c -0.21,-0.22 -0.41,-0.46 -0.62,-0.68 v 0 c -0.2,-0.23 -0.41,-0.46 -0.62,-0.68 v 0 c -0.22,-0.22 -0.43,-0.44 -0.65,-0.65 v 0 c -0.21,-0.22 -0.43,-0.44 -0.66,-0.65 v 0 c -0.21,-0.21 -0.44,-0.42 -0.67,-0.63 v 0 c -0.23,-0.2 -0.45,-0.41 -0.69,-0.61 v 0 c -0.23,-0.2 -0.46,-0.4 -0.7,-0.59 v 0 c -0.23,-0.2 -0.47,-0.39 -0.72,-0.58 v 0 c -0.24,-0.18 -0.48,-0.38 -0.73,-0.56 v 0 c -0.24,-0.19 -0.49,-0.38 -0.74,-0.54 v 0 c -0.25,-0.19 -0.51,-0.36 -0.76,-0.54 v 0 c -0.25,-0.16 -0.51,-0.33 -0.77,-0.5 v 0 c -0.26,-0.17 -0.52,-0.34 -0.78,-0.49 v 0 c -0.27,-0.17 -0.53,-0.32 -0.8,-0.47 v 0 c -0.27,-0.16 -0.54,-0.31 -0.81,-0.46 v 0 c -0.27,-0.14 -0.55,-0.3 -0.82,-0.43 v 0 c -0.27,-0.14 -0.55,-0.29 -0.83,-0.41 v 0 c -0.28,-0.14 -0.56,-0.28 -0.84,-0.4 v 0 c -0.28,-0.13 -0.57,-0.26 -0.86,-0.38 v 0 c -0.28,-0.12 -0.57,-0.24 -0.86,-0.36 v 0 c -0.29,-0.1 -0.58,-0.22 -0.87,-0.33 h -0.01 c -0.29,-0.1 -0.58,-0.21 -0.88,-0.3 v 0 c -0.29,-0.11 -0.59,-0.21 -0.89,-0.29 v 0 c -0.3,-0.1 -0.6,-0.19 -0.9,-0.28 v 0 c -0.31,-0.09 -0.61,-0.17 -0.92,-0.24 v 0 c -0.3,-0.09 -0.61,-0.17 -0.92,-0.23 v 0 c -0.3,-0.08 -0.61,-0.14 -0.92,-0.2 v 0 c -0.32,-0.08 -0.63,-0.13 -0.94,-0.19 v 0 c -0.32,-0.05 -0.63,-0.1 -0.95,-0.16 v 0 c -0.31,-0.05 -0.63,-0.09 -0.95,-0.13 v 0 c -0.32,-0.04 -0.64,-0.08 -0.96,-0.12 v 0 c -0.32,-0.03 -0.64,-0.05 -0.96,-0.07 h -0.01 c -0.32,-0.03 -0.64,-0.05 -0.97,-0.06 v 0 c -0.32,-0.02 -0.65,-0.03 -0.98,-0.05 v 0 c -0.32,0 -0.65,-0.01 -0.98,-0.01 v 0 h -513.05 v 76.62 h 474.74 v 391.7 c 0,21.07 17.24,38.31 38.31,38.31 v 0 c 21.07,0 38.31,-17.24 38.31,-38.31 v 0"
         style="fill:#ffffff;fill-opacity:1;fill-rule:evenodd;stroke:none"
         id="path384" /><path
         d="m 866.332,2251.2 h 483.478 v -225.23 c 0,-21.07 17.24,-38.3 38.31,-38.3 v 0 c 21.07,0 38.31,17.23 38.31,38.3 v 263.53 0 c 0,0.33 -0.01,0.67 -0.02,0.99 v 0 c 0,0.33 -0.01,0.65 -0.04,0.98 v 0 c -0.01,0.33 -0.03,0.65 -0.06,0.97 v 0 c -0.02,0.32 -0.05,0.65 -0.08,0.97 v 0 c -0.03,0.31 -0.07,0.63 -0.11,0.96 v 0 c -0.05,0.32 -0.09,0.64 -0.13,0.95 h -0.01 c -0.05,0.31 -0.1,0.64 -0.15,0.94 v 0 c -0.06,0.32 -0.12,0.62 -0.18,0.95 v 0 c -0.07,0.3 -0.14,0.61 -0.21,0.92 v 0 c -0.07,0.31 -0.15,0.61 -0.23,0.92 v 0 c -0.07,0.31 -0.16,0.61 -0.24,0.91 v 0 c -0.09,0.3 -0.18,0.61 -0.27,0.9 v 0 c -0.1,0.3 -0.19,0.6 -0.3,0.9 v 0 c -0.1,0.29 -0.2,0.58 -0.31,0.89 v 0 c -0.11,0.29 -0.22,0.58 -0.33,0.87 v 0 c -0.11,0.29 -0.23,0.58 -0.36,0.86 v 0 c -0.12,0.29 -0.24,0.57 -0.37,0.84 v 0 c -0.12,0.3 -0.26,0.57 -0.4,0.85 v 0 c -0.13,0.29 -0.27,0.56 -0.41,0.84 v 0 c -0.14,0.28 -0.29,0.55 -0.43,0.81 v 0 c -0.15,0.28 -0.31,0.55 -0.46,0.82 v 0 c -0.15,0.26 -0.3,0.52 -0.47,0.79 v 0 c -0.16,0.27 -0.32,0.52 -0.49,0.79 v 0 c -0.17,0.25 -0.34,0.51 -0.51,0.77 v 0 c -0.17,0.25 -0.35,0.51 -0.52,0.75 v 0 c -0.18,0.25 -0.37,0.51 -0.55,0.74 v 0 c -0.18,0.26 -0.37,0.5 -0.56,0.74 v 0 c -0.19,0.24 -0.38,0.48 -0.58,0.72 v 0 c -0.19,0.23 -0.39,0.47 -0.59,0.7 v 0 c -0.2,0.23 -0.41,0.46 -0.61,0.68 h -0.01 c -0.2,0.23 -0.41,0.46 -0.62,0.68 v 0 c -0.22,0.22 -0.43,0.44 -0.64,0.66 v 0 c -0.22,0.22 -0.44,0.43 -0.66,0.65 v 0 c -0.23,0.2 -0.45,0.41 -0.68,0.62 v 0 c -0.22,0.21 -0.45,0.41 -0.69,0.62 v 0 c -0.23,0.19 -0.46,0.4 -0.7,0.59 v 0 c -0.24,0.19 -0.48,0.38 -0.72,0.58 v 0 c -0.24,0.18 -0.48,0.37 -0.73,0.56 v 0 c -0.24,0.17 -0.49,0.36 -0.74,0.54 v 0 c -0.25,0.19 -0.5,0.35 -0.76,0.53 v 0 c -0.26,0.18 -0.52,0.34 -0.77,0.51 v 0 c -0.26,0.16 -0.52,0.33 -0.79,0.49 v 0 c -0.26,0.15 -0.52,0.32 -0.79,0.47 h -0.01 c -0.26,0.15 -0.53,0.31 -0.8,0.45 v 0 c -0.27,0.15 -0.54,0.3 -0.82,0.43 v 0 c -0.28,0.15 -0.55,0.29 -0.83,0.42 v 0 c -0.28,0.14 -0.56,0.27 -0.84,0.39 v 0 c -0.29,0.13 -0.57,0.26 -0.86,0.39 v 0 c -0.28,0.11 -0.57,0.23 -0.86,0.35 v 0 c -0.29,0.11 -0.58,0.22 -0.88,0.33 v 0 c -0.29,0.11 -0.58,0.21 -0.87,0.31 v 0 c -0.3,0.11 -0.6,0.2 -0.91,0.29 v 0 c -0.29,0.1 -0.59,0.19 -0.9,0.28 v 0 c -0.3,0.09 -0.6,0.16 -0.9,0.24 v 0 c -0.31,0.08 -0.62,0.16 -0.93,0.23 v 0 c -0.3,0.06 -0.61,0.13 -0.92,0.2 v 0 c -0.32,0.07 -0.63,0.13 -0.94,0.19 v 0 c -0.31,0.05 -0.63,0.1 -0.95,0.15 v 0 c -0.32,0.05 -0.63,0.09 -0.95,0.14 v 0 c -0.32,0.03 -0.64,0.08 -0.96,0.11 v 0 c -0.32,0.03 -0.64,0.06 -0.97,0.08 v 0 c -0.32,0.02 -0.64,0.04 -0.97,0.06 v 0 c -0.32,0.02 -0.65,0.03 -0.97,0.04 v 0 c -0.33,0.01 -0.66,0.01 -0.99,0.01 v 0 H 866.332 v 0 c -21.152,0 -38.305,-17.15 -38.305,-38.31 0,-21.15 17.153,-38.3 38.305,-38.3 v 0"
         style="fill:#ffffff;fill-opacity:1;fill-rule:evenodd;stroke:none"
         id="path386" /><path
         d="M 1426.43,2181.64 H 754.199 v -241.58 h 672.231 v 241.58 0"
         style="fill:#211c1d;fill-opacity:1;fill-rule:evenodd;stroke:none"
         id="path388" /><path
         d="m 1426.43,2019.54 v 155.24 c -33.49,-9.93 -57.91,-40.92 -57.91,-77.62 0,-36.7 24.42,-67.69 57.91,-77.62 v 0"
         style="fill:#ffffff;fill-opacity:1;fill-rule:evenodd;stroke:none"
         id="path390" /><path
         d="m 1572.8,2016.68 h -146.37 v -76.69 h 146.37 v 76.69 0"
         style="fill:#211c1d;fill-opacity:1;fill-rule:evenodd;stroke:none"
         id="path392" /><path
         d="m 1349.81,2239.26 h 76.62 v -57.62 h -76.62 v 57.62 0"
         style="fill:#211c1d;fill-opacity:1;fill-rule:evenodd;stroke:none"
         id="path394" /><path
         d="m 942.402,2327.81 h 74.988 v -76.61 h -74.988 v 76.61 0"
         style="fill:#211c1d;fill-opacity:1;fill-rule:evenodd;stroke:none"
         id="path396" /><path
         d="m 754.199,579.691 h 166.793 c 55.141,0 100.258,-45.121 100.258,-100.269 -98.793,0 -174.871,0 -267.051,0 v 100.269 0"
         style="fill:#211c1d;fill-opacity:1;fill-rule:evenodd;stroke:none"
         id="path398" /><path
         d="m 754.199,565.609 h 74.719 v 78.7 h -74.719 v -78.7 0"
         style="fill:#211c1d;fill-opacity:1;fill-rule:evenodd;stroke:none"
         id="path400" /><path
         d="m 816.516,560.828 c -15.891,0 -28.778,-12.867 -28.778,-28.769 0,-15.887 12.887,-28.778 28.778,-28.778 15.89,0 28.773,12.891 28.773,28.778 0,15.902 -12.883,28.769 -28.773,28.769 v 0"
         style="fill:#ffffff;fill-opacity:1;fill-rule:evenodd;stroke:none"
         id="path402" /><path
         d="M 754.199,1940.06 V 644.309 H 933.328 V 1940.06 H 754.199 v 0"
         style="fill:#ffffff;fill-opacity:1;fill-rule:evenodd;stroke:none"
         id="path404" /><path
         d="m 470.797,1345.58 v -176.85 c 0,-58.47 -47.836,-106.31 -106.305,-106.31 0,104.76 0,185.42 0,283.16 h 106.305 v 0"
         style="fill:#211c1d;fill-opacity:1;fill-rule:evenodd;stroke:none"
         id="path406" /><path
         d="m 455.867,1345.58 v -79.22 h 83.449 v 79.22 h -83.449 v 0"
         style="fill:#211c1d;fill-opacity:1;fill-rule:evenodd;stroke:none"
         id="path408" /><path
         d="m 450.813,1279.51 c 0,16.85 -13.661,30.5 -30.516,30.5 -16.844,0 -30.5,-13.65 -30.5,-30.5 0,-16.85 13.656,-30.51 30.5,-30.51 16.855,0 30.516,13.66 30.516,30.51 v 0"
         style="fill:#ffffff;fill-opacity:1;fill-rule:evenodd;stroke:none"
         id="path410" /><path
         d="M 933.336,1367.38 V 1197.69 H 537.895 v 169.69 h 395.441 v 0"
         style="fill:#ffffff;fill-opacity:1;fill-rule:evenodd;stroke:none"
         id="path412" /><path
         d="m 874.707,1847.97 h 17.523 v -101.99 h -17.523 v 101.99 0"
         style="fill:#211c1d;fill-opacity:1;fill-rule:evenodd;stroke:none"
         id="path414" /><path
         d="M 874.707,1646.79 H 892.23 V 1544.8 h -17.523 v 101.99 0"
         style="fill:#211c1d;fill-opacity:1;fill-rule:evenodd;stroke:none"
         id="path416" /><path
         d="m 874.707,1445.6 h 17.523 v -101.99 h -17.523 v 101.99 0"
         style="fill:#211c1d;fill-opacity:1;fill-rule:evenodd;stroke:none"
         id="path418" /><path
         d="m 874.707,1244.41 h 17.523 v -101.98 h -17.523 v 101.98 0"
         style="fill:#211c1d;fill-opacity:1;fill-rule:evenodd;stroke:none"
         id="path420" /><path
         d="M 874.707,1043.23 H 892.23 V 941.25 h -17.523 v 101.98 0"
         style="fill:#211c1d;fill-opacity:1;fill-rule:evenodd;stroke:none"
         id="path422" /><path
         d="M 874.707,842.059 H 892.23 V 740.078 h -17.523 v 101.981 0"
         style="fill:#211c1d;fill-opacity:1;fill-rule:evenodd;stroke:none"
         id="path424" /><path
         d="m 1433.08,3374.05 h 611.62 v 84.85 h -490.83 c -9.26,0 -16.83,7.57 -16.83,16.82 v 0 c 0,9.26 7.57,16.83 16.83,16.83 h 490.83 v 84.84 h -528.16 -83.46 v -203.34 0"
         style="fill:#211c1d;fill-opacity:1;fill-rule:evenodd;stroke:none"
         id="path426" /><path
         d="m 2020.21,3458.9 v -84.85 h 33.06 v -58.43 c 0,-14.55 11.9,-26.44 26.43,-26.44 v 0 c 14.54,0 26.44,11.89 26.44,26.44 v 143.28 h -26.44 -26.43 -33.06 z m 0,118.49 v -84.84 h 85.93 v 139.95 c 0,14.53 -11.9,26.44 -26.44,26.44 v 0 c -14.53,0 -26.43,-11.91 -26.43,-26.44 v -55.11 h -33.06 v 0"
         style="fill:#ffffff;fill-opacity:1;fill-rule:evenodd;stroke:none"
         id="path428" /><path
         d="m 1203.2,3950.1 c -45.58,-36.78 -75.23,-92.6 -76.54,-155.08 -0.02,-1.15 -0.03,-2.3 -0.04,-3.45 0,-0.29 0,-0.57 0,-0.86 v -431.36 h 76.47 v 391.42 c 0,7.34 5.99,13.33 13.32,13.33 v 0 c 7.33,0 13.32,-5.99 13.32,-13.33 v -296.59 -80.13 h 203.35 v 80.13 296.59 217.89 c -30.01,17.3 -64.74,27.21 -101.67,27.21 v 0 c -48.43,0 -93.06,-17.04 -128.21,-45.41 v -0.36 0"
         style="fill:#ffffff;fill-opacity:1;fill-rule:evenodd;stroke:none"
         id="path430" /><path
         d="m 1331.41,3995.87 h 576.54 v -76.48 h -576.54 v 76.48 0"
         style="fill:#ffffff;fill-opacity:1;fill-rule:evenodd;stroke:none"
         id="path432" /><path
         d="m 1536.17,3919.39 v -0.31 c -54.88,-4.08 -98.7,-47.9 -102.78,-102.78 h -0.31 v 103.09 h 103.09 v 0"
         style="fill:#ffffff;fill-opacity:1;fill-rule:evenodd;stroke:none"
         id="path434" /><path
         d="m 1262.76,3949.66 v 122.32 h 153.21 v -122.32 h -153.21 v 0"
         style="fill:#c9781b;fill-opacity:1;fill-rule:evenodd;stroke:none"
         id="path436" /><path
         d="m 1340.09,4395.26 v 0 c -85.38,0 -155.24,-69.84 -155.24,-155.22 v -124.19 c 0,-85.36 69.86,-155.22 155.24,-155.22 v 0 c 85.36,0 155.22,69.86 155.22,155.22 v 124.19 c 0,85.38 -69.86,155.22 -155.22,155.22 v 0 0"
         style="fill:#ffffff;fill-opacity:1;fill-rule:evenodd;stroke:none"
         id="path438" /><path
         d="m 1340.09,3960.63 v 0 434.63 c 85.36,0 155.22,-69.84 155.22,-155.22 v -124.19 c 0,-85.36 -69.86,-155.22 -155.22,-155.22 v 0"
         style="fill:#ffffff;fill-opacity:1;fill-rule:evenodd;stroke:none"
         id="path440" /><path
         d="m 1252.78,4234.38 c 15.92,0 28.83,-12.91 28.83,-28.83 0,-15.93 -12.91,-28.84 -28.83,-28.84 -15.93,0 -28.83,12.91 -28.83,28.84 0,15.92 12.9,28.83 28.83,28.83 v 0"
         style="fill:#211c1d;fill-opacity:1;fill-rule:evenodd;stroke:none"
         id="path442" /><path
         d="m 1427.38,4234.38 c 15.93,0 28.84,-12.91 28.84,-28.83 0,-15.93 -12.91,-28.84 -28.84,-28.84 -15.92,0 -28.83,12.91 -28.83,28.84 0,15.92 12.91,28.83 28.83,28.83 v 0"
         style="fill:#211c1d;fill-opacity:1;fill-rule:evenodd;stroke:none"
         id="path444" /><path
         d="m 1442.32,3987.05 v -142.2 h -205.91 v 142.2 c -36.5,4.43 -65.02,35.73 -65.02,73.38 v 0.01 c 0,40.65 33.26,73.93 73.92,73.93 h 188.11 c 40.66,0 73.92,-33.28 73.92,-73.93 v -0.01 c 0,-37.65 -28.52,-68.95 -65.02,-73.38 v 0"
         style="fill:#211c1d;fill-opacity:1;fill-rule:evenodd;stroke:none"
         id="path446" /><path
         d="m 1271.25,4075.12 h 136.23 c 8.84,0 16.06,-7.23 16.06,-16.06 v 0 c 0,-8.84 -7.22,-16.06 -16.06,-16.06 h -136.23 c -8.84,0 -16.07,7.22 -16.07,16.06 v 0 c 0,8.83 7.23,16.06 16.07,16.06 v 0"
         style="fill:#ffffff;fill-opacity:1;fill-rule:evenodd;stroke:none"
         id="path448" /><path
         d="m 1390.84,3844.85 25.74,25.75 25.74,-25.75 -25.74,-25.73 -25.74,25.73 z m -154.43,0 25.74,25.75 25.74,-25.75 v 0 l 25.74,25.75 25.74,-25.75 v 0 0 0 0 l -25.74,-25.73 -25.74,25.73 v 0 l -25.74,-25.73 -25.74,25.73 z m 154.43,0 v 0 0 l -25.74,25.75 -25.73,-25.75 25.73,-25.73 25.74,25.73 v 0"
         style="fill:#211c1d;fill-opacity:1;fill-rule:evenodd;stroke:none"
         id="path450" /><path
         d="m 1874.7,3940.18 c 10.98,-20.54 34.08,-32.89 58.39,-29.1 24.31,3.81 42.53,22.63 46.71,45.54 l -47.15,-7.37 c 22.16,10.09 41.09,27.64 52.6,51.24 20.83,42.68 11.16,92.33 -20.5,124.26 l -90.05,-184.57 v 0"
         style="fill:#211c1d;fill-opacity:1;fill-rule:evenodd;stroke:none"
         id="path452" /><path
         d="m 1204.61,3385.21 c 13.58,-18.92 14.47,-45.11 0.32,-65.24 -14.14,-20.14 -39.08,-28.17 -61.48,-21.8 l 27.45,39.05 c -18.85,-15.43 -42.96,-24.67 -69.22,-24.57 -47.49,0.16 -87.76,30.76 -102.422,73.26 l 205.352,-0.7 v 0"
         style="fill:#211c1d;fill-opacity:1;fill-rule:evenodd;stroke:none"
         id="path454" /><path
         d="m 1340.09,4395.26 v 0 c -76.5,0 -140.51,-56.07 -153.01,-129.14 h 306.01 c -12.5,73.07 -76.52,129.14 -153,129.14 v 0 0"
         style="fill:#211c1d;fill-opacity:1;fill-rule:evenodd;stroke:none"
         id="path456" /><path
         d="m 1411.86,4266.12 h 252.6 v 37.17 h -252.6 v -37.17 0"
         style="fill:#211c1d;fill-opacity:1;fill-rule:evenodd;stroke:none"
         id="path458" /><path
         d="m 623.199,3239.57 h 186.012 l 2.102,-637.73 c 0.164,-49.15 -37.782,-89.91 -85.743,-94.65 v 691.35 h -18.73 v -691.35 c -47.957,4.74 -85.902,45.5 -85.742,94.65 l 2.101,637.73 v 0"
         style="fill:#211c1d;fill-opacity:1;fill-rule:evenodd;stroke:none"
         id="path460" /><path
         d="m 524.742,3971.56 h 382.93 c 28.914,0 52.578,-23.66 52.578,-52.58 v 0 c 0,-28.91 -23.664,-52.57 -52.578,-52.57 h -382.93 c -28.918,0 -52.578,23.66 -52.578,52.57 v 0 c 0,28.92 23.66,52.58 52.578,52.58 v 0"
         style="fill:#211c1d;fill-opacity:1;fill-rule:evenodd;stroke:none"
         id="path462" /><path
         d="m 518.598,4121.92 h 395.215 l -0.461,-255.51 H 519.063 l -0.465,255.51 v 0"
         style="fill:#211c1d;fill-opacity:1;fill-rule:evenodd;stroke:none"
         id="path464" /><path
         d="m 766.438,3768.39 v 229.66 H 665.973 v -229.66 h 100.465 v 0"
         style="fill:#ffffff;fill-opacity:1;fill-rule:evenodd;stroke:none"
         id="path466" /><path
         d="m 716.207,4319.53 c 109.137,0 197.606,-88.48 197.606,-197.61 0,-109.13 -88.469,-197.59 -197.606,-197.59 -109.137,0 -197.609,88.46 -197.609,197.59 0,109.13 88.472,197.61 197.609,197.61 v 0"
         style="fill:#211c1d;fill-opacity:1;fill-rule:evenodd;stroke:none"
         id="path468" /><path
         d="m 638.223,4192.93 h 155.965 c 29.933,0 54.421,-24.49 54.421,-54.42 v -117.3 c 0,-72.82 -59.582,-132.41 -132.402,-132.41 v 0 c -72.824,0 -132.406,59.59 -132.406,132.41 v 117.3 c 0,29.93 24.492,54.42 54.422,54.42 v 0"
         style="fill:#ffffff;fill-opacity:1;fill-rule:evenodd;stroke:none"
         id="path470" /><path
         d="m 686.293,4096.31 h 160.566 c -44.339,0 -80.277,35.95 -80.277,80.28 0,-44.33 -35.941,-80.28 -80.289,-80.28 v 0"
         style="fill:#ffffff;fill-opacity:1;fill-rule:evenodd;stroke:none"
         id="path472" /><path
         d="m 716.207,3795.78 v 0 c 108.68,0 202.313,-89.03 197.602,-197.6 l -22.114,-509.42 h -55.179 v 527.81 c 0,7.51 -6.145,13.65 -13.657,13.65 v 0 c -7.504,0 -13.644,-6.15 -13.644,-13.65 V 3213.82 H 623.199 v 402.75 c 0,7.51 -6.144,13.65 -13.652,13.65 v 0 c -7.504,0 -13.652,-6.15 -13.652,-13.65 v -527.81 h -55.176 l -22.121,509.42 c -4.711,108.59 88.922,197.6 197.609,197.6 v 0"
         style="fill:#211c1d;fill-opacity:1;fill-rule:evenodd;stroke:none"
         id="path474" /><path
         d="m 706.84,2714.14 v -206.95 c -47.957,4.74 -85.902,45.5 -85.742,94.65 l 0.371,112.3 h 85.371 z m 104.098,0 0.375,-112.3 c 0.164,-49.15 -37.782,-89.91 -85.743,-94.65 v 206.95 h 85.368 v 0"
         style="fill:#ffffff;fill-opacity:1;fill-rule:evenodd;stroke:none"
         id="path476" /><path
         d="m 651.703,4145.99 c 29.805,0 53.973,-24.16 53.973,-53.98 0,-29.8 -24.168,-53.96 -53.973,-53.96 -29.808,0 -53.973,24.16 -53.973,53.96 0,29.82 24.165,53.98 53.973,53.98 v 0"
         style="fill:#211c1d;fill-opacity:1;fill-rule:evenodd;stroke:none"
         id="path478" /><path
         d="m 780.707,4145.99 c 29.805,0 53.973,-24.16 53.973,-53.98 0,-29.8 -24.168,-53.96 -53.973,-53.96 -29.809,0 -53.973,24.16 -53.973,53.96 0,29.82 24.164,53.98 53.973,53.98 v 0"
         style="fill:#211c1d;fill-opacity:1;fill-rule:evenodd;stroke:none"
         id="path480" /><path
         d="m 1562.6,1423.94 c 194.19,0 359.64,-123.05 422.64,-295.43 h -65.79 c -59.75,137.87 -197.02,234.32 -356.85,234.32 -159.83,0 -297.11,-96.45 -356.85,-234.32 h -65.8 c 63.01,172.38 228.45,295.43 422.65,295.43 v 0"
         style="fill:#ffffff;fill-opacity:1;fill-rule:evenodd;stroke:none"
         id="path482" /><path
         d="m 1562.6,1857.22 v 0 c 109.35,0 198.82,-89.48 198.82,-198.82 v -251.22 h -397.64 v 251.22 c 0,109.34 89.47,198.82 198.82,198.82 v 0"
         style="fill:#211c1d;fill-opacity:1;fill-rule:evenodd;stroke:none"
         id="path484" /><path
         d="m 1562.6,1857.22 v 0 c 9.37,0 18.6,-0.69 27.63,-1.96 v -448.08 h -226.45 v 251.22 c 0,109.34 89.47,198.82 198.82,198.82 v 0"
         style="fill:#211c1d;fill-opacity:1;fill-rule:evenodd;stroke:none"
         id="path486" /><path
         d="m 1562.6,1857.22 v 0 c 9.37,0 18.6,-0.69 27.63,-1.96 v -167.09 h -224.2 c 14.48,95.37 97.33,169.05 196.57,169.05 v 0"
         style="fill:#211c1d;fill-opacity:1;fill-rule:evenodd;stroke:none"
         id="path488" /><path
         d="m 1534.97,1525.18 h -171.19 v -83.19 c 0,-21.3 -17.43,-38.73 -38.74,-38.73 v 0 c -21.3,0 -38.73,17.43 -38.73,38.73 v -41.14 c 0,-68.38 55.95,-124.34 124.32,-124.34 v 0 c 68.39,0 124.34,55.96 124.34,124.34 v 124.33 0"
         style="fill:#211c1d;fill-opacity:1;fill-rule:evenodd;stroke:none"
         id="path490" /><path
         d="m 1590.23,1525.18 h 171.19 v -83.19 c 0,-21.3 17.43,-38.73 38.73,-38.73 v 0 c 21.31,0 38.74,17.43 38.74,38.73 v -41.14 c 0,-68.38 -55.95,-124.34 -124.33,-124.34 v 0 c -68.38,0 -124.33,55.96 -124.33,124.34 v 124.33 0"
         style="fill:#211c1d;fill-opacity:1;fill-rule:evenodd;stroke:none"
         id="path492" /><path
         d="m 1562.6,1795.56 c 75.43,0 136.57,-61.16 136.57,-136.59 0,-75.42 -61.14,-136.57 -136.57,-136.57 -75.43,0 -136.57,61.15 -136.57,136.57 0,75.43 61.14,136.59 136.57,136.59 v 0"
         style="fill:#ffffff;fill-opacity:1;fill-rule:evenodd;stroke:none"
         id="path494" /><path
         d="m 1562.6,1795.56 c 65.41,0 120.07,-45.99 133.44,-107.39 h -266.88 c 13.37,61.4 68.03,107.39 133.44,107.39 v 0"
         style="fill:#211c1d;fill-opacity:1;fill-rule:evenodd;stroke:none"
         id="path496" /><path
         d="m 1534.97,1533.15 h 55.26 v -170.5 h -55.26 v 170.5 0"
         style="fill:#ffffff;fill-opacity:1;fill-rule:evenodd;stroke:none"
         id="path498" /><path
         d="m 1590.23,1792.76 c 62.19,-12.78 108.94,-67.82 108.94,-133.79 0,-65.95 -46.75,-120.99 -108.94,-133.76 v 267.55 0"
         style="fill:#211c1d;fill-opacity:1;fill-rule:evenodd;stroke:none"
         id="path500" /><path
         d="m 1562.6,1290.28 c 174.64,0 316.21,-141.57 316.21,-316.21 h -632.43 c 0,174.64 141.57,316.21 316.22,316.21 v 0"
         style="fill:#211c1d;fill-opacity:1;fill-rule:evenodd;stroke:none"
         id="path502" /><path
         d="M 1675.51,974.059 1562.6,401.75 1449.68,974.059 h 225.83 v 0"
         style="fill:#ffffff;fill-opacity:1;fill-rule:evenodd;stroke:none"
         id="path504" /><path
         d="m 1521.73,1626.87 c 20.04,0 36.28,-16.24 36.28,-36.27 0,-20.03 -16.24,-36.28 -36.28,-36.28 -20.03,0 -36.27,16.25 -36.27,36.28 0,20.03 16.24,36.27 36.27,36.27 v 0"
         style="fill:#211c1d;fill-opacity:1;fill-rule:evenodd;stroke:none"
         id="path506" /><path
         d="m 2513.41,1416.89 -21.44,-797.941 h -104.8 v 519.111 h -19.33 V 618.949 h -104.81 l -21.36,797.941 h 271.74 v 0"
         style="fill:#ffffff;fill-opacity:1;fill-rule:evenodd;stroke:none"
         id="path508" /><path
         d="m 2377.55,2368.63 v 0 c 80.15,0 145.71,-65.57 145.71,-145.71 v -77.28 c 0,-80.14 -65.56,-145.71 -145.71,-145.71 v 0 c -80.15,0 -145.72,65.57 -145.72,145.71 v 77.28 c 0,80.14 65.57,145.71 145.72,145.71 v 0"
         style="fill:#ffffff;fill-opacity:1;fill-rule:evenodd;stroke:none"
         id="path510" /><path
         d="m 2618.53,1825.65 -44.28,-543.03 h -393.4 l -44.06,541.22 245.38,143.5 236.36,-141.69 v 0"
         style="fill:#211c1d;fill-opacity:1;fill-rule:evenodd;stroke:none"
         id="path512" /><path
         d="m 2624.28,1871.89 -12.23,-98.27 c -48.15,79.07 -135.16,131.86 -234.5,131.86 -99.35,0 -186.35,-52.79 -234.5,-131.86 l -12.22,98.27 c 62.6,64.16 150,103.99 246.72,103.99 96.72,0 184.11,-39.83 246.73,-103.99 v 0"
         style="fill:#211c1d;fill-opacity:1;fill-rule:evenodd;stroke:none"
         id="path514" /><path
         d="m 2377.54,2373.78 h 0.02 c 84.32,0 153.79,-66.87 157.98,-150.21 h -315.98 c 4.19,83.34 73.65,150.21 157.98,150.21 v 0"
         style="fill:#211c1d;fill-opacity:1;fill-rule:evenodd;stroke:none"
         id="path516" /><path
         d="m 2178.3,2247.38 h 398.5 c 11.84,0 21.53,-9.68 21.53,-21.53 v 0 c 0,-11.84 -9.69,-21.52 -21.53,-21.52 h -398.5 c -11.84,0 -21.53,9.68 -21.53,21.52 v 0 c 0,11.85 9.69,21.53 21.53,21.53 v 0"
         style="fill:#211c1d;fill-opacity:1;fill-rule:evenodd;stroke:none"
         id="path518" /><path
         d="m 2342.8,1935.36 h 69.49 v -69.49 h -69.49 v 69.49 0"
         style="fill:#ffffff;fill-opacity:1;fill-rule:evenodd;stroke:none"
         id="path520" /><path
         d="m 2342.8,1841.01 h 69.49 l 36.7,-411.26 -71.44,-69.1 -71.45,69.1 36.7,411.26 v 0"
         style="fill:#ffffff;fill-opacity:1;fill-rule:evenodd;stroke:none"
         id="path522" /><path
         d="m 2130.83,1871.89 67.6,-36.98 -199.87,-365.36 h -87.83 l 220.1,402.34 v 0"
         style="fill:#211c1d;fill-opacity:1;fill-rule:evenodd;stroke:none"
         id="path524" /><path
         d="m 2876.34,1402.93 3.45,1.88 -3.45,6.3 z m -252.06,468.96 -67.61,-36.98 199.86,-365.36 h 87.84 l -220.09,402.34 v 0"
         style="fill:#211c1d;fill-opacity:1;fill-rule:evenodd;stroke:none"
         id="path526" /><path
         d="m 2322.5,2194.88 c 20.59,0 37.29,-16.69 37.29,-37.29 0,-20.6 -16.7,-37.3 -37.29,-37.3 -20.61,0 -37.3,16.7 -37.3,37.3 0,20.6 16.69,37.29 37.3,37.29 v 0"
         style="fill:#211c1d;fill-opacity:1;fill-rule:evenodd;stroke:none"
         id="path528" /><path
         d="m 2435.71,2194.23 c 20.6,0 37.3,-16.7 37.3,-37.31 0,-20.59 -16.7,-37.29 -37.3,-37.29 -20.6,0 -37.29,16.7 -37.29,37.29 0,20.61 16.69,37.31 37.29,37.31 v 0"
         style="fill:#211c1d;fill-opacity:1;fill-rule:evenodd;stroke:none"
         id="path530" /><path
         d="m 2193.68,600.359 69.35,18.59 h 104.81 V 520.09 h -55.02 v 15.211 c 0,7.84 -6.4,14.238 -14.24,14.238 v 0 c -7.83,0 -14.23,-6.398 -14.23,-14.238 V 520.09 h -140.31 c -7.21,35.289 14.41,70.832 49.64,80.269 v 0"
         style="fill:#211c1d;fill-opacity:1;fill-rule:evenodd;stroke:none"
         id="path532" /><path
         d="m 2561.33,600.359 -69.36,18.59 h -104.8 V 520.09 h 55.01 v 15.211 c 0,7.84 6.4,14.238 14.24,14.238 v 0 c 7.84,0 14.23,-6.398 14.23,-14.238 V 520.09 h 140.32 c 7.2,35.289 -14.41,70.832 -49.64,80.269 v 0"
         style="fill:#211c1d;fill-opacity:1;fill-rule:evenodd;stroke:none"
         id="path534" /><path
         d="m 3281.96,1855.4 -50.42,1.54 5.76,-302.94 c 0,-43.57 -35.81,-79.38 -79.38,-79.38 h -29.35 v -44.66 h 29.35 c 68.22,0 124.04,55.82 124.04,124.04 v 301.4 0"
         style="fill:#ffffff;fill-opacity:1;fill-rule:evenodd;stroke:none"
         id="path536" /><path
         d="m 2708.71,2483.57 c -1.68,-8.93 -2.56,-18.14 -2.56,-27.54 v -368.09 c 0,-144.38 118.12,-262.48 262.48,-262.48 h 86.58 v 87.43 h -86.58 c -113.34,0 -206.28,92.93 -206.28,206.28 v 364.4 h -53.64 v 0"
         style="fill:#ffffff;fill-opacity:1;fill-rule:evenodd;stroke:none"
         id="path538" /><path
         d="M 3207.32,1486.45 H 3001.24 V 818.211 c 0,-53.25 40.93,-97.402 92.89,-102.539 v 749.058 h 20.3 V 715.672 c 51.96,5.137 92.89,49.289 92.89,102.539 v 668.239 0"
         style="fill:#ffffff;fill-opacity:1;fill-rule:evenodd;stroke:none"
         id="path540" /><path
         d="M 3114.43,838.422 V 511.531 c 51.96,5.129 92.89,49.278 92.89,102.539 v 224.352 h -92.89 z m -113.19,0 V 614.07 c 0,-53.25 40.93,-97.41 92.89,-102.539 v 326.891 h -92.89 v 0"
         style="fill:#211c1d;fill-opacity:1;fill-rule:evenodd;stroke:none"
         id="path542" /><path
         d="m 3159.44,1882.01 c -43,0 -77.87,-34.86 -77.87,-77.87 0,-43.01 34.87,-77.87 77.87,-77.87 43,0 77.86,34.86 77.86,77.87 0,43.01 -34.86,77.87 -77.86,77.87 v 0"
         style="fill:#211c1d;fill-opacity:1;fill-rule:evenodd;stroke:none"
         id="path544" /><path
         d="m 3049.12,1882.01 c -43.01,0 -77.87,-34.86 -77.87,-77.87 0,-43.01 34.86,-77.87 77.87,-77.87 43.01,0 77.87,34.86 77.87,77.87 0,43.01 -34.86,77.87 -77.87,77.87 v 0"
         style="fill:#211c1d;fill-opacity:1;fill-rule:evenodd;stroke:none"
         id="path546" /><path
         d="m 3257.73,1928.97 -153.44,153.47 -153.46,-153.47 153.46,-69.99 153.44,69.99 v 0"
         style="fill:#ffffff;fill-opacity:1;fill-rule:evenodd;stroke:none"
         id="path548" /><path
         d="m 3104.29,2437.11 v 0 c -114.9,0 -208.9,-94 -208.9,-208.9 v -263.94 h 417.78 v 263.94 c 0,114.9 -94,208.9 -208.88,208.9 v 0"
         style="fill:#211c1d;fill-opacity:1;fill-rule:evenodd;stroke:none"
         id="path550" /><path
         d="m 3133.32,2088.24 h 179.85 v -87.39 c 0,-22.38 18.31,-40.69 40.7,-40.69 v 0 c 22.38,0 40.7,18.31 40.7,40.69 v -43.23 c 0,-71.84 -58.78,-130.63 -130.62,-130.63 v 0 c -71.85,0 -130.63,58.79 -130.63,130.63 v 130.62 0"
         style="fill:#211c1d;fill-opacity:1;fill-rule:evenodd;stroke:none"
         id="path552" /><path
         d="m 3075.24,2088.24 h -179.85 v -87.39 c 0,-22.38 -18.31,-40.69 -40.69,-40.69 v 0 c -22.39,0 -40.71,18.31 -40.71,40.69 v -43.23 c 0,-71.84 58.79,-130.63 130.63,-130.63 h 0.01 c 71.83,0 130.61,58.79 130.61,130.63 v 130.62 0"
         style="fill:#211c1d;fill-opacity:1;fill-rule:evenodd;stroke:none"
         id="path554" /><path
         d="m 3104.29,2372.32 c -79.25,0 -143.5,-64.23 -143.5,-143.49 0,-79.25 64.25,-143.5 143.5,-143.5 79.25,0 143.49,64.25 143.49,143.5 0,79.26 -64.24,143.49 -143.49,143.49 v 0"
         style="fill:#ffffff;fill-opacity:1;fill-rule:evenodd;stroke:none"
         id="path556" /><path
         d="m 3104.29,2372.32 c -72.06,0 -131.71,-53.11 -141.95,-122.33 h 283.88 c -10.23,69.22 -69.88,122.33 -141.93,122.33 v 0"
         style="fill:#211c1d;fill-opacity:1;fill-rule:evenodd;stroke:none"
         id="path558" /><path
         d="m 3133.32,2096.62 h -58.08 v -202.93 h 58.08 v 202.93 0"
         style="fill:#ffffff;fill-opacity:1;fill-rule:evenodd;stroke:none"
         id="path560" /><path
         d="m 2948.32,2249.99 h 311.92 c 11.91,0 21.65,-9.73 21.65,-21.63 v 0 c 0,-11.9 -9.74,-21.64 -21.65,-21.64 h -311.92 c -11.9,0 -21.64,9.74 -21.64,21.64 v 0 c 0,11.9 9.74,21.63 21.64,21.63 v 0"
         style="fill:#ffffff;fill-opacity:1;fill-rule:evenodd;stroke:none"
         id="path562" /><path
         d="m 3182.34,1761.38 h -156.12 v -249.81 h 156.12 v 249.81 0"
         style="fill:#211c1d;fill-opacity:1;fill-rule:evenodd;stroke:none"
         id="path564" /><path
         d="m 3104.29,1611.49 v 0 c -91.03,0 -165.5,-74.47 -165.5,-165.49 v -209.21 h 331 V 1446 c 0,91.02 -74.49,165.49 -165.5,165.49 v 0"
         style="fill:#211c1d;fill-opacity:1;fill-rule:evenodd;stroke:none"
         id="path566" /><path
         d="m 2749.32,2431.82 c 23.98,12.81 38.41,39.79 33.97,68.18 -4.44,28.39 -26.42,49.68 -53.18,54.56 l 8.62,-55.08 c -11.79,25.89 -32.29,48 -59.85,61.45 -49.87,24.32 -107.84,13.03 -145.12,-23.95 l 215.56,-105.16 v 0"
         style="fill:#ffffff;fill-opacity:1;fill-rule:evenodd;stroke:none"
         id="path568" /><path
         d="m 2667.67,2484.09 h 63.62 v -75.34 h -25.14 c 0.04,0.92 0.06,1.82 0.06,2.73 0,26.72 -15.79,49.74 -38.54,60.27 v 12.34 0"
         style="fill:#ffffff;fill-opacity:1;fill-rule:evenodd;stroke:none"
         id="path570" /><path
         d="m 3281.77,1546.99 c -18.49,11.51 -42.96,10.71 -60.86,-3.74 -17.9,-14.44 -23.86,-38.18 -16.53,-58.69 l 34.72,28.01 c -13.23,-18.53 -20.35,-41.58 -18.64,-66.07 3.09,-44.29 34.13,-79.96 74.67,-91 l -13.36,191.49 v 0"
         style="fill:#ffffff;fill-opacity:1;fill-rule:evenodd;stroke:none"
         id="path572" /><path
         d="m 3046.39,2231.16 c 12.32,0 22.31,-9.98 22.31,-22.31 0,-12.33 -9.99,-22.32 -22.31,-22.32 -12.33,0 -22.33,9.99 -22.33,22.32 0,12.33 10,22.31 22.33,22.31 v 0"
         style="fill:#211c1d;fill-opacity:1;fill-rule:evenodd;stroke:none"
         id="path574" /><path
         d="m 3162.29,2231.16 c 12.32,0 22.31,-9.98 22.31,-22.31 0,-12.33 -9.99,-22.32 -22.31,-22.32 -12.33,0 -22.32,9.99 -22.32,22.32 0,12.33 9.99,22.31 22.32,22.31 v 0"
         style="fill:#211c1d;fill-opacity:1;fill-rule:evenodd;stroke:none"
         id="path576" /></g></g></svg>
