<?xml version="1.0" encoding="UTF-8"?>
<svg width="23px" height="18px" viewBox="0 0 23 18" version="1.1" xmlns="http://www.w3.org/2000/svg" xmlns:xlink="http://www.w3.org/1999/xlink">
    <title>846DA197-AACC-4453-871B-4FD475C24223</title>
    <g id="desktop" stroke="none" stroke-width="1" fill="none" fill-rule="evenodd">
        <g id="landing" transform="translate(-551.000000, -1900.000000)" fill="#EC2227" fill-rule="nonzero">
            <g id="Group-14" transform="translate(0.000000, 1346.000000)">
                <g id="Group-13" transform="translate(527.000000, 480.000000)">
                    <g id="car-alt" transform="translate(24.000000, 74.000000)">
                        <path d="M19.8365625,6.17859375 L18.6675,2.58890625 C18.1645312,1.04484375 16.7254688,0 15.1017188,0 L7.39828125,0 C5.77453125,0 4.33546875,1.04484375 3.8325,2.5884375 L2.6634375,6.178125 C1.1259375,6.64640625 0,8.05875 0,9.74953125 L0,15.75 C0,16.9907813 1.00921875,18 2.25,18 L3,18 C4.24078125,18 5.25,16.9907813 5.25,15.75 L5.25,15 L17.25,15 L17.25,15.75 C17.25,16.9907813 18.2592187,18 19.5,18 L20.25,18 C21.4907813,18 22.5,16.9907813 22.5,15.75 L22.5,9.74953125 C22.5,8.05875 21.3740625,6.64640625 19.8365625,6.17859375 Z M5.25890625,3.0534375 C5.56171875,2.124375 6.42140625,1.5 7.39828125,1.5 L15.1017187,1.5 C16.0785937,1.5 16.9382812,2.124375 17.2410937,3.05296875 L18.200625,5.9990625 L4.299375,5.9990625 L5.25890625,3.0534375 Z M3.75,15.75 C3.75,16.1639063 3.41296875,16.5 3,16.5 L2.25,16.5 C1.83703125,16.5 1.5,16.1639063 1.5,15.75 L1.5,15 L3.75,15 L3.75,15.75 Z M21,15.75 C21,16.1639063 20.6629688,16.5 20.25,16.5 L19.5,16.5 C19.0870312,16.5 18.75,16.1639063 18.75,15.75 L18.75,15 L21,15 L21,15.75 Z M21,11.9995313 L21,13.4995313 L1.5,13.4995313 L1.5,9.74953125 C1.5,8.50875 2.50921875,7.49953125 3.75,7.49953125 L18.75,7.49953125 C19.9907813,7.49953125 21,8.50875 21,9.74953125 L21,11.9995313 Z M4.9125,8.625 C3.695625,8.625 2.8125,9.4125 2.8125,10.4976562 C2.8125,11.5828125 3.695625,12.3703125 4.9125,12.3703125 L5.3878125,12.375 C7.22578125,12.375 7.5,11.4328125 7.5,10.87125 C7.5,9.714375 6.0421875,8.625 4.9125,8.625 Z M5.3878125,11.25 C5.22328125,11.25 5.05875,11.2453125 4.9125,11.2453125 C4.3275,11.2453125 3.9375,10.94625 3.9375,10.4976562 C3.9375,10.0490625 4.3275,9.75 4.9125,9.75 C5.4975,9.75 6.375,10.423125 6.375,10.8717187 C6.375,11.2078125 5.88140625,11.25 5.3878125,11.25 Z M17.5875,8.625 C16.4578125,8.625 15,9.714375 15,10.8717188 C15,11.4332813 15.2742188,12.3754688 17.1121875,12.3754688 L17.5875,12.3707813 C18.804375,12.3707813 19.6875,11.5832812 19.6875,10.498125 C19.6875,9.4125 18.804375,8.625 17.5875,8.625 L17.5875,8.625 Z M17.5875,11.2453125 C17.44125,11.2453125 17.2767188,11.25 17.1121875,11.25 C16.6185938,11.25 16.125,11.2078125 16.125,10.8717187 C16.125,10.423125 17.0025,9.75 17.5875,9.75 C18.1725,9.75 18.5625,10.0490625 18.5625,10.4976562 C18.5625,10.94625 18.1725,11.2453125 17.5875,11.2453125 Z" id="Shape"></path>
                    </g>
                </g>
            </g>
        </g>
    </g>
</svg>