<?xml version="1.0" encoding="UTF-8"?>
<svg width="30px" height="24px" viewBox="0 0 30 24" version="1.1" xmlns="http://www.w3.org/2000/svg" xmlns:xlink="http://www.w3.org/1999/xlink">
    <title>C912297A-9DD7-402A-80BC-C1C71A76E4D2</title>
    <g id="desktop" stroke="none" stroke-width="1" fill="none" fill-rule="evenodd">
        <g id="landing" transform="translate(-140.000000, -1897.000000)" fill="#EC2227" fill-rule="nonzero">
            <g id="Group-14" transform="translate(0.000000, 1346.000000)">
                <g id="Group-13" transform="translate(120.000000, 480.000000)">
                    <g id="door-open" transform="translate(20.000000, 71.000000)">
                        <path d="M13.5,13.5 C14.1210938,13.5 14.625,12.8282812 14.625,12 C14.625,11.1717188 14.1210938,10.5 13.5,10.5 C12.8789062,10.5 12.375,11.1717188 12.375,12 C12.375,12.8282812 12.8789062,13.5 13.5,13.5 Z M29.625,22.5 L24,22.5 L24,4.5 C24,3.67171875 23.3282812,3 22.5,3 L18,3 L18,1.5553125 C18,0.6759375 17.30625,0 16.5028125,0 C16.3823438,0 16.2595312,0.015 16.1357813,0.04734375 L7.13578125,2.37890625 C6.46828125,2.551875 6,3.1734375 6,3.886875 L6,22.5 L0.375,22.5 C0.1678125,22.5 0,22.6678125 0,22.875 L0,23.625 C0,23.8321875 0.1678125,24 0.375,24 L29.625,24 C29.8321875,24 30,23.8321875 30,23.625 L30,22.875 C30,22.6678125 29.8321875,22.5 29.625,22.5 Z M16.5,1.5553125 L16.5,22.5 L7.5,22.5 L7.5121875,3.83109375 L16.5028125,1.501875 L16.5,1.5553125 Z M22.5,22.5 L18,22.5 L18,4.5 L22.5,4.5 L22.5,22.5 Z" id="Shape"></path>
                    </g>
                </g>
            </g>
        </g>
    </g>
</svg>