<?xml version="1.0" encoding="UTF-8"?>
<svg width="30px" height="24px" viewBox="0 0 30 24" version="1.1" xmlns="http://www.w3.org/2000/svg" xmlns:xlink="http://www.w3.org/1999/xlink">
    <title>6E9B0583-AFCB-4D70-9F07-54758850276A</title>
    <g id="desktop" stroke="none" stroke-width="1" fill="none" fill-rule="evenodd">
        <g id="landing" transform="translate(-140.000000, -1647.000000)" fill="#EC2227" fill-rule="nonzero">
            <g id="Group-14" transform="translate(0.000000, 1346.000000)">
                <g id="Group-13" transform="translate(120.000000, 230.000000)">
                    <g id="racquet" transform="translate(20.000000, 71.000000)">
                        <path d="M28.8520049,2.79430521 C26.2785936,-0.838470299 20.3114669,-0.899407179 15.5958899,2.43805883 C12.9146672,4.336477 11.1709349,6.93801301 10.6037532,9.49736194 C10.1021958,11.7567139 8.98189473,13.7957557 7.50534727,15.5535503 C6.66629331,15.084805 5.99598764,15.5629252 5.91630095,15.6191746 L0.638229699,19.312887 C-0.0367634274,19.7863197 -0.205511709,20.7191227 0.272608422,21.3988032 L1.65071939,23.3628457 C2.11477716,24.0237765 3.04289271,24.2159621 3.73663565,23.728467 L9.0147069,20.0347546 C9.46001486,19.7206953 9.65688786,19.209763 9.62407569,18.7035182 C11.3115585,18.0613372 13.0834155,17.686341 14.8880846,17.686341 C16.3693195,17.686341 20.1520935,18.7082056 24.8020461,15.4176142 C29.5738725,12.0332736 31.392604,6.38020619 28.8520049,2.79430521 L28.8520049,2.79430521 Z M2.87414443,22.5003545 L1.49603346,20.5409995 L6.77410471,16.8472871 L8.15221568,18.8113296 L2.87414443,22.5003545 Z M8.96783237,17.3629068 L8.5131495,16.711351 C9.38970308,15.6941738 10.1443829,14.6066849 10.7350019,13.4488842 C11.2506216,15.0004309 12.0990505,15.7832354 12.8162307,16.3316673 C11.5224939,16.514478 10.228757,16.8707244 8.96783237,17.3629068 L8.96783237,17.3629068 Z M23.93018,14.1941891 C19.9177209,17.0347852 14.8365226,17.1191593 12.7599813,14.1895017 C10.7021897,11.2832813 12.3615478,6.56301683 16.4630685,3.65679642 C20.4333406,0.844325064 25.5379761,0.699014044 27.6332673,3.65679642 C29.6019972,6.44114307 28.1535745,11.208282 23.93018,14.1941891 Z" id="Shape"></path>
                    </g>
                </g>
            </g>
        </g>
    </g>
</svg>