<?xml version="1.0" encoding="UTF-8"?>
<svg width="191px" height="42px" viewBox="0 0 191 42" version="1.1" xmlns="http://www.w3.org/2000/svg" xmlns:xlink="http://www.w3.org/1999/xlink">
    <title>05951EC1-0733-45D4-9ED7-296BE1266EE4</title>
    <g id="desktop" stroke="none" stroke-width="1" fill="none" fill-rule="evenodd">
        <g id="landing" transform="translate(-120.000000, -31.000000)" fill="#FFFFFF">
            <g id="Group" transform="translate(120.000000, 31.000000)">
                <g id="Group-2">
                    <path d="M15.0478705,16.8636594 C16.5050658,16.8636594 17.6865591,15.6823673 17.6865591,14.2249707 C17.6865591,12.7677755 16.5050658,11.5864834 15.0478705,11.5864834 C13.590474,11.5864834 12.4091819,12.7677755 12.4091819,14.2249707 C12.4091819,15.6823673 13.590474,16.8636594 15.0478705,16.8636594" id="Fill-1"></path>
                    <path d="M20.2854219,17.7534319 C21.6385749,17.7534319 22.7355465,16.6564603 22.7355465,15.3033073 C22.7355465,13.9501543 21.6385749,12.8531827 20.2854219,12.8531827 C18.9322689,12.8531827 17.8352973,13.9501543 17.8352973,15.3033073 C17.8352973,16.6564603 18.9322689,17.7534319 20.2854219,17.7534319" id="Fill-3"></path>
                    <path d="M24.6607307,20.638421 C25.9098415,20.638421 26.9224925,19.6257699 26.9224925,18.3766591 C26.9224925,17.1277496 25.9098415,16.1150985 24.6607307,16.1150985 C23.4116199,16.1150985 22.3991701,17.1277496 22.3991701,18.3766591 C22.3991701,19.6257699 23.4116199,20.638421 24.6607307,20.638421" id="Fill-5"></path>
                    <path d="M27.462667,25.0041707 C28.6077356,25.0041707 29.5358649,24.0760414 29.5358649,22.9309729 C29.5358649,21.7859044 28.6077356,20.857775 27.462667,20.857775 C26.3175985,20.857775 25.3894692,21.7859044 25.3894692,22.9309729 C25.3894692,24.0760414 26.3175985,25.0041707 27.462667,25.0041707" id="Fill-7"></path>
                    <path d="M28.2214108,30.1091639 C29.2622358,30.1091639 30.1060446,29.265355 30.1060446,28.2243288 C30.1060446,27.1835038 29.2622358,26.3396949 28.2214108,26.3396949 C27.1803845,26.3396949 26.3365757,27.1835038 26.3365757,28.2243288 C26.3365757,29.265355 27.1803845,30.1091639 28.2214108,30.1091639" id="Fill-9"></path>
                    <path d="M26.8232399,35.0817195 C27.7600226,35.0817195 28.5195109,34.3222311 28.5195109,33.3854484 C28.5195109,32.4486656 27.7600226,31.6891773 26.8232399,31.6891773 C25.8864571,31.6891773 25.1269688,32.4486656 25.1269688,33.3854484 C25.1269688,34.3222311 25.8864571,35.0817195 26.8232399,35.0817195" id="Fill-11"></path>
                    <path d="M23.4869047,39.0721926 C24.3196452,39.0721926 24.9946117,38.3972261 24.9946117,37.5644856 C24.9946117,36.7317451 24.3196452,36.0565773 23.4869047,36.0565773 C22.6541642,36.0565773 21.9791976,36.7317451 21.9791976,37.5644856 C21.9791976,38.3972261 22.6541642,39.0721926 23.4869047,39.0721926" id="Fill-13"></path>
                    <path d="M18.7677735,41.399318 C19.4964717,41.399318 20.0871178,40.8086719 20.0871178,40.0799737 C20.0871178,39.3514767 19.4964717,38.7606294 18.7677735,38.7606294 C18.0392765,38.7606294 17.4484292,39.3514767 17.4484292,40.0799737 C17.4484292,40.8086719 18.0392765,41.399318 18.7677735,41.399318" id="Fill-15"></path>
                    <path d="M13.437711,41.6435054 C14.0621657,41.6435054 14.5684913,41.1371798 14.5684913,40.5127251 C14.5684913,39.8880691 14.0621657,39.3817435 13.437711,39.3817435 C12.8132562,39.3817435 12.3067294,39.8880691 12.3067294,40.5127251 C12.3067294,41.1371798 12.8132562,41.6435054 13.437711,41.6435054" id="Fill-17"></path>
                    <path d="M8.37304682,39.7414238 C8.89345932,39.7414238 9.31526312,39.3194188 9.31526312,38.7990063 C9.31526312,38.2785938 8.89345932,37.8565887 8.37304682,37.8565887 C7.85263431,37.8565887 7.43062927,38.2785938 7.43062927,38.7990063 C7.43062927,39.3194188 7.85263431,39.7414238 8.37304682,39.7414238" id="Fill-19"></path>
                    <path d="M4.40601835,35.9666018 C4.8223886,35.9666018 5.15987189,35.6291185 5.15987189,35.2127483 C5.15987189,34.796378 4.8223886,34.4588948 4.40601835,34.4588948 C3.9896481,34.4588948 3.65216481,34.796378 3.65216481,35.2127483 C3.65216481,35.6291185 3.9896481,35.9666018 4.40601835,35.9666018" id="Fill-21"></path>
                    <path d="M2.18730222,30.9132274 C2.49963022,30.9132274 2.75279299,30.6600646 2.75279299,30.3477366 C2.75279299,30.0356098 2.49963022,29.782447 2.18730222,29.782447 C1.87497422,29.782447 1.62181144,30.0356098 1.62181144,30.3477366 C1.62181144,30.6600646 1.87497422,30.9132274 2.18730222,30.9132274" id="Fill-23"></path>
                    <path d="M27.9178569,11.8591465 C28.2301849,11.8591465 28.4833477,11.6059837 28.4833477,11.2936557 C28.4833477,10.981529 28.2301849,10.7283662 27.9178569,10.7283662 C27.6055289,10.7283662 27.3523662,10.981529 27.3523662,11.2936557 C27.3523662,11.6059837 27.6055289,11.8591465 27.9178569,11.8591465" id="Fill-25"></path>
                    <path d="M25.6999458,7.18509358 C26.116316,7.18509358 26.4537993,6.8476103 26.4537993,6.43124004 C26.4537993,6.01486979 26.116316,5.67738651 25.6999458,5.67738651 C25.2835755,5.67738651 24.9460922,6.01486979 24.9460922,6.43124004 C24.9460922,6.8476103 25.2835755,7.18509358 25.6999458,7.18509358" id="Fill-27"></path>
                    <path d="M21.7344065,3.78770148 C22.254819,3.78770148 22.676824,3.36589769 22.676824,2.84528394 C22.676824,2.32487143 22.254819,1.90306764 21.7344065,1.90306764 C21.213994,1.90306764 20.7921902,2.32487143 20.7921902,2.84528394 C20.7921902,3.36589769 21.213994,3.78770148 21.7344065,3.78770148" id="Fill-29"></path>
                    <path d="M16.6705473,2.26176186 C17.295002,2.26176186 17.8013276,1.75543631 17.8013276,1.13098155 C17.8013276,0.506325548 17.295002,0 16.6705473,0 C16.0458913,0 15.5395657,0.506325548 15.5395657,1.13098155 C15.5395657,1.75543631 16.0458913,2.26176186 16.6705473,2.26176186" id="Fill-31"></path>
                    <path d="M11.3406458,2.88168866 C12.0693441,2.88168866 12.6599901,2.29104261 12.6599901,1.56234435 C12.6599901,0.833646097 12.0693441,0.243000039 11.3406458,0.243000039 C10.6119476,0.243000039 10.0213015,0.833646097 10.0213015,1.56234435 C10.0213015,2.29104261 10.6119476,2.88168866 11.3406458,2.88168866" id="Fill-33"></path>
                    <path d="M6.62346666,5.58258127 C7.45620717,5.58258127 8.13117374,4.90741346 8.13117374,4.0748742 C8.13117374,3.24213369 7.45620717,2.56696588 6.62346666,2.56696588 C5.79072615,2.56696588 5.11575958,3.24213369 5.11575958,4.0748742 C5.11575958,4.90741346 5.79072615,5.58258127 6.62346666,5.58258127" id="Fill-35"></path>
                    <path d="M3.28552152,9.94764682 C4.22230428,9.94764682 4.98179261,9.1881585 4.98179261,8.25137574 C4.98179261,7.31459298 4.22230428,6.55510466 3.28552152,6.55510466 C2.34873876,6.55510466 1.58925044,7.31459298 1.58925044,8.25137574 C1.58925044,9.1881585 2.34873876,9.94764682 3.28552152,9.94764682" id="Fill-37"></path>
                    <path d="M1.88463384,15.295318 C2.92545886,15.295318 3.76926769,14.4515092 3.76926769,13.4104829 C3.76926769,12.3696579 2.92545886,11.5258491 1.88463384,11.5258491 C0.843808832,11.5258491 1.14392986e-14,12.3696579 1.14392986e-14,13.4104829 C1.14392986e-14,14.4515092 0.843808832,15.295318 1.88463384,15.295318" id="Fill-39"></path>
                    <path d="M2.63989608,20.7773586 C3.78496459,20.7773586 4.71309393,19.8492293 4.71309393,18.7041608 C4.71309393,17.5590923 3.78496459,16.6309629 2.63989608,16.6309629 C1.49482757,16.6309629 0.566698228,17.5590923 0.566698228,18.7041608 C0.566698228,19.8492293 1.49482757,20.7773586 2.63989608,20.7773586" id="Fill-41"></path>
                    <path d="M5.43738498,25.5203572 C6.68649574,25.5203572 7.69914683,24.5077061 7.69914683,23.2585953 C7.69914683,22.0096858 6.68649574,20.9970347 5.43738498,20.9970347 C4.18827422,20.9970347 3.17582436,22.0096858 3.17582436,23.2585953 C3.17582436,24.5077061 4.18827422,25.5203572 5.43738498,25.5203572" id="Fill-43"></path>
                    <path d="M9.80993674,28.7856941 C11.1630898,28.7856941 12.2600614,27.6887225 12.2600614,26.3355695 C12.2600614,24.9824165 11.1630898,23.8854449 9.80993674,23.8854449 C8.45678373,23.8854449 7.35981212,24.9824165 7.35981212,26.3355695 C7.35981212,27.6887225 8.45678373,28.7856941 9.80993674,28.7856941" id="Fill-45"></path>
                    <path d="M15.0527607,30.0567805 C16.5101572,30.0567805 17.6914493,28.8754884 17.6914493,27.4180919 C17.6914493,25.9608966 16.5101572,24.7796045 15.0527607,24.7796045 C13.5953642,24.7796045 12.4140721,25.9608966 12.4140721,27.4180919 C12.4140721,28.8754884 13.5953642,30.0567805 15.0527607,30.0567805" id="Fill-47"></path>
                </g>
                <g id="Group-3" transform="translate(43.252523, 12.485936)">
                    <path d="M3.49940181,2.52323594 L6.18940721,2.52323594 L11.069331,2.52323594 L12.3786132,2.52323594 L12.3786132,1.85672154 C12.3786132,1.3489873 12.1644914,0.91269406 11.7360466,0.547640585 C11.3074006,0.18258711 10.8232117,6.03726805e-05 10.2838824,6.03726805e-05 L2.07098419,6.03726805e-05 C1.72182885,6.03726805e-05 1.38857165,0.0992728111 1.07141384,0.297496446 C0.753652296,0.496323807 0.49586095,0.758139998 0.297637315,1.08314626 C0.0992124384,1.40855501 0,1.74603829 0,2.09479115 L0,3.64214295 L10.4980042,14.7112727 L10.4980042,14.9257969 L8.87921137,14.1638937 L6.5268905,14.1562465 L0.166628598,14.1562465 L0.166628598,14.8066615 C0.166628598,16.0549673 1.47148347,16.6635239 2.26176186,16.6635239 L10.307629,16.6635239 C10.6563818,16.6635239 10.9898403,16.5645127 11.3074006,16.3658866 C11.6247596,16.167663 11.882551,15.9454915 12.0811771,15.6993722 C12.2794007,15.4534542 12.3786132,15.1558169 12.3786132,14.8066615 L12.3786132,13.0449867 L1.880609,1.97565572 L1.880609,1.76153395 L3.49940181,2.52323594 Z" id="Fill-65"></path>
                    <polygon id="Fill-49" points="15.1875729 16.6634636 13.6877143 0 16.2110911 0 17.2110639 9.9743718 16.6395359 13.5212668 16.8776055 13.5212668 20.9245875 0 23.8526625 0 27.899242 13.5212668 28.1375129 13.5212668 27.5661861 9.9743718 28.5659577 0 31.113081 0 29.6134237 16.6634636 26.304397 16.6634636 22.4004983 3.66603041 18.4963983 16.6634636"></polygon>
                    <polygon id="Fill-51" points="32.4220815 16.6634636 32.4220815 14.1400868 37.1593245 14.1400868 37.1593245 13.9020172 35.9452299 13.56876 35.9452299 2.52317556 32.4220815 2.52317556 32.4220815 0 41.9917551 0 41.9917551 2.52317556 37.2307655 2.52317556 37.2307655 2.76144641 38.4686067 3.09470361 38.4686067 14.1400868 41.9917551 14.1400868 41.9917551 16.6634636"></polygon>
                    <polygon id="Fill-53" points="43.3007556 16.6634636 43.3007556 0 55.6793687 0 55.6793687 2.52317556 45.8241324 2.52317556 45.8241324 7.14369805 54.0128815 7.14369805 54.0128815 9.66687361 46.3954592 9.66687361 46.062202 8.42923366 45.8241324 8.42923366 45.8241324 16.6634636"></polygon>
                    <polygon id="Fill-55" points="56.9883692 2.52323594 56.9883692 6.03726805e-05 70.0334968 6.03726805e-05 70.0334968 2.52323594 63.534579 2.52323594 63.534579 2.76150678 64.7488748 3.09476398 64.7488748 16.6635239 62.2252968 16.6635239 62.2252968 2.52323594"></polygon>
                    <path d="M82.6417596,11.4977758 L87.1169851,11.4977758 L84.9983065,5.49894499 L84.9983065,4.78493742 L84.7841848,4.78493742 L84.7841848,5.49894499 L82.6417596,11.4977758 Z M78.3329614,16.6634636 L84.1176704,0 L85.6887688,0 L91.4255821,16.6634636 L88.9024066,16.6634636 L87.9978226,14.0211526 L81.7846688,14.0211526 L80.8563382,16.6634636 L78.3329614,16.6634636 Z" id="Fill-57"></path>
                    <polygon id="Fill-59" points="106.42274 16.6634636 106.42274 0 118.34896 0 118.34896 2.52317556 108.945915 2.52317556 108.945915 7.07004338 116.754115 7.07004338 116.754115 9.61716677 109.517443 9.61716677 109.184186 8.37932558 108.945915 8.37932558 108.945915 14.1400868 118.658471 14.1400868 118.658471 16.6634636"></polygon>
                    <path d="M119.967471,16.6634636 L119.967471,0 L122.752664,0 L131.465247,13.1165686 L131.703115,13.1165686 C131.35396,12.2755771 131.120116,11.3074006 131.000981,10.2122402 C130.881846,9.11728098 130.822479,7.90338761 130.822479,6.57015758 L130.822479,0 L133.345856,0 L133.345856,16.6634636 L130.560663,16.6634636 L121.84808,3.54689498 L121.610011,3.54689498 C121.958965,4.37239077 122.193211,5.3204431 122.312145,6.39165569 C122.43128,7.46286829 122.490647,8.64134301 122.490647,9.92667738 L122.490647,16.6634636 L119.967471,16.6634636 Z" id="Fill-61"></path>
                    <path d="M138.963453,11.4977758 L143.438679,11.4977758 L141.320202,5.49894499 L141.320202,4.78493742 L141.105879,4.78493742 L141.105879,5.49894499 L138.963453,11.4977758 Z M134.654856,16.6634636 L140.439364,0 L142.010664,0 L147.747477,16.6634636 L145.2241,16.6634636 L144.319516,14.0211526 L138.106564,14.0211526 L137.178032,16.6634636 L134.654856,16.6634636 Z" id="Fill-63"></path>
                    <path d="M102.590101,7.11761705 L95.2580399,7.11761705 L95.2580399,2.52325606 L99.5018368,2.52325606 L99.9135785,2.52325606 L102.576014,2.52325606 L102.576014,4.92427757 C102.585271,5.01483659 102.590101,5.1068043 102.590101,5.19977823 L102.590101,7.11761705 Z M104.042265,9.35522983 C104.359423,9.14935899 104.617214,8.88734156 104.816041,8.56978126 C105.014064,8.25262344 105.113477,7.91916501 105.113477,7.57000967 L105.113477,8.04969075e-05 L103.042493,8.04969075e-05 L92.7348643,8.04969075e-05 L92.7348643,16.6635441 L95.2580399,16.6635441 L95.2580399,9.66474044 L100.185859,9.66474044 L100.185859,9.90281005 L98.8051361,10.3077095 L102.328285,16.6635441 L105.113477,16.6635441 L101.447447,9.66474044 L103.042493,9.66474044 C103.391246,9.66474044 103.724705,9.56190564 104.042265,9.35522983 L104.042265,9.35522983 Z" id="Fill-67"></path>
                </g>
            </g>
        </g>
    </g>
</svg>