<?xml version="1.0" encoding="UTF-8"?>
<svg width="30px" height="21px" viewBox="0 0 30 21" version="1.1" xmlns="http://www.w3.org/2000/svg" xmlns:xlink="http://www.w3.org/1999/xlink">
    <title>7E048A0F-3C78-42F8-8B80-BDA9214D2D44</title>
    <g id="desktop" stroke="none" stroke-width="1" fill="none" fill-rule="evenodd">
        <g id="landing" transform="translate(-954.000000, -1898.000000)" fill="#EC2227" fill-rule="nonzero">
            <g id="Group-14" transform="translate(0.000000, 1346.000000)">
                <g id="Group-13" transform="translate(934.000000, 480.000000)">
                    <g id="swimming-pool" transform="translate(20.000000, 72.000000)">
                        <path d="M29.625,19.5 L28.5,19.5 C27.279375,19.5 26.353125,19.1053125 25.8707812,18.6609375 C25.4535937,18.2760938 24.9492188,18 24.3815625,18 L23.6175,18 C23.0498437,18 22.5454687,18.2760938 22.1282813,18.6609375 C21.646875,19.1053125 20.720625,19.5 19.5,19.5 C18.279375,19.5 17.353125,19.1053125 16.8707813,18.6609375 C16.4535937,18.2760938 15.9492187,18 15.3815625,18 L14.6175,18 C14.0498437,18 13.5454687,18.2760938 13.1282812,18.6609375 C12.646875,19.1053125 11.720625,19.5 10.5,19.5 C9.279375,19.5 8.353125,19.1053125 7.87078125,18.6609375 C7.45359375,18.2760938 6.94921875,18 6.3815625,18 L5.6175,18 C5.04984375,18 4.54546875,18.2760938 4.12828125,18.6609375 C3.646875,19.1053125 2.720625,19.5 1.5,19.5 L0.375,19.5 C0.1678125,19.5 0,19.6678125 0,19.875 L0,20.625 C0,20.8321875 0.1678125,21 0.375,21 L1.5,21 C3.3103125,21 4.90875,20.4285938 6,19.5075 C7.09125,20.4290625 8.6896875,21 10.5,21 C12.3103125,21 13.90875,20.4285938 15,19.5075 C16.09125,20.4290625 17.6896875,21 19.5,21 C21.3103125,21 22.90875,20.4285938 24,19.5075 C25.09125,20.4290625 26.6896875,21 28.5,21 L29.625,21 C29.8321875,21 30,20.8321875 30,20.625 L30,19.875 C30,19.6678125 29.8321875,19.5 29.625,19.5 Z M9,17.6348437 L9,10.5 L19.5,10.5 L19.5,18 C20.2678125,18 20.7642188,17.7914063 21,17.6348437 L21,3.75 C21,2.50921875 22.0092187,1.5 23.25,1.5 C24.4907813,1.5 25.5,2.50921875 25.5,3.75 L25.5,4.125 C25.5,4.3321875 25.6678125,4.5 25.875,4.5 L26.625,4.5 C26.8321875,4.5 27,4.3321875 27,4.125 L27,3.75 C27,1.68234375 25.318125,0 23.25,0 C21.181875,0 19.5,1.68234375 19.5,3.75 L19.5,9 L9,9 L9,3.75 C9,2.50921875 10.0092188,1.5 11.25,1.5 C12.4907813,1.5 13.5,2.50921875 13.5,3.75 L13.5,4.125 C13.5,4.3321875 13.6678125,4.5 13.875,4.5 L14.625,4.5 C14.8321875,4.5 15,4.3321875 15,4.125 L15,3.75 C15,1.68234375 13.318125,0 11.25,0 C9.181875,0 7.5,1.68234375 7.5,3.75 L7.5,16.7109375 C7.98796875,16.8857813 8.458125,17.161875 8.88796875,17.5579688 C8.91140625,17.58 8.960625,17.6085937 9,17.6348437 Z" id="Shape"></path>
                    </g>
                </g>
            </g>
        </g>
    </g>
</svg>