<?xml version="1.0" encoding="UTF-8"?>
<svg width="30px" height="24px" viewBox="0 0 30 24" version="1.1" xmlns="http://www.w3.org/2000/svg" xmlns:xlink="http://www.w3.org/1999/xlink">
    <title>4732C73E-40A2-4430-83F5-327786C61F08</title>
    <g id="desktop" stroke="none" stroke-width="1" fill="none" fill-rule="evenodd">
        <g id="landing" transform="translate(-547.000000, -1647.000000)" fill="#EC2227" fill-rule="nonzero">
            <g id="Group-14" transform="translate(0.000000, 1346.000000)">
                <g id="Group-13" transform="translate(527.000000, 230.000000)">
                    <g id="tree-palm" transform="translate(20.000000, 71.000000)">
                        <path d="M21.7852521,3.00001785 C19.6936772,3.00001785 17.7014778,3.69330323 16.1663124,4.86846647 C15.1631815,2.06251227 11.9817563,0 8.21485888,0 C4.09452186,0 0.649188859,2.40329555 0.0252788966,5.71362775 C-0.14722213,6.63003945 0.583563469,7.50004463 1.59372573,7.50004463 L4.38889861,7.50004463 L6,6.21003696 L6.62297441,6.70925868 C6.5962555,6.73550883 6.56578657,6.75613395 6.53906766,6.78144661 C3.62389406,9.6966202 2.88842093,13.8310198 4.78827599,16.6121301 C5.30390406,17.3658846 6.42375447,17.5051042 7.18360274,16.7419746 L12.8381676,10.5441252 C12.9787935,15.3118099 11.8847245,20.0096503 11.3044085,22.1031003 C11.1781309,22.5515284 11.2684865,23.0332009 11.5486989,23.4053766 C11.8289112,23.7775524 12.2668367,23.9975384 12.7326983,24.0001503 L16.9716297,24.0001503 C17.7045344,24.0024553 18.3293793,23.4694056 18.442576,22.7452916 C19.1457052,18.3858907 18.5213265,13.7119566 17.8571038,10.5000625 L22.06041,10.5000625 L23.2501046,9.3103679 L24.4393304,10.5000625 L28.4063853,10.5000625 C29.4123288,10.5000625 30.1473331,9.63568234 29.9748321,8.7136456 C29.3509222,5.4033134 25.9055892,3.00001785 21.7852521,3.00001785 Z M6.00000195,4.29002553 L3.86295798,6.00003571 L1.49997517,5.99206691 C1.98232179,3.43127042 4.86937022,1.50000893 8.21485888,1.50000893 C10.7311239,1.50000893 12.9187931,2.57251531 14.0902063,4.15174346 C12.0642568,3.76314739 9.76127433,4.31486943 7.79438763,5.72440907 L6.00000195,4.29002553 Z M6.02765837,15.7660313 C4.55718087,13.6149248 5.23359114,10.2084982 7.59938647,7.84410918 C9.12283303,6.32113137 11.0433132,5.50972029 12.7950424,5.50972029 C13.5443782,5.50201359 14.2855227,5.66605316 14.9616178,5.98925439 L6.02765837,15.7660313 Z M16.9716297,22.5001339 L12.7500421,22.5024777 C13.4123898,20.1160572 14.7338039,14.4657111 14.2636449,8.98083469 L15.5827152,7.53520109 C16.1508436,9.5109941 17.9405418,16.4532229 16.9716297,22.5001339 Z M25.0604279,9.00005356 L23.2501046,7.18973029 L21.4393126,9.00005356 L17.5238205,9.00005356 C17.1127243,7.29191839 16.7803786,6.32206887 16.7667848,6.28128738 C18.0694488,5.15628068 19.879772,4.50002678 21.7852521,4.50002678 C25.1307408,4.50002678 28.0196642,6.43128827 28.4063853,9.00005356 L25.0604279,9.00005356 Z" id="Shape"></path>
                    </g>
                </g>
            </g>
        </g>
    </g>
</svg>