<?xml version="1.0" encoding="UTF-8"?>
<svg width="30px" height="20px" viewBox="0 0 30 20" version="1.1" xmlns="http://www.w3.org/2000/svg" xmlns:xlink="http://www.w3.org/1999/xlink">
    <title>335B0E05-8C15-47FE-9763-FB76E8B4B56B</title>
    <g id="desktop" stroke="none" stroke-width="1" fill="none" fill-rule="evenodd">
        <g id="landing" transform="translate(-954.000000, -1649.000000)" fill="#EC2227" fill-rule="nonzero">
            <g id="Group-14" transform="translate(0.000000, 1346.000000)">
                <g id="Group-13" transform="translate(934.000000, 230.000000)">
                    <g id="whistle" transform="translate(20.000000, 73.000000)">
                        <path d="M9.84337256,6.81536366 C8.16999922,6.81536366 6.81536366,8.16999922 6.81536366,9.84337256 C6.81536366,11.5167459 8.16999922,12.8713814 9.84337256,12.8713814 C11.5167459,12.8713814 12.8713814,11.5167459 12.8713814,9.84337256 C12.8713814,8.16999922 11.5167459,6.81536366 9.84337256,6.81536366 L9.84337256,6.81536366 Z M9.84337256,11.357377 C9.00902955,11.357377 8.32936811,10.6777156 8.32936811,9.84337256 C8.32936811,9.00902955 9.00902955,8.32936811 9.84337256,8.32936811 C10.6777156,8.32936811 11.357377,9.00902955 11.357377,9.84337256 C11.357377,10.6777156 10.6777156,11.357377 9.84337256,11.357377 Z M21.7585407,7.43408994 L20.460153,8.20281046 C20.3242207,8.28249491 20.1554771,8.27312027 20.0289195,8.17468654 L18.8383401,7.21847321 C18.7117825,7.12003948 18.6649093,6.95129595 18.7164698,6.8013017 L19.1992638,5.40448026 C19.3023848,5.09980445 19.2039511,4.76700471 18.9555231,4.56544994 C15.7681454,2.01554771 13.9025919,0.00468732026 9.83868523,0.00468732026 C8.29186955,0.00468732026 6.74505386,0.370298301 5.33417046,1.09683294 C4.75763007,0.412484183 3.92797438,0 3.02800889,0 C1.35932288,0 0,1.35932288 0,3.02800889 C0,3.94203634 0.407796863,4.78575399 1.0874583,5.35291974 C-0.810906406,9.05590275 -0.215616732,13.7057245 2.88270196,16.8040431 C4.80450327,18.7258445 7.32159425,19.6867451 9.84337256,19.6867451 C12.3651509,19.6867451 14.8822418,18.7258445 16.8040431,16.8040431 C17.2774625,16.3306238 17.6899467,15.8243932 18.046183,15.2853514 L25.1662225,19.3539454 C25.4990222,19.5414382 25.9161937,19.4570664 26.1458724,19.1523906 L29.8488554,14.2166424 C30.0925961,13.8885299 30.0363483,13.4244852 29.7176105,13.1713699 L22.6163203,7.49033778 C22.3725796,7.29347033 22.0304052,7.27003373 21.7585407,7.43408994 Z M1.51400445,3.02800889 C1.51400445,2.19366588 2.19366588,1.51400445 3.02800889,1.51400445 C3.40768183,1.51400445 3.76860549,1.65462405 4.04047007,1.90305203 C3.63736053,2.1983532 3.24362562,2.51709098 2.88270196,2.88270196 C2.5217783,3.24362562 2.20772784,3.6326732 1.91242667,4.03109543 C1.66868601,3.75923085 1.51400445,3.41236915 1.51400445,3.02800889 Z M25.5365208,17.4415187 C25.4240251,17.5962003 25.2130957,17.6383862 25.0443522,17.5446397 L17.5680764,13.2698037 C16.9493501,14.2025804 14.8963038,18.1539914 9.8761838,18.1728064 C2.47021778,18.2008646 -1.29370039,9.20120968 3.95141098,3.9560983 C7.80907556,0.0984337256 12.5479563,1.70618458 14.2869522,2.80770484 C14.7181856,3.1217553 17.591513,5.41385491 17.591513,5.41385491 L17.0243472,7.06379164 C16.9212262,7.36846746 17.0196599,7.70126719 17.2680879,7.90282197 L19.7008071,9.84805988 C19.9445477,10.0449273 20.2867221,10.0683639 20.5585867,9.90899504 L22.0819658,9.00902955 L27.9129922,13.6729132 C28.0723611,13.7994709 28.100485,14.0338369 27.9786147,14.1978931 L25.5365208,17.4415187 L25.5365208,17.4415187 Z" id="Shape"></path>
                    </g>
                </g>
            </g>
        </g>
    </g>
</svg>